<svg width="14" height="14" viewBox="0 0 14 14" fill="none" xmlns="http://www.w3.org/2000/svg">
<path d="M7.00208 3.79113C7.27444 3.74563 7.49998 3.52614 7.49998 3.25C7.49998 2.97386 7.275 2.74672 7.00097 2.78082C5.19082 3.00609 3.75607 4.44084 3.5308 6.25099C3.4967 6.52502 3.72384 6.75 3.99998 6.75C4.27612 6.75 4.49561 6.52446 4.54111 6.25209C4.75124 4.99415 5.74413 4.00125 7.00208 3.79113Z" fill="#72767A"/>
<path fill-rule="evenodd" clip-rule="evenodd" d="M13 6.25C13 9.40229 10.569 11.9868 7.47955 12.2311C8.04181 12.3663 8.55259 12.7433 8.82762 13.3622L9 13.75H5L5.17238 13.3622C5.44741 12.7433 5.95818 12.3663 6.52045 12.2311C3.43096 11.9868 1 9.40229 1 6.25C1 2.93629 3.68629 0.25 7 0.25C10.3137 0.25 13 2.93629 13 6.25ZM7 11.25C9.76142 11.25 12 9.01142 12 6.25C12 3.48858 9.76142 1.25 7 1.25C4.23858 1.25 2 3.48858 2 6.25C2 9.01142 4.23858 11.25 7 11.25Z" fill="#72767A"/>
</svg>
