<svg width="14" height="14" viewBox="0 0 14 14" fill="none" xmlns="http://www.w3.org/2000/svg">
<path fill-rule="evenodd" clip-rule="evenodd" d="M11.5 0H2.5C1.39543 0 0.5 0.895416 0.5 2V12C0.5 13.1046 1.39543 14 2.5 14H11.5C12.6046 14 13.5 13.1046 13.5 12V2C13.5 0.895416 12.6046 0 11.5 0ZM1.5 12V3H12.5V12C12.5 12.5523 12.0523 13 11.5 13H2.5C1.94771 13 1.5 12.5523 1.5 12ZM4.5 5C4.5 5.55228 4.05229 6 3.5 6C2.94771 6 2.5 5.55228 2.5 5C2.5 4.44772 2.94771 4 3.5 4C4.05229 4 4.5 4.44772 4.5 5ZM3.5 9C4.05229 9 4.5 8.55228 4.5 8C4.5 7.44772 4.05229 7 3.5 7C2.94771 7 2.5 7.44772 2.5 8C2.5 8.55228 2.94771 9 3.5 9ZM4.5 11C4.5 11.5523 4.05229 12 3.5 12C2.94771 12 2.5 11.5523 2.5 11C2.5 10.4477 2.94771 10 3.5 10C4.05229 10 4.5 10.4477 4.5 11ZM6.5 6C7.05229 6 7.5 5.55228 7.5 5C7.5 4.44772 7.05229 4 6.5 4C5.94771 4 5.5 4.44772 5.5 5C5.5 5.55228 5.94771 6 6.5 6ZM7.5 8C7.5 8.55228 7.05229 9 6.5 9C5.94771 9 5.5 8.55228 5.5 8C5.5 7.44772 5.94771 7 6.5 7C7.05229 7 7.5 7.44772 7.5 8ZM6.5 12C7.05229 12 7.5 11.5523 7.5 11C7.5 10.4477 7.05229 10 6.5 10C5.94771 10 5.5 10.4477 5.5 11C5.5 11.5523 5.94771 12 6.5 12ZM10.5 5C10.5 5.55228 10.0523 6 9.5 6C8.94771 6 8.5 5.55228 8.5 5C8.5 4.44772 8.94771 4 9.5 4C10.0523 4 10.5 4.44772 10.5 5ZM9.5 9C10.0523 9 10.5 8.55228 10.5 8C10.5 7.44772 10.0523 7 9.5 7C8.94771 7 8.5 7.44772 8.5 8C8.5 8.55228 8.94771 9 9.5 9Z" fill="#72767A"/>
</svg>
