<svg xmlns="http://www.w3.org/2000/svg" xmlns:xlink="http://www.w3.org/1999/xlink" enable-background="new 0 0 850 850" viewBox="0 0 850 850"><path fill="#919191" d="M492.38 275.98v76.34c0 1.98-1.59 3.57-3.57 3.57h-2.38v-83.51h2.38C490.79 272.39 492.38 274 492.38 275.98zM267.73 312.3h-2.22c-1.84 0-3.33-1.49-3.33-3.33v-33.97c0-1.84 1.49-3.33 3.33-3.33h2.22V312.3zM267.73 356.61h-1.94c-1.6 0-2.9-1.3-2.9-2.9v-19.2c0-1.6 1.3-2.9 2.9-2.9h1.94V356.61z" class="colorfc5427 svgShape"/><path fill="#a1a1a1" d="M486.42,222.26V601.7c0,2.18-0.22,4.31-0.64,6.36c-0.21,1.03-0.47,2.02-0.78,3.01         c-0.17,0.5-0.33,1-0.5,1.48c-1.05,2.9-2.54,5.58-4.35,8.01c-0.91,1.22-1.91,2.37-2.98,3.44c-1.07,1.07-2.22,2.05-3.42,2.97         c-0.8,0.6-1.65,1.16-2.51,1.7h-0.01c-0.86,0.53-1.75,1.01-2.66,1.45h-0.01c-1.37,0.66-2.81,1.23-4.28,1.69h-0.01         c-0.98,0.3-1.98,0.57-3.01,0.78c-2.06,0.42-4.2,0.64-6.37,0.64H299.25c-2.3,0-4.54-0.25-6.71-0.72         c-0.76-0.17-1.51-0.35-2.24-0.57c-1.63-0.48-3.2-1.09-4.71-1.82c-0.76-0.37-1.5-0.76-2.2-1.18c-0.33-0.19-0.67-0.39-0.98-0.6         c-0.69-0.43-1.36-0.9-2.01-1.39c-2.02-1.51-3.85-3.27-5.46-5.21c-0.64-0.78-1.25-1.58-1.82-2.42         c-0.85-1.26-1.61-2.58-2.27-3.96c-0.9-1.84-1.61-3.77-2.12-5.78v-0.01c-0.65-2.52-1-5.15-1-7.87V222.26         c0-17.39,14.12-31.52,31.54-31.52H454.9C472.32,190.74,486.42,204.87,486.42,222.26z" class="colorff7444 svgShape"/><path fill="#a1a1a1" d="M486.42 222.27v5.23H267.73v-5.23c0-17.4 14.11-31.53 31.53-31.53h155.64C472.31 190.74 486.42 204.87 486.42 222.27zM486.42 596.46v5.24c0 2.18-.22 4.31-.64 6.36-.22 1.03-.47 2.04-.78 3.01-.17.5-.33 1-.5 1.48-1.07 2.9-2.55 5.58-4.35 8.01-.91 1.22-1.91 2.37-2.98 3.44-1.07 1.07-2.22 2.05-3.42 2.97-.8.6-1.65 1.16-2.51 1.7 0 0 0-.01-.01 0-.86.51-1.75 1-2.66 1.45-.01-.01-.01-.01-.01 0-1.37.65-2.81 1.22-4.28 1.69-.01-.01-.01 0-.01 0-.98.3-2 .55-3.01.78-2.06.42-4.2.64-6.37.64H299.25c-2.3 0-4.54-.25-6.71-.72-.76-.15-1.51-.35-2.24-.57-1.63-.48-3.2-1.09-4.71-1.82-.76-.37-1.5-.76-2.2-1.18-.33-.19-.67-.39-.98-.6-.69-.43-1.36-.9-2.01-1.39-2.02-1.51-3.85-3.27-5.46-5.21-.64-.78-1.25-1.58-1.82-2.42-.85-1.26-1.61-2.58-2.27-3.96-.89-1.83-1.59-3.75-2.12-5.78 0 0 .01 0 0-.01-.64-2.51-.98-5.15-.98-7.87v-5.24H486.42z" class="colorff7444 svgShape"/><circle cx="339.49" cy="209.12" r="6.23" fill="#ffffff" class="colorfff svgShape"/><path fill="#ffffff" d="M359.22 209.12c0 1.66-1.34 3-3 3-1.66 0-3-1.34-3-3s1.34-3 3-3C357.87 206.12 359.22 207.46 359.22 209.12zM421.99 212.84h-53.05c-1.23 0-2.23-1-2.23-2.23v-2.98c0-1.23 1-2.23 2.23-2.23h53.05c1.23 0 2.23 1 2.23 2.23v2.98C424.22 211.84 423.22 212.84 421.99 212.84zM389.07 615.56c0 6.63-5.37 12-12 12-6.63 0-12-5.37-12-12 0-6.63 5.37-12 12-12C383.7 603.56 389.07 608.93 389.07 615.56z" class="colorfff svgShape"/><rect width="207.34" height="368.96" x="272.55" y="227.49" fill="#fbfbfb" class="colorf8f8ff svgShape"/><path fill="#9b9b9b" d="M458.15,322.15H294.3c-3.89,0-7.04-3.15-7.04-7.04v-62.13c0-3.89,3.15-7.04,7.04-7.04h163.85            c3.89,0,7.04,3.15,7.04,7.04v62.13C465.19,319,462.04,322.15,458.15,322.15z" opacity=".2" class="colorf2444e svgShape"/><circle cx="318.84" cy="277.98" r="20.78" fill="#ffffff" transform="rotate(-45.001 318.836 277.986)" class="colorfff svgShape"/><polygon fill="#9b9b9b" points="444.88 262.8 438.76 263.78 443.26 268.05 442.31 274.17 447.75 271.21 453.28 274.01 452.15 267.92 456.52 263.52 450.37 262.72 447.55 257.2" opacity=".2" class="colorf2444e svgShape"/><polygon fill="#9b9b9b" points="423.18 262.8 417.06 263.78 421.56 268.05 420.6 274.17 426.05 271.21 431.58 274.01 430.44 267.92 434.82 263.52 428.67 262.72 425.84 257.2" opacity=".2" class="colorf2444e svgShape"/><polygon fill="#9b9b9b" points="401.48 262.8 395.36 263.78 399.86 268.05 398.9 274.17 404.35 271.21 409.88 274.01 408.74 267.92 413.12 263.52 406.97 262.72 404.14 257.2" class="colorf2444e svgShape"/><polygon fill="#9b9b9b" points="378.16 268.04 377.19 274.17 382.44 271.33 382.64 271.22 388.17 274.02 387.05 267.91 391.41 263.53 385.27 262.73 382.44 257.2 379.77 262.8 373.65 263.79" class="colorf2444e svgShape"/><polygon fill="#9b9b9b" points="358.07 262.8 351.95 263.78 356.45 268.05 355.5 274.17 360.94 271.21 366.47 274.01 365.33 267.92 369.71 263.52 363.56 262.72 360.74 257.2" class="colorf2444e svgShape"/><g><path fill="#ffffff" d="M432.28,285.89h-80.33c-0.21,0-0.38-0.17-0.38-0.38c0-0.21,0.17-0.38,0.38-0.38h80.33            c0.21,0,0.38,0.17,0.38,0.38C432.66,285.72,432.49,285.89,432.28,285.89z" class="colorfff svgShape"/></g><g><path fill="#ffffff" d="M447.64,294.35h-95.69c-0.21,0-0.38-0.17-0.38-0.38s0.17-0.38,0.38-0.38h95.69            c0.21,0,0.38,0.17,0.38,0.38S447.85,294.35,447.64,294.35z" class="colorfff svgShape"/></g><g><path fill="#ffffff" d="M447.64,302.81h-95.69c-0.21,0-0.38-0.17-0.38-0.38s0.17-0.38,0.38-0.38h95.69            c0.21,0,0.38,0.17,0.38,0.38S447.85,302.81,447.64,302.81z" class="colorfff svgShape"/></g><g><path fill="#ffffff" d="M447.64,311.27h-95.69c-0.21,0-0.38-0.17-0.38-0.38s0.17-0.38,0.38-0.38h95.69            c0.21,0,0.38,0.17,0.38,0.38S447.85,311.27,447.64,311.27z" class="colorfff svgShape"/></g><g><path fill="#9b9b9b" d="M458.15,407.43H294.3c-3.89,0-7.04-3.15-7.04-7.04v-62.13c0-3.89,3.15-7.04,7.04-7.04h163.85            c3.89,0,7.04,3.15,7.04,7.04v62.13C465.19,404.28,462.04,407.43,458.15,407.43z" opacity=".2" class="colorf2444e svgShape"/><circle cx="318.84" cy="363.26" r="20.78" fill="#ffffff" transform="rotate(-45.001 318.835 363.269)" class="colorfff svgShape"/><polygon fill="#9b9b9b" points="444.88 348.08 438.76 349.07 443.26 353.33 442.31 359.46 447.75 356.49 453.28 359.3 452.15 353.2 456.52 348.81 450.37 348 447.55 342.48" opacity=".2" class="colorf2444e svgShape"/><polygon fill="#9b9b9b" points="423.18 348.08 417.06 349.07 421.56 353.33 420.6 359.46 426.05 356.49 431.58 359.3 430.44 353.2 434.82 348.81 428.67 348 425.84 342.48" class="colorf2444e svgShape"/><polygon fill="#9b9b9b" points="401.48 348.08 395.36 349.07 399.86 353.33 398.9 359.46 404.35 356.49 409.88 359.3 408.74 353.2 413.12 348.81 406.97 348 404.14 342.48" class="colorf2444e svgShape"/><polygon fill="#9b9b9b" points="378.16 353.33 377.19 359.45 382.44 356.61 382.64 356.5 388.17 359.3 387.05 353.2 391.41 348.81 385.27 348.01 382.44 342.48 379.77 348.08 373.65 349.07" class="colorf2444e svgShape"/><polygon fill="#9b9b9b" points="358.07 348.08 351.95 349.07 356.45 353.33 355.5 359.46 360.94 356.49 366.47 359.3 365.33 353.2 369.71 348.81 363.56 348 360.74 342.48" class="colorf2444e svgShape"/><g><path fill="#ffffff" d="M432.28,371.17h-80.33c-0.21,0-0.38-0.17-0.38-0.38c0-0.21,0.17-0.38,0.38-0.38h80.33            c0.21,0,0.38,0.17,0.38,0.38C432.66,371,432.49,371.17,432.28,371.17z" class="colorfff svgShape"/></g><g><path fill="#ffffff" d="M447.64,379.63h-95.69c-0.21,0-0.38-0.17-0.38-0.38s0.17-0.38,0.38-0.38h95.69            c0.21,0,0.38,0.17,0.38,0.38S447.85,379.63,447.64,379.63z" class="colorfff svgShape"/></g><g><path fill="#ffffff" d="M447.64,388.09h-95.69c-0.21,0-0.38-0.17-0.38-0.38s0.17-0.38,0.38-0.38h95.69            c0.21,0,0.38,0.17,0.38,0.38S447.85,388.09,447.64,388.09z" class="colorfff svgShape"/></g><g><path fill="#ffffff" d="M447.64,396.56h-95.69c-0.21,0-0.38-0.17-0.38-0.38s0.17-0.38,0.38-0.38h95.69            c0.21,0,0.38,0.17,0.38,0.38S447.85,396.56,447.64,396.56z" class="colorfff svgShape"/></g></g><g><path fill="#9b9b9b" d="M458.15,492.72H294.3c-3.89,0-7.04-3.15-7.04-7.04v-62.13c0-3.89,3.15-7.04,7.04-7.04h163.85            c3.89,0,7.04,3.15,7.04,7.04v62.13C465.19,489.57,462.04,492.72,458.15,492.72z" opacity=".2" class="colorf2444e svgShape"/><circle cx="318.84" cy="448.55" r="20.78" fill="#ffffff" class="colorfff svgShape"/><polygon fill="#9b9b9b" points="444.88 433.37 438.76 434.35 443.26 438.61 442.31 444.74 447.75 441.77 453.28 444.58 452.15 438.48 456.52 434.09 450.37 433.29 447.55 427.77" class="colorf2444e svgShape"/><polygon fill="#9b9b9b" points="423.18 433.37 417.06 434.35 421.56 438.61 420.6 444.74 426.05 441.77 431.58 444.58 430.44 438.48 434.82 434.09 428.67 433.29 425.84 427.77" class="colorf2444e svgShape"/><polygon fill="#9b9b9b" points="401.48 433.37 395.36 434.35 399.86 438.61 398.9 444.74 404.35 441.77 409.88 444.58 408.74 438.48 413.12 434.09 406.97 433.29 404.14 427.77" class="colorf2444e svgShape"/><polygon fill="#9b9b9b" points="378.16 438.61 377.19 444.73 382.44 441.89 382.64 441.78 388.17 444.58 387.05 438.48 391.41 434.09 385.27 433.29 382.44 427.77 379.77 433.37 373.65 434.35" class="colorf2444e svgShape"/><polygon fill="#9b9b9b" points="358.07 433.37 351.95 434.35 356.45 438.61 355.5 444.74 360.94 441.77 366.47 444.58 365.33 438.48 369.71 434.09 363.56 433.29 360.74 427.77" class="colorf2444e svgShape"/><g><path fill="#ffffff" d="M432.28,456.45h-80.33c-0.21,0-0.38-0.17-0.38-0.38c0-0.21,0.17-0.38,0.38-0.38h80.33            c0.21,0,0.38,0.17,0.38,0.38C432.66,456.29,432.49,456.45,432.28,456.45z" class="colorfff svgShape"/></g><g><path fill="#ffffff" d="M447.64,464.92h-95.69c-0.21,0-0.38-0.17-0.38-0.38s0.17-0.38,0.38-0.38h95.69            c0.21,0,0.38,0.17,0.38,0.38S447.85,464.92,447.64,464.92z" class="colorfff svgShape"/></g><g><path fill="#ffffff" d="M447.64,473.38h-95.69c-0.21,0-0.38-0.17-0.38-0.38s0.17-0.38,0.38-0.38h95.69            c0.21,0,0.38,0.17,0.38,0.38S447.85,473.38,447.64,473.38z" class="colorfff svgShape"/></g><g><path fill="#ffffff" d="M447.64,481.84h-95.69c-0.21,0-0.38-0.17-0.38-0.38s0.17-0.38,0.38-0.38h95.69            c0.21,0,0.38,0.17,0.38,0.38S447.85,481.84,447.64,481.84z" class="colorfff svgShape"/></g></g><g><path fill="#9b9b9b" d="M458.15,578H294.3c-3.89,0-7.04-3.15-7.04-7.04v-62.13c0-3.89,3.15-7.04,7.04-7.04h163.85            c3.89,0,7.04,3.15,7.04,7.04v62.13C465.19,574.85,462.04,578,458.15,578z" opacity=".2" class="colorf2444e svgShape"/><circle cx="318.84" cy="533.83" r="20.78" fill="#ffffff" transform="rotate(-76.803 318.845 533.827)" class="colorfff svgShape"/><polygon fill="#9b9b9b" points="444.88 518.65 438.76 519.63 443.26 523.9 442.31 530.02 447.75 527.06 453.28 529.86 452.15 523.76 456.52 519.37 450.37 518.57 447.55 513.05" opacity=".2" class="colorf2444e svgShape"/><polygon fill="#9b9b9b" points="423.18 518.65 417.06 519.63 421.56 523.9 420.6 530.02 426.05 527.06 431.58 529.86 430.44 523.76 434.82 519.37 428.67 518.57 425.84 513.05" opacity=".2" class="colorf2444e svgShape"/><polygon fill="#9b9b9b" points="401.48 518.65 395.36 519.63 399.86 523.9 398.9 530.02 404.35 527.06 409.88 529.86 408.74 523.76 413.12 519.37 406.97 518.57 404.14 513.05" opacity=".2" class="colorf2444e svgShape"/><polygon fill="#9b9b9b" points="378.16 523.89 377.19 530.01 382.44 527.18 382.64 527.06 388.17 529.86 387.05 523.76 391.41 519.38 385.27 518.57 382.44 513.05 379.77 518.65 373.65 519.64" class="colorf2444e svgShape"/><polygon fill="#9b9b9b" points="358.07 518.65 351.95 519.63 356.45 523.9 355.5 530.02 360.94 527.06 366.47 529.86 365.33 523.76 369.71 519.37 363.56 518.57 360.74 513.05" class="colorf2444e svgShape"/><g><path fill="#ffffff" d="M432.28,541.74h-80.33c-0.21,0-0.38-0.17-0.38-0.38c0-0.21,0.17-0.38,0.38-0.38h80.33            c0.21,0,0.38,0.17,0.38,0.38C432.66,541.57,432.49,541.74,432.28,541.74z" class="colorfff svgShape"/></g><g><path fill="#ffffff" d="M447.64,550.2h-95.69c-0.21,0-0.38-0.17-0.38-0.38c0-0.21,0.17-0.38,0.38-0.38h95.69            c0.21,0,0.38,0.17,0.38,0.38C448.02,550.03,447.85,550.2,447.64,550.2z" class="colorfff svgShape"/></g><g><path fill="#ffffff" d="M447.64,558.66h-95.69c-0.21,0-0.38-0.17-0.38-0.38c0-0.21,0.17-0.38,0.38-0.38h95.69            c0.21,0,0.38,0.17,0.38,0.38C448.02,558.49,447.85,558.66,447.64,558.66z" class="colorfff svgShape"/></g><g><path fill="#ffffff" d="M447.64,567.12h-95.69c-0.21,0-0.38-0.17-0.38-0.38c0-0.21,0.17-0.38,0.38-0.38h95.69            c0.21,0,0.38,0.17,0.38,0.38C448.02,566.95,447.85,567.12,447.64,567.12z" class="colorfff svgShape"/></g></g><g opacity=".5"><defs><circle id="a" cx="318.84" cy="277.98" r="20.78" opacity=".5" transform="rotate(-45.001 318.836 277.986)"/></defs><clipPath id="b"><use overflow="visible" xlink:href="#a"/></clipPath><g clip-path="url(#b)"><circle cx="318.84" cy="277.98" r="20.78" fill="#ffffff" transform="rotate(-45.001 318.836 277.986)" class="colorfff svgShape"/></g><g clip-path="url(#b)" opacity=".7"><path fill="#9b9b9b" d="M327.76,273.36c1.61,2.79,0.22,6.59,1.85,9.37c0.65,1.11,1.76,1.98,2.07,3.23           c0.26,1.05-0.14,2.24-1,2.91c-0.85,0.67-2.1,0.78-3.06,0.27c-0.21-0.11-0.4-0.25-0.63-0.31c-0.8-0.24-1.53,0.48-2.22,0.95           c-0.85,0.58-1.95,0.84-2.93,0.52c-1.25-0.42-2.02-1.68-2.44-2.93c-1.16-3.5-0.34-7.32,0.74-10.85           c0.54-1.76,1.33-3.71,3.06-4.35" class="colorf2444e svgShape"/><path fill="#d7d7d7" d="M321.05,285.79c0,0-0.07,3.2,0.42,3.41c0.98,0.41,2.07,0.64,2.07,0.64s-2.26,2.53-3.99,2.45           c-2.42-0.12-4.55-2.89-4.51-3.26c0.06-0.63-0.35-4.17-0.35-4.17" class="colorffb9b0 svgShape"/><path fill="#d7d7d7" d="M327.44,272.72c0,0,0.51,6.19-0.55,9.43c-0.78,2.4-3.99,4.64-6.68,4.61           c-7.39,0-8.71-10.04-8.68-10.52c0.04-0.49,10.9-4.7,10.9-4.7L327.44,272.72z" class="colorffb9b0 svgShape"/><path fill="#6d6d6d" d="M316.95,289.26c0,0,3.37,3.74,4.52-0.06c2.91,0.81,6.04,1.4,7.3,4.04           c4.03,11.89-9.11,12.93-12.83,12.93c-5.26,0-13.89-2.89-9.54-12.7C307.74,290.44,309.76,288.57,316.95,289.26z" class="colorb3282f svgShape"/><path fill="#9b9b9b" d="M307.69,291.08c-0.16-0.09-0.33-0.18-0.48-0.28c-0.85-0.51-1.62-1.04-1.98-2           c-0.51-1.39-0.76-3.51-0.04-4.86c0.49-0.91,1.4-1.51,2.03-2.33c0.87-1.13,1.12-2.62,1.19-4.04           c0.07-1.42-0.01-2.87,0.29-4.26c0.51-2.38,1.19-4.65,3.03-6.19c2.94-2.46,8.84-3.92,12.05-1.17c0.58,0.5,0.7,0.9,1.49,0.98           c1.06,0.1,1.74,0.24,2.69,0.79c1.05,0.61,2.33,1.47,2.18,2.85c-0.1,0.96-1.19,2.47-2.01,2.92           c-0.34,0.19-0.74,0.25-1.13,0.25c-1.25,0.02-2.29-0.79-3.52-0.66c-0.6,0.06-1.16,0.39-1.54,0.85           c-0.44,0.55-0.38,1.31-0.9,1.82c-0.83,0.82-2.11,0.75-3.09,1.28c-0.16,0.09-0.33,0.19-0.42,0.35           c-0.09,0.16-0.1,0.35-0.11,0.53c-0.02,0.52-0.04,1.03-0.06,1.55c-0.49-0.21-0.54-0.91-0.94-1.26           c-0.39-0.34-1.02-0.24-1.41,0.09c-0.39,0.33-0.58,0.85-0.68,1.35c-0.12,0.6,0.09,1.24,0.27,1.85           c0.32,1.05,1.22,2,1.95,1.31c0.53,0.78-0.05,2.08-0.07,2.96c-0.02,0.7,0,2.08,0.65,2.54c0.6,0.42,1.55,0.1,1.59,1.19           c0.03,0.99-0.96,1.77-1.95,1.89c-0.99,0.12-1.96-0.23-2.92-0.51c-0.95-0.28-2-0.5-2.92-0.14           c-0.56,0.22-1.05,0.64-1.64,0.74C308.74,291.56,308.2,291.35,307.69,291.08z" class="colorf2444e svgShape"/></g></g><g opacity=".5"><defs><circle id="c" cx="318.84" cy="363.26" r="20.78" opacity=".5" transform="rotate(-45.001 318.835 363.269)"/></defs><clipPath id="d"><use overflow="visible" xlink:href="#c"/></clipPath><g clip-path="url(#d)"><circle cx="318.84" cy="363.26" r="20.78" fill="#ffffff" transform="rotate(-45.001 318.835 363.269)" class="colorfff svgShape"/></g><g clip-path="url(#d)"><circle cx="318.84" cy="363.26" r="20.78" fill="#ffffff" transform="rotate(-45.001 318.835 363.269)" class="colorfff svgShape"/></g><g clip-path="url(#d)" opacity=".7"><path fill="#d7d7d7" d="M327.31,363.81c-0.69,0.27-0.41,2.63-0.53,3.39c-0.13,0.76-0.68,3.71-2.23,4.16             c-1.55,0.45-2.51,0.57-2.52,0.83c-0.01,0.12,0.03,0.66,0.08,1.2c0.05,0.6,0.1,1.2,0.1,1.2l-1.39,1.73l-1.53,0.11             l-3.74-1.08c0,0-0.17-3.89-0.33-4.49c-0.1-0.38-1.5-3-2.52-5.57c-0.6-1.5-1.06-2.98-1.07-3.98             c0-2.72,0.09-5.55,1.76-6.95c1.67-1.39,12.28-6.42,12.57,1.88c0,0,1.28,4.76,1.84,5.58             C328.37,362.62,328.01,363.53,327.31,363.81z" class="colorffb9b0 svgShape"/><path fill="#d7d7d7" d="M322.11,373.38c0.05,0.6,0.1,1.2,0.1,1.2l-0.4,1.94l-2.52-0.09l-3.74-1.08             c0,0-0.17-3.89-0.33-4.49c-0.1-0.38-1.5-3-2.52-5.57l0.14-1.6c0,0,3.06-0.35,3.18-0.33c0.12,0.01,1.09,1.88,1.09,1.98             c0,0.1-0.6,1.92-0.6,1.92s-0.11,2.5,0,4.43c0.05,1.01,0.75,1.89,1.73,2.16c0.55,0.15,1.18,0.28,1.77,0.28             C321.01,374.12,321.73,373.69,322.11,373.38z" class="colorffb9b0 svgShape"/><path fill="#9b9b9b" d="M316.24,362.85c0,0-1.28,5.34,1.71,8.19c2.98,2.86,8.16,1.29,8.89,0.65             c0.73-0.64,3.18-5.09,0.92-7.14c-2.26-2.05-5.24,0.19-5.24,0.19s-1.78,1.52-2.36,1.42c-0.56-0.09-1.87-2-1.43-5.41             c0.02-0.19,0.17-0.33,0.36-0.35c0.69-0.09,2.3-0.67,2.21-4.06c-0.01-0.28,0.22-0.52,0.51-0.51             c0.97,0.04,2.99,0.12,3.41,0.25c0,0,0.31,0.06,0.62,0.18c0.1,0.04,0.18,0.12,0.21,0.23c0.09,0.33,0.3,1.08,0.35,1.26             c0.07,0.23,0.58,1.91,0.58,1.91s0.53-0.32,0.53-0.92s-0.24-1.93-0.12-2.23c0.12-0.3,0.98-0.52,1.12-1.21             c0.32-1.58,0.96-7.72-4.08-4.82c-0.66,0.38-1.27,0.87-1.81,0.98c-0.7,0.14-1.34-0.51-2.78-0.66             c-2.01-0.22-10.97,0.4-9.89,9.33c1.07,8.93,5.32,10.98,5.32,10.98S315.18,363.76,316.24,362.85z" class="colorf2444e svgShape"/><g><path fill="#d7d7d7" d="M316.24,362.85c0,0-0.14-1.53-1.31-1.31c-1.57,0.29-2.24,4.39,1.05,4.45            C315.98,365.98,315.88,364.24,316.24,362.85z" class="colorffb9b0 svgShape"/></g><g><path fill="#6d6d6d" d="M315.65,375.26c0,0,4.62,1.75,6.67-0.64c5.68,0.8,7.63,0.75,10.97,4.75           c-2.82,5.01-17.91,7.33-18.46,7.15c-0.55-0.18-7.88-4.09-8.1-4.27S308.15,374.97,315.65,375.26z" class="colorb3282f svgShape"/></g></g></g><g opacity=".5"><defs><circle id="e" cx="318.84" cy="533.83" r="20.78" opacity=".5" transform="rotate(-76.803 318.845 533.827)"/></defs><clipPath id="f"><use overflow="visible" xlink:href="#e"/></clipPath><g clip-path="url(#f)"><circle cx="318.84" cy="533.83" r="20.78" fill="#ffffff" transform="rotate(-76.803 318.845 533.827)" class="colorfff svgShape"/></g><g clip-path="url(#f)"><circle cx="318.84" cy="533.83" r="20.78" fill="#ffffff" transform="rotate(-76.803 318.845 533.827)" class="colorfff svgShape"/></g><g clip-path="url(#f)" opacity=".7"><path fill="#d7d7d7" d="M327.31,534.37c-0.69,0.27-0.41,2.63-0.53,3.39c-0.13,0.76-0.68,3.71-2.23,4.16             c-1.55,0.45-2.51,0.57-2.52,0.83c-0.01,0.12,0.03,0.66,0.08,1.2c0.05,0.6,0.1,1.2,0.1,1.2l-1.39,1.73l-1.53,0.11             l-3.74-1.08c0,0-0.17-3.89-0.33-4.49c-0.1-0.38-1.5-3-2.52-5.57c-0.6-1.5-1.06-2.98-1.07-3.98             c0-2.72,0.09-5.56,1.76-6.95c1.67-1.39,12.28-6.42,12.57,1.88c0,0,1.28,4.76,1.84,5.58             C328.37,533.19,328.01,534.1,327.31,534.37z" class="colorffb9b0 svgShape"/><path fill="#d7d7d7" d="M322.11,543.95c0.05,0.6,0.1,1.2,0.1,1.2l-0.4,1.94l-2.52-0.09l-3.74-1.08             c0,0-0.17-3.89-0.33-4.49c-0.1-0.38-1.5-3-2.52-5.57l0.14-1.6c0,0,3.06-0.35,3.18-0.33c0.12,0.01,1.09,1.88,1.09,1.98             c0,0.1-0.6,1.92-0.6,1.92s-0.11,2.5,0,4.43c0.05,1.01,0.75,1.89,1.73,2.16c0.55,0.15,1.18,0.28,1.77,0.28             C321.01,544.68,321.73,544.25,322.11,543.95z" class="colorffb9b0 svgShape"/><path fill="#9b9b9b" d="M316.24,533.41c0,0-1.28,5.34,1.71,8.19c2.98,2.86,8.16,1.29,8.89,0.65             c0.73-0.64,3.18-5.09,0.92-7.14c-2.26-2.05-5.24,0.19-5.24,0.19s-1.78,1.52-2.36,1.42c-0.56-0.09-1.87-2-1.43-5.41             c0.02-0.19,0.17-0.33,0.36-0.35c0.69-0.09,2.3-0.67,2.21-4.05c-0.01-0.28,0.22-0.52,0.51-0.51             c0.97,0.04,2.99,0.12,3.41,0.25c0,0,0.31,0.06,0.62,0.18c0.1,0.04,0.18,0.12,0.21,0.23c0.09,0.33,0.3,1.08,0.35,1.26             c0.07,0.23,0.58,1.91,0.58,1.91s0.53-0.32,0.53-0.92c0-0.6-0.24-1.93-0.12-2.23c0.12-0.3,0.98-0.52,1.12-1.21             c0.32-1.58,0.96-7.72-4.08-4.82c-0.66,0.38-1.27,0.87-1.81,0.98c-0.7,0.14-1.34-0.51-2.78-0.66             c-2.01-0.22-10.97,0.4-9.89,9.33s5.32,10.98,5.32,10.98S315.18,534.32,316.24,533.41z" class="colorf2444e svgShape"/><g><path fill="#d7d7d7" d="M316.24,533.41c0,0-0.14-1.53-1.31-1.31c-1.57,0.29-2.24,4.39,1.05,4.45            C315.98,536.55,315.88,534.8,316.24,533.41z" class="colorffb9b0 svgShape"/></g><g><path fill="#6d6d6d" d="M315.65,545.83c0,0,4.62,1.75,6.67-0.64c5.68,0.8,7.63,0.75,10.97,4.75           c-2.82,5.01-17.91,7.33-18.46,7.15s-7.88-4.09-8.1-4.27C306.52,552.64,308.15,545.54,315.65,545.83z" class="colorb3282f svgShape"/></g></g></g><g opacity=".5"><defs><circle id="g" cx="318.84" cy="448.55" r="20.78" opacity=".5"/></defs><clipPath id="h"><use overflow="visible" xlink:href="#g"/></clipPath><g clip-path="url(#h)"><circle cx="318.84" cy="448.55" r="20.78" fill="#ffffff" class="colorfff svgShape"/></g><g clip-path="url(#h)" opacity=".7"><path fill="#9b9b9b" d="M312.48,445.57c0,0,0.34-6.31,2.94-8c2.6-1.69,9.55-2.31,11.69,0.62           c2.14,2.92,4.42,15.61-6.02,17.25l-5.41,24.96c0,0-14.07-1.44-15.15-8.98c-1.08-7.54,5.33-11.04,5.33-11.04           s-3.08-6.33,0.15-10.8C309.25,445.11,312.48,445.57,312.48,445.57z" class="colorf2444e svgShape"/><path fill="#d7d7d7" d="M325.81,440.39c0,0,2.26,6.11,0.82,8.98c-1.44,2.87-4.92,2.46-4.92,2.46v6.56           c0,0-0.36,0.34-0.97,0.38c-1.08,0.06-3.95-1.81-3.95-1.81v-15.18L325.81,440.39z" class="colorffb9b0 svgShape"/><path fill="#9b9b9b" d="M326.09,439.49c0,0-1.47,7.01-4.85,8.85c-3.38,1.85-0.83,6.38-4.05,9.77c-1.73,1.81-5-0.2-5-0.2           l3.23-17.52L326.09,439.49z" class="colorf2444e svgShape"/><path fill="#6d6d6d" d="M316.6,456.05c0,0,3.46,2.6,5.11,0.43c3.55,0.35,9.7,2.34,12.47,7.36           c-7.27,7.01-16.8,7.36-18.62,7.01c-1.82-0.35-12.12-3.55-12.12-3.55S310.54,456.4,316.6,456.05z" class="colorb3282f svgShape"/></g></g><g opacity=".2"><path fill="#000000" d="M485.74,496.51c0.17-1.41,0.39-3.09,0.68-4.99v29.91c-1.61-4.72-2.7-8.2-2.9-9.48        C483.04,508.84,484.34,502.24,485.74,496.51z" class="color020202 svgShape"/></g><g><rect width="89.02" height="80.27" x="208.89" y="554.82" fill="#acacac" class="color599bff svgShape"/><polygon fill="#ffffff" points="259.13 554.82 259.13 575.68 255.81 573.02 255.3 573.38 251.94 575.68 249.06 573.25 245.53 575.68 245.53 554.82" class="colorfff svgShape"/><g><path fill="#a1a1a1" d="M233.23,408.87H117.19c-4.05,0-7.33-3.28-7.33-7.33v-49.48c0-4.05,3.28-7.33,7.33-7.33h116.04            c4.05,0,7.33,3.28,7.33,7.33v49.48C240.56,405.59,237.28,408.87,233.23,408.87z" class="colorff7444 svgShape"/><polygon fill="#d7d7d7" points="128.23 353.36 129.39 355.72 132 356.1 130.11 357.93 130.56 360.52 128.23 359.3 125.9 360.52 126.35 357.93 124.47 356.1 127.07 355.72" class="colorfff0b0 svgShape"/><polygon fill="#d7d7d7" points="139.59 353.36 140.75 355.72 143.35 356.1 141.47 357.93 141.91 360.52 139.59 359.3 137.26 360.52 137.7 357.93 135.82 356.1 138.42 355.72" class="colorfff0b0 svgShape"/><polygon fill="#d7d7d7" points="150.94 353.36 152.11 355.72 154.71 356.1 152.83 357.93 153.27 360.52 150.94 359.3 148.62 360.52 149.06 357.93 147.18 356.1 149.78 355.72" class="colorfff0b0 svgShape"/><polygon fill="#d7d7d7" points="162.3 353.36 163.46 355.72 166.07 356.1 164.18 357.93 164.63 360.52 162.3 359.3 159.97 360.52 160.42 357.93 158.54 356.1 161.14 355.72" class="colorfff0b0 svgShape"/><polygon fill="#d7d7d7" points="173.66 353.36 174.82 355.72 177.42 356.1 175.54 357.93 175.98 360.52 173.66 359.3 171.33 360.52 171.77 357.93 169.89 356.1 172.49 355.72" class="colorfff0b0 svgShape"/><g opacity=".66"><path fill="#ffffff" d="M225.46,396.59h-27.15c-0.46,0-0.83-0.37-0.83-0.83c0-0.46,0.37-0.83,0.83-0.83h27.15              c0.46,0,0.83,0.37,0.83,0.83C226.29,396.22,225.92,396.59,225.46,396.59z" class="colorfff svgShape"/><path fill="#858585" d="M144.09,386.89h-18.37c-0.44,0-0.8-0.36-0.8-0.8c0-0.44,0.36-0.8,0.8-0.8h18.37              c0.44,0,0.8,0.36,0.8,0.8C144.89,386.53,144.53,386.89,144.09,386.89z" class="coloreaa221 svgShape"/><path fill="#ffffff" d="M225.46 386.92h-73.41c-.46 0-.83-.37-.83-.83 0-.46.37-.83.83-.83h73.41c.46 0 .83.37.83.83C226.29 386.55 225.92 386.92 225.46 386.92zM225.46 377.25h-99.74c-.46 0-.83-.37-.83-.83 0-.46.37-.83.83-.83h99.74c.46 0 .83.37.83.83C226.29 376.88 225.92 377.25 225.46 377.25z" class="colorfff svgShape"/><path fill="#858585" d="M156.47,367.55h-30.75c-0.44,0-0.8-0.36-0.8-0.8s0.36-0.8,0.8-0.8h30.75c0.44,0,0.8,0.36,0.8,0.8              S156.91,367.55,156.47,367.55z" class="coloreaa221 svgShape"/><path fill="#ffffff" d="M225.46 367.58h-61.33c-.46 0-.83-.37-.83-.83s.37-.83.83-.83h61.33c.46 0 .83.37.83.83S225.92 367.58 225.46 367.58zM190.38 396.59h-64.67c-.46 0-.83-.37-.83-.83 0-.46.37-.83.83-.83h64.67c.46 0 .83.37.83.83C191.21 396.22 190.84 396.59 190.38 396.59z" class="colorfff svgShape"/></g><g><polygon fill="#a1a1a1" points="215.11 408.87 227.01 423.35 227.01 408.87" class="colorff7444 svgShape"/></g></g></g><g><path fill="#9b9b9b" d="M471.89,279.53l-11.06,0.28c-0.73,0.02-1.42-0.32-1.84-0.91l-6.5-8.95c-1.08-1.48-3.38-1.09-3.91,0.67        l-3.15,10.6c-0.21,0.7-0.74,1.25-1.44,1.47l-10.52,3.42c-1.74,0.57-2.08,2.88-0.57,3.92l9.11,6.27        c0.6,0.41,0.96,1.09,0.96,1.82l0,11.06c0,1.83,2.1,2.87,3.55,1.75l8.78-6.73c0.58-0.44,1.34-0.57,2.03-0.35l10.52,3.42        c1.74,0.57,3.38-1.11,2.77-2.84l-3.68-10.43c-0.24-0.69-0.13-1.45,0.3-2.03l6.5-8.95        C474.81,281.55,473.72,279.48,471.89,279.53z" class="colorf2444e svgShape"/><path fill="#a1a1a1" d="M642.61,272.7h-87.37c-4.05,0-7.33-3.28-7.33-7.33v-35.41c0-4.05,3.28-7.33,7.33-7.33h87.37          c4.05,0,7.33,3.28,7.33,7.33v35.41C649.93,269.42,646.65,272.7,642.61,272.7z" class="colorff7444 svgShape"/><polygon fill="#878787" points="562.25 229.37 563.16 231.21 565.19 231.5 563.72 232.94 564.07 234.96 562.25 234 560.43 234.96 560.78 232.94 559.31 231.5 561.34 231.21" class="colorf9d816 svgShape"/><polygon fill="#878787" points="571.11 229.37 572.02 231.21 574.05 231.5 572.58 232.94 572.93 234.96 571.11 234 569.3 234.96 569.64 232.94 568.17 231.5 570.21 231.21" class="colorf9d816 svgShape"/><polygon fill="#878787" points="579.98 229.37 580.89 231.21 582.92 231.5 581.45 232.94 581.8 234.96 579.98 234 578.16 234.96 578.51 232.94 577.04 231.5 579.07 231.21" class="colorf9d816 svgShape"/><polygon fill="#878787" points="588.84 229.37 589.75 231.21 591.78 231.5 590.31 232.94 590.66 234.96 588.84 234 587.03 234.96 587.37 232.94 585.91 231.5 587.94 231.21" class="colorf9d816 svgShape"/><polygon fill="#878787" points="597.71 229.37 598.62 231.21 600.65 231.5 599.18 232.94 599.53 234.96 597.71 234 595.89 234.96 596.24 232.94 594.77 231.5 596.8 231.21" class="colorf9d816 svgShape"/><path fill="#ffffff" d="M638.15 263.12h-21.19c-.36 0-.64-.29-.64-.64 0-.36.29-.64.64-.64h21.19c.36 0 .64.29.64.64C638.79 262.83 638.5 263.12 638.15 263.12zM574.63 255.57h-14.34c-.36 0-.64-.29-.64-.64 0-.36.29-.64.64-.64h14.34c.36 0 .64.29.64.64C575.27 255.28 574.99 255.57 574.63 255.57zM638.15 255.57h-57.3c-.36 0-.64-.29-.64-.64 0-.36.29-.64.64-.64h57.3c.36 0 .65.29.65.64C638.79 255.28 638.5 255.57 638.15 255.57zM638.15 248.02h-77.86c-.36 0-.64-.29-.64-.64 0-.36.29-.64.64-.64h77.86c.36 0 .64.29.64.64C638.79 247.73 638.5 248.02 638.15 248.02zM584.3 240.47h-24.01c-.36 0-.64-.29-.64-.64s.29-.64.64-.64h24.01c.36 0 .64.29.64.64S584.65 240.47 584.3 240.47zM638.15 240.47h-47.88c-.36 0-.64-.29-.64-.64s.29-.64.64-.64h47.88c.36 0 .64.29.64.64S638.5 240.47 638.15 240.47zM610.77 263.12h-50.48c-.36 0-.64-.29-.64-.64 0-.36.29-.64.64-.64h50.48c.36 0 .64.29.64.64C611.41 262.83 611.12 263.12 610.77 263.12z" class="colorfff svgShape"/><g><polygon fill="#a1a1a1" points="564.93 272.7 555.64 284 555.64 272.7" class="colorff7444 svgShape"/></g></g><g><path fill="#cbcbcb" d="M648.18,306.96c2.25-3.4,10.74-15.7,20.48-8.82c7.57,5.35,0.65,16.05-1.81,19.31l-38.22,51      c-1.81,2.39-7.68,9.41-13.43,5.35s-1.09-11.95,0.56-14.45L648.18,306.96z" class="colorf7a3a0 svgShape"/><path fill="#a1a1a1" d="M658.13,294.22c22.42-4.42,18.54,16.12,12.54,24.33c-6.01,8.21-23.93,33.53-23.93,33.53      c-9.33-1.83-20.84-14.47-20.84-14.47s2.59-4.14,8.82-14.59C640.95,312.57,650.93,295.64,658.13,294.22z" class="colorff7444 svgShape"/><path fill="#cbcbcb" d="M579.51,317.11l37.34,38.52c2.53,2.58,11.47,13.63,6.74,17.98c-4.73,4.36-14.04-2.43-16.41-5.16      l-35.94-43.72c-1.74-2.01-7.91-7.33-3.32-11.56C572.52,308.94,577.65,315.21,579.51,317.11z" class="colorf7a3a0 svgShape"/><path fill="#cbcbcb" d="M547.91 308.26c.37-.21.82-.26 1.25-.29 5.15-.39 10.37.1 15.36 1.46-.8-.43-1.47-.88-2.34-1.12-.75-.21-1.46-.43-2.15-.8-.22-.12-.45-.25-.63-.44-.42-.43-.51-1.07-.56-1.67-.05-.65.44-1.03 1.08-1.08.45-.03.9.1 1.34.22 2.15.58 4.38.78 6.59 1.11.62.09 1.24.2 1.82.44.76.32 1.41.85 2.04 1.39.04.03.08.07.11.1 2.65 2.27 4.67 6.21 3.32 9.73-.28.74-.74 1.39-1.37 1.87-1.38 1.05-3.16 1.41-4.89 1.57-4 .37-8.02-.11-12.01-.59-1.5-.18-3.04-.37-4.38-1.09-2.19-1.18-3.44-3.55-4.37-5.86C547.66 312.03 546.31 309.18 547.91 308.26zM684.77 291.68c40.36-2.25 34.68 37.85 36.41 68.78 2.72 48.78-.26 74.64-28.31 76.21-28.05 1.57-37.3-30.89-39.84-76.37C651.33 329.94 649.15 293.67 684.77 291.68zM713.82 523.55c7.55-.42 11.63 16.8 11.84 22.37l.71 77.48c.15 4.1.24 16.6-5.49 16.92-5.73.32-7.04-12.11-7.34-16.2l-9.49-77.14C703.63 541.41 704.1 524.1 713.82 523.55z" class="colorf7a3a0 svgShape"/><path fill="#cbcbcb" d="M708.02 417.73c11.03-.62 16.56 16.52 16.72 22.1l-1.2 87.34c.12 4.1-.08 16.61-8.46 17.08-8.38.47-9.97-11.95-10.31-16.03l-11.63-86.78C692.69 435.87 693.82 418.52 708.02 417.73zM674.08 525.82c7.56.16 10.32 17.63 10.1 23.21l-5.94 77.28c-.16 4.1-1.03 16.57-6.77 16.45-5.74-.12-6.09-12.61-6.08-16.71l-2.84-77.61C662.57 542.85 664.36 525.62 674.08 525.82z" class="colorf7a3a0 svgShape"/><path fill="#cbcbcb" d="M676.37 419.86c11.05.23 15.25 17.74 14.99 23.31l-7.86 86.99c-.2 4.1-1.35 16.56-9.74 16.39-8.39-.17-9.03-12.67-9.05-16.77l-4.98-87.41C659.7 436.78 662.16 419.57 676.37 419.86zM721.77 629.64c3.88-.22 4.96 3.13 5.1 5.56l.86 15.34c0 0-6.05 7.89-9.6 8.31-3.55.42-15.83 1.43-16.87-2.73-1.04-4.16 9.88-15 12.32-19.19C716.01 632.72 717.88 629.86 721.77 629.64z" class="colorf7a3a0 svgShape"/><path fill="#676767" d="M719.58,644.78c2.01,1.19,5.42-0.79,7.63-3.35l0.51,9.11c0,0-6.05,7.89-9.6,8.31       c-3.55,0.42-15.83,1.43-16.87-2.73c-0.68-2.7,3.69-8.22,7.51-12.91C712.1,641.48,717.57,643.59,719.58,644.78z" class="color025ecc svgShape"/><path fill="#cbcbcb" d="M646.6,644.01c7.51-5.06,15.69-7.79,17.42-9.73c1.73-1.94,2.68-6.32,8.29-6.63c5.61-0.31,5,4.19,5.2,7.79       c0,0,0.68,12.19,0.73,13.05c0.05,0.86-2.64,1.62-10.46,2.64c-7.8,1.01-17.68,1.65-21.58,1.2       C640.3,651.67,639.1,649.07,646.6,644.01z" class="colorf7a3a0 svgShape"/><path fill="#676767" d="M646.6,644.01c4.04-2.72,8.26-4.77,11.58-6.38c1.04,1.05,1.72,2.55,2.53,3.36       c1.46,1.46,5.36,1.49,9.24,1.27c3.85-0.22,5.96-1.59,7.83-1.72c0.19,3.45,0.42,7.47,0.44,7.95c0.05,0.86-2.64,1.62-10.46,2.64       c-7.8,1.01-17.68,1.65-21.58,1.2C640.3,651.67,639.1,649.07,646.6,644.01z" class="color025ecc svgShape"/><polygon fill="#cbcbcb" points="696.28 295.62 678.16 296.63 677.34 275.94 695.46 274.93" class="colorf7a3a0 svgShape"/><path fill="#bbbbbb" d="M695.72,281.5c-2.94,2.47-6.42,3.71-10.16,3.47c-2.83,0.18-5.52-0.49-7.94-1.9l-0.29-7.13l18.12-1.01      L695.72,281.5z" class="colorf78480 svgShape"/><path fill="#282828" d="M701.15,409.73c0,0-12.91,105.86-14.24,128.32c-1.33,22.47-5.79,92.74-5.79,92.74      c-11.92,3.37-20.27-0.98-20.27-0.98s-3.07-70.45-3.53-91.43c-0.47-20.97-2.45-126.07-2.45-126.07s6.51-0.36,21.7-1.21      L701.15,409.73z" class="color302120 svgShape"/><path fill="#282828" d="M729.11,533.2c0.12,18.95,1.36,98.83,1.36,98.83c-9.15,4.51-21.07,1.18-21.07,1.18      s-12.39-91.08-12.92-99.51c-0.54-8.43-8.58-87.03-8.58-87.03s-8.89-4.84-10.31-9.77c-1.43-4.93-2.92-25.69-2.92-25.69      l51.07-2.85C725.74,408.35,728.99,514.25,729.11,533.2z" class="color302120 svgShape"/><path fill="#919191" d="M677.53,289.69c-0.32,2.21,1.45,7.47,1.45,7.47s15.67-5.91,16.92-8.55c12.87,0.33,26.19,2.28,26.19,2.28      s2.05,36.78,3.87,69.31c1.53,27.37,6.42,78.66,6.42,78.66s-22.73,1.27-48.15,2.69c-25.43,1.42-29.7,0.48-29.7,0.48      s-2.57-82.12-3.91-106.01c-1.33-23.9,7.51-41.78,7.51-41.78S666.73,291.33,677.53,289.69z" class="colorfc5427 svgShape"/><polygon fill="#cbcbcb" points="653.9 394.88 646.67 393.88 621.74 390.47 615.24 389.61 615.1 387.11 653.73 391.7" class="colorf7a3a0 svgShape"/><path fill="#cbcbcb" d="M684.05,381.32l1.03,0.03l0.04,0c-1.08,1.67-2.38,3.27-3.96,4.7l-0.04,0l-27.4,5.65l-4.09-10.94         c4.7-0.88,7.99-1.46,7.99-1.46L684.05,381.32z" class="colorf7a3a0 svgShape"/><path fill="#acacac" d="M635.82,343.94l3.77,10.06l8.33,22.23l1.72,4.52l4.09,10.94l-38.62-4.59l-2.81-7.16l-5.36-13.83         l-8.9-22.88C598.03,343.25,635.32,343.97,635.82,343.94z" class="color599bff svgShape"/><path fill="#777777" d="M676.48,389.58l-22.58,5.3l-0.17-3.17l27.4-5.65C679.76,387.34,678.21,388.54,676.48,389.58z" class="color4b55a4 svgShape"/><g><path fill="#cbcbcb" d="M723.2,292.93c9.25-0.52,10.49,12.17,10.59,16.25l1.77,63.7c0.07,3-0.17,12.15-7.19,12.54       c-7.03,0.39-8.28-8.68-8.54-11.66l-7.18-61.19C712.28,308.5,711.29,293.59,723.2,292.93z" class="colorf7a3a0 svgShape"/></g><g><path fill="#cbcbcb" d="M664.27,388.99l51.8-13.96c3.49-0.96,17.48-3.42,18.99,2.83c1.51,6.25-8.93,11.1-12.48,11.84l-55.67,10.21       c-2.6,0.54-10.25,3.36-11.72-2.71C653.72,391.14,661.7,389.7,664.27,388.99z" class="colorf7a3a0 svgShape"/></g><g><path fill="#cbcbcb" d="M627.91,391.09c1.14-0.61,2.32-1.23,3.61-1.33c1.01-0.08,2.01,0.15,3,0.39c2.69,0.65,5.38,1.29,8.06,1.94       c2.39,0.58,4.74,1.43,7.22,1.17c-0.99-0.81-2.14-1.29-3.15-2.1c-0.48-0.38-0.94-0.83-1.13-1.41c-0.2-0.58-0.06-1.31,0.46-1.64       c0.25-0.16,0.55-0.21,0.85-0.22c1.69-0.08,3.23,0.88,4.85,1.39c1.07,0.34,2.2,0.47,3.31,0.66c1.45,0.25,2.9,0.6,4.25,1.2       c0.68,0.3,1.29,0.68,1.9,1.08c0.47,0.31,1.03,0.47,1.47,0.83c0.37,0.31,0.64,0.74,0.83,1.18c0.72,1.66,0.42,4.21-0.87,5.58       c-1.22,1.29-3.32,1.06-4.93,1.14c-5.34,0.25-11.48,1.15-17.03,0.49c-5.36-0.64-10.17-2.73-13.14-8.29       c-0.26-0.48-0.49-1.09-0.19-1.55C627.42,391.35,627.67,391.21,627.91,391.09z" class="colorf7a3a0 svgShape"/></g><g><path fill="#a1a1a1" d="M722.09,290.89c12.73-0.71,14.59,13.18,15.29,20.65c0.39,4.12,2.77,49.56,2.77,49.56      c-12.68,4.47-24.68,2.56-24.68,2.56s-5.24-41.91-5.77-49.16C709.17,307.24,709.35,291.6,722.09,290.89z" class="colorff7444 svgShape"/></g><g><path fill="#cbcbcb" d="M701.83,256.61c1.5-4.67,5.07-3.59,5.4-3.47c0.35,0.04,4.03,0.59,3.4,5.45c-0.64,4.89-3.48,7.54-6.14,6.76      C701.75,264.91,700.32,261.3,701.83,256.61z" class="colorf7a3a0 svgShape"/></g><g><path fill="#cbcbcb" d="M671.79,256.61c-1.5-4.67-5.07-3.59-5.4-3.47c-0.35,0.04-4.03,0.59-3.4,5.45c0.64,4.89,3.48,7.54,6.14,6.76      C671.87,264.91,673.3,261.3,671.79,256.61z" class="colorf7a3a0 svgShape"/></g><g><path fill="#cbcbcb" d="M705.48,249.54c-1.86-20.46-17.42-19.31-18.89-19.16c-1.47-0.15-17.02-1.3-18.89,19.16      c-1.88,20.58,7.29,34.02,18.89,33.28C698.19,283.56,707.35,270.12,705.48,249.54z" class="colorf7a3a0 svgShape"/></g><g><path fill="#282828" d="M698.5,236.17c0,0-7.82,10.03-19.06,8.23l2.61-3.61c0,0-6.82,3.21-18.26,0.2c0,0-0.8-12.44,18.66-15.25       c0,0-9.23,0.8-15.65,4.61c0,0,18.86-19.66,34.31,0c0,0,8.83,0.2,9.23,10.03c0.4,9.83-2.01,13.44-2.01,13.44       s-2.01-1.61-2.61,1.81c-0.6,3.41,0,8.63-2.21,13.44l-3.61-2.61c0,0,4.61-10.83,3.61-19.86       C703.52,246.6,697.7,245.4,698.5,236.17z" class="color302120 svgShape"/><path fill="#282828" d="M666.6,239.18c0,0-2.61,22.07,3.61,30.9l2.41-3.01c0,0-6.82-12.04-1.61-26.48L666.6,239.18z" class="color302120 svgShape"/></g></g></svg>