<svg xmlns="http://www.w3.org/2000/svg" enable-background="new 0 0 550 450" viewBox="0 0 550 450"><path fill="#f4f4f4" d="M371.567 148.35c-8.035-12.822-13.883-28.534-12.371-44.384 1.55-15.806 12.212-31.051 25.776-31.89 8.274-.513 15.83 4.103 22.395 9.558 5.887 4.894 7.637 10.256 11.495 17.063 8.473 14.918 20.525 27.18 34.249 35.06 8.83 5.035 18.575 8.438 26.212 15.71 7.678 7.227 12.769 20.14 8.394 30.445-3.779 8.858-12.808 12.541-21.122 14.126-35.561 6.713-73.748-11.656-95.028-45.689zM34.947 226.885c-1.871-26.488 6.601-52.223 19.33-73.458 9.183-15.399 20.556-28.762 32.347-41.447 4.434-4.724 9.237-12.346 15.812-12.538 6.813-.235 15.499 5.035 21.292 9.03 6.4 4.347 12.353 10.337 15.248 18.26 3.56 9.711 1.903 20.586-.691 30.356-11.252 42.476-39.62 77.49-75.425 92.963-4.989 2.163-10.584 3.972-15.772 1.72-8.115-3.464-11.449-14.95-12.14-24.886zM150.412 127.67c1.054-19.8 3.017-39.175 11.623-55.559 10.621-20.223 29.86-31.376 49.83-33.35.982 21.35.197 40.555-7.48 57.254-6.633 14.435-18.628 25.697-32.1 30.13-7.037 2.312-14.569 2.796-21.873 1.525z" class="colorfff6e9 svgShape"/><path fill="#f4f4f4" d="M511.294 267.388c-1.653 5.849-2.624 12.739-2.924 20.622-.082 2.204-.134 4.42-.186 6.648-.268 11.444-.547 23.287-5.28 32.684-4.411 8.755-12.346 14.677-20.023 20.405l-2.097 1.562c-9.32 7.011-18.432 15.21-21.924 27.574-3.182 11.286-.95 25.115 6.126 37.963a71.181 71.181 0 0 0 6.334 9.591H118.083C94.9 421.41 72.065 414.931 52.93 399.31 27.11 378.287 10.683 336 23.691 301.779c10.022-26.532 33.734-40.652 55.968-51.987 22.193-11.335 46.225-23.444 58.716-48.341 9.795-19.509 10.59-42.99 11.675-66.313 2.676.436 5.383.654 8.1.654a50.68 50.68 0 0 0 15.808-2.543c15.28-5.025 28.36-17.304 35.893-33.677 8.38-18.237 9.237-38.58 8.214-61.032 5.744-.024 11.5.714 17.048 2.204 26.883 7.266 49.603 29.184 67.818 54.215 18.215 24.994 32.897 53.427 50.482 79.124 17.533 25.636 38.816 49.129 65.029 59.434 29 11.431 63.014 6.527 87.552 28.445a56.388 56.388 0 0 1 5.3 5.426z" class="colorfff6e9 svgShape"/><path fill="#f4f4f4" d="M518.836 375.239c-9.939 19.763-24.569 34.912-41.39 46.101a64.649 64.649 0 0 1-7.252-10.547c-6.055-10.984-8.049-22.548-5.455-31.727 2.892-10.233 11.034-17.462 19.393-23.747l2.076-1.55c8.297-6.188 16.872-12.582 22.038-22.84 5.538-11.007 5.838-23.807 6.137-36.183.052-2.18.104-4.36.176-6.527.196-5.388.734-10.22 1.612-14.483 18.08 27.344 18.111 70.672 2.665 101.503z" class="colorfff6e9 svgShape"/><path d="M491.716 90.914 434.93 423.067h-17.796l56.778-332.153zM358.663 90.914l-56.785 332.153h-17.796l56.777-332.153z" fill="#000000" class="color000 svgShape"/><path d="M434.93 423.317h-17.795a.25.25 0 0 1-.246-.292L473.666 90.87a.25.25 0 0 1 .246-.208h17.804a.25.25 0 0 1 .246.292L435.177 423.11a.25.25 0 0 1-.246.208zm-17.5-.5h17.29l56.7-331.654h-17.297l-56.692 331.654zM301.878 423.317h-17.796a.25.25 0 0 1-.246-.292L340.613 90.87a.25.25 0 0 1 .246-.208h17.804a.25.25 0 0 1 .246.292L302.124 423.11a.25.25 0 0 1-.246.208zm-17.5-.5h17.289l56.7-331.654H341.07l-56.692 331.654zM530.616 184.071l-3.194 34.68h-15.825l3.193-34.68zM518.798 295.65l-3.193 34.68h-15.826l3.193-34.68z" fill="#000000" class="color000 svgShape"/><path d="M515.604 330.58h-15.826a.25.25 0 0 1-.249-.273l3.194-34.68a.25.25 0 0 1 .249-.227h15.826a.25.25 0 0 1 .249.273l-3.194 34.68a.25.25 0 0 1-.249.227zm-15.551-.5h15.323l3.147-34.18H503.2l-3.147 34.18zM527.423 219.001h-15.826a.25.25 0 0 1-.25-.273l3.194-34.68a.25.25 0 0 1 .249-.227h15.825a.25.25 0 0 1 .25.273l-3.193 34.68a.25.25 0 0 1-.25.227zm-15.552-.5h15.323l3.147-34.18h-15.323l-3.147 34.18z" fill="#000000" class="color000 svgShape"/><path fill="#8f8f8f" d="M483.378 90.914 426.6 423.067h-35.298L448.08 90.914zM350.325 90.914l-56.777 332.153H258.25l56.777-332.153z" class="colorfdd621 svgShape"/><path d="M426.6 423.317h-35.297a.25.25 0 0 1-.246-.292L447.834 90.87a.25.25 0 0 1 .246-.208h35.298a.25.25 0 0 1 .246.292L426.847 423.11a.25.25 0 0 1-.247.208zm-35.001-.5h34.79l56.693-331.654H448.29l-56.692 331.654zM293.548 423.317H258.25a.25.25 0 0 1-.246-.292L314.78 90.87a.25.25 0 0 1 .246-.208h35.298a.25.25 0 0 1 .246.292L293.794 423.11a.25.25 0 0 1-.246.208zm-35.002-.5h34.79L350.03 91.163h-34.79l-56.693 331.654z" fill="#000000" class="color000 svgShape"/><path fill="#8f8f8f" d="m524.256 184.071-3.193 34.68H231.78l3.184-34.68zM512.438 295.65l-3.193 34.68H219.962l3.184-34.68z" class="colorfdd621 svgShape"/><path d="M432.139 184.321H334.4a.25.25 0 0 1 0-.5h97.738a.25.25 0 0 1 0 .5zM293.175 219.001h-61.396a.25.25 0 0 1-.249-.273l3.186-34.68a.25.25 0 0 1 .249-.227h64.138a.25.25 0 0 1 0 .5h-63.91l-3.14 34.18h61.122a.25.25 0 0 1 0 .5zM426.227 219.001h-97.754a.25.25 0 0 1 0-.5h97.754a.25.25 0 0 1 0 .5zM521.062 219.001h-59.537a.25.25 0 0 1 0-.5h59.309l3.147-34.18h-56.527a.25.25 0 0 1 0-.5h56.802a.25.25 0 0 1 .249.273l-3.194 34.68a.25.25 0 0 1-.249.227zM413.083 295.9h-97.755a.25.25 0 0 1 0-.5h97.755a.25.25 0 0 1 0 .5zM274.101 330.58h-54.14a.25.25 0 0 1-.248-.273l3.184-34.68a.25.25 0 0 1 .25-.227H279.8a.25.25 0 0 1 0 .5h-56.425l-3.139 34.18h53.865a.25.25 0 0 1 0 .5zM407.154 330.58H309.4a.25.25 0 0 1 0-.5h97.754a.25.25 0 0 1 0 .5zM509.245 330.58h-66.792a.25.25 0 0 1 0-.5h66.564l3.146-34.18h-63.481a.25.25 0 0 1 0-.5h63.755a.25.25 0 0 1 .25.273l-3.193 34.68a.25.25 0 0 1-.249.227z" fill="#000000" class="color000 svgShape"/><path fill="#ffffff" d="M309.585 191.685a1.744 1.744 0 01-1.725-2.013l8.128-52.036a1.75 1.75 0 011.992-1.454 1.744 1.744 0 011.453 1.992l-8.127 52.036a1.744 1.744 0 01-1.72 1.475zM319.61 127.502a1.744 1.744 0 01-1.725-2.013l1.768-11.317a1.752 1.752 0 011.992-1.454 1.744 1.744 0 011.453 1.992l-1.767 11.318a1.743 1.743 0 01-1.72 1.474z" opacity=".3" class="colorfff svgShape"/><path fill="#e3e3e3" d="M287.01 365.104v17.101h9.239v8.235h21.733c1.655-.354 2.898-2.436 4.072-3.81l-.747-8.337-1.396-15.605-.054-.616-1.782.166-31.065 2.866z" class="colorffd8c8 svgShape"/><path d="M296.249 390.69a.25.25 0 0 1-.25-.25v-7.985h-8.99a.25.25 0 0 1-.25-.25v-17.1a.25.25 0 0 1 .227-.25l32.848-3.032a.264.264 0 0 1 .183.057c.051.043.083.104.09.17l.053.616 2.143 23.942a.253.253 0 0 1-.059.184c-.25.293-.502.618-.762.95-.965 1.24-2.06 2.646-3.448 2.942l-21.785.006zm.25-.5h21.483c1.159-.253 2.193-1.582 3.106-2.755.24-.309.475-.61.707-.886l-2.165-24.204-32.37 2.987v16.623h8.989a.25.25 0 0 1 .25.25v7.985z" fill="#000000" class="color000 svgShape"/><path fill="#080808" d="M287.01 365.104v9.947l34.297 3.242-1.396-15.605-1.836-.45zM296.25 382.205v8.235h21.73c1.656-.353 2.9-2.435 4.072-3.811l-23.05-.762-2.752-3.662z" class="color100000 svgShape"/><path fill="#ffffff" d="M263.719 407.3h61.233c1.06 0 1.915-.855 1.915-1.914v-3.551c0-.39-.13-.78-.353-1.115-.911-1.283-3.254-4.945-2.268-7.492 1.226-3.123 2.156-6.896.11-7.77-.798-.353-1.542.26-2.304 1.171-1.171 1.376-2.416 3.458-4.071 3.81h-21.73v-8.234h-12.084v7.547l-11.432 4.406a14.084 14.084 0 0 0-9.016 13.142z" class="colorfff svgShape"/><path fill="#9f9f9f" d="M263.719 407.3h61.233c1.06 0 1.915-.855 1.915-1.914v-2.324c-12.701 1.823-31.156-9.982-31.156-9.982.874-3.216-11.544-3.328-11.544-3.328l-11.432 4.406a14.084 14.084 0 0 0-9.016 13.142z" class="color4776f8 svgShape"/><path d="M324.952 407.55H263.72a.25.25 0 0 1-.25-.25c0-5.968 3.601-11.219 9.176-13.375l11.272-4.345v-7.375a.25.25 0 0 1 .25-.25h12.083a.25.25 0 0 1 .25.25v7.985h21.481c1.16-.253 2.197-1.586 3.11-2.761.263-.337.52-.666.771-.962.719-.86 1.586-1.684 2.596-1.238 2.264.967 1.26 4.933.02 8.09-.953 2.466 1.473 6.177 2.24 7.256.258.387.4.833.4 1.26v3.55a2.168 2.168 0 0 1-2.166 2.165zm-60.981-.5h60.981c.918 0 1.665-.746 1.665-1.664v-3.551c0-.33-.11-.676-.311-.976-1.025-1.443-3.309-5.096-2.293-7.721.949-2.417 2.243-6.597.246-7.45-.564-.25-1.15.068-2.015 1.1-.249.294-.5.617-.758.948-.967 1.243-2.062 2.652-3.453 2.948l-21.783.006a.25.25 0 0 1-.25-.25v-7.985h-11.583v7.297a.25.25 0 0 1-.16.233l-11.432 4.406c-5.302 2.051-8.756 7.002-8.854 12.66z" fill="#000000" class="color000 svgShape"/><path d="M324.952 407.55H263.72a.25.25 0 0 1-.25-.25c0-5.968 3.601-11.219 9.176-13.376l11.432-4.406c.03-.01.086-.02.092-.016.4.003 9.797.114 11.536 2.41.244.323.34.675.286 1.048 1.758 1.094 18.966 11.562 30.84 9.854a.26.26 0 0 1 .2.059.25.25 0 0 1 .086.189v2.324a2.168 2.168 0 0 1-2.165 2.164zm-60.981-.5h60.981c.918 0 1.665-.746 1.665-1.664v-2.038c-.82.104-1.664.152-2.523.152-12.404.002-28.346-10.1-28.518-10.21a.25.25 0 0 1-.106-.276.875.875 0 0 0-.163-.8c-1.314-1.734-8.407-2.183-11.095-2.212l-11.387 4.389c-5.302 2.051-8.756 7.002-8.854 12.66z" fill="#000000" class="color000 svgShape"/><path d="M326.867 403.312h-62.456a.25.25 0 0 1 0-.5h62.456a.25.25 0 0 1 0 .5z" fill="#000000" class="color000 svgShape"/><path d="M278.009 403.312a.25.25 0 0 1-.23-.346c.816-1.958.813-3.555-.01-4.745-1.884-2.727-7.447-2.572-7.498-2.567a.259.259 0 0 1-.258-.242.25.25 0 0 1 .24-.258c.242-.01 5.89-.165 7.927 2.782.926 1.34.946 3.098.06 5.222a.25.25 0 0 1-.231.154z" fill="#000000" class="color000 svgShape"/><path d="M278.307 398.918a.25.25 0 0 1-.076-.488l17.404-5.588a.25.25 0 1 1 .152.475l-17.404 5.589a.244.244 0 0 1-.076.012z" fill="#000000" class="color000 svgShape"/><path fill="#9f9f9f" d="M282.309 368.049c.165.11.338.211.517.305.15.08.294.173.42.28.454.374.753.907.805 1.506l.11 1.26a2.305 2.305 0 0 0 2.367 2.104l34.305-1.033c2.19-.066 3.7-2.226 3.007-4.307l-.137-.41-.278-.83a6.995 6.995 0 0 1-.074-4.199l.723-2.462c.11-.374.19-.756.233-1.141.052-.434.066-.874.036-1.311l11.903-69.31h15.116c9.053 0 16.235-7.629 15.683-16.666l-.99-16.171-48.325 3.611c-15.44.577-19.541 9.485-24.392 27.432l-10.24 72.478s-3.202 7.253-.79 8.864z" class="color4776f8 svgShape"/><path d="M286.46 373.755a2.548 2.548 0 0 1-2.548-2.337l-.11-1.256a1.948 1.948 0 0 0-.715-1.335 2.069 2.069 0 0 0-.378-.252 5.919 5.919 0 0 1-.54-.318c-2.498-1.668.424-8.54.685-9.14l10.237-72.445c4.542-16.81 8.463-27.042 24.63-27.647l48.316-3.61a.253.253 0 0 1 .269.234l.989 16.171c.27 4.44-1.259 8.668-4.306 11.907-3.049 3.24-7.178 5.025-11.627 5.025h-14.905l-11.868 69.101c.034.383.021.84-.033 1.299a6.988 6.988 0 0 1-.243 1.181l-.722 2.462a6.715 6.715 0 0 0 .071 4.05l.415 1.24a3.493 3.493 0 0 1-.455 3.132 3.49 3.49 0 0 1-2.781 1.504l-34.306 1.033-.074.001zm-4.013-5.914c.158.105.324.202.494.292.175.091.331.196.467.31a2.44 2.44 0 0 1 .893 1.675l.11 1.26c.009.13.035.253.066.373a2.065 2.065 0 0 0 2.043 1.503l34.305-1.033a2.995 2.995 0 0 0 2.387-1.29 2.996 2.996 0 0 0 .39-2.688l-.415-1.24a7.22 7.22 0 0 1-.077-4.349l.723-2.462a6.813 6.813 0 0 0 .26-2.364L336 288.459a.25.25 0 0 1 .246-.207h15.116c4.31 0 8.31-1.729 11.263-4.867 2.952-3.138 4.433-7.234 4.17-11.535l-.974-15.918-48.072 3.593c-15.302.572-19.28 9.157-24.17 27.247l-10.234 72.449a.225.225 0 0 1-.019.065c-.866 1.964-2.714 7.33-.879 8.555z" fill="#000000" class="color000 svgShape"/><path fill="#ffffff" d="M314.912 358.918a1.924 1.924 0 002.32-1.578l1.2-18.39a1.924 1.924 0 10-3.8-.599l-1.201 18.39a1.924 1.924 0 001.48 2.177zM317.523 331.577a1.924 1.924 0 002.32-1.578l2.929-15.869a1.924 1.924 0 10-3.8-.599l-2.93 15.87a1.924 1.924 0 001.48 2.176z" opacity=".2" class="colorfff svgShape"/><path fill="#080808" d="M283.246 368.634c.454.374.753.907.805 1.506l.11 1.26c.011.142.039.28.074.414 1.3-.349 2.66-.475 3.994-.703.723-.124 1.451-.278 2.105-.608.657-.327 1.24-.85 1.512-1.53s.179-1.529-.335-2.051c-.589-.6-1.562-.643-2.361-.385-.797.256-1.49.759-2.235 1.149a8.588 8.588 0 0 1-3.012.923c-.214.025-.434.03-.657.025z" class="color100000 svgShape"/><path fill="#e3e3e3" d="M338.301 365.104v17.101h9.24v8.235h21.732c1.655-.354 2.898-2.436 4.072-3.81l-.746-8.337-1.397-15.605-.054-.616-1.782.166-31.065 2.866z" class="colorffd8c8 svgShape"/><path d="M347.54 390.69a.25.25 0 0 1-.25-.25v-7.985h-8.99a.25.25 0 0 1-.25-.25v-17.1a.25.25 0 0 1 .227-.25l32.848-3.032a.265.265 0 0 1 .184.057c.05.043.083.104.088.17l.054.616 2.143 23.942a.253.253 0 0 1-.059.184c-.25.293-.502.618-.762.95-.964 1.24-2.06 2.646-3.448 2.942l-21.785.006zm.25-.5h21.483c1.159-.253 2.193-1.582 3.106-2.755.24-.309.475-.61.707-.886l-2.165-24.204-32.37 2.987v16.623h8.989a.25.25 0 0 1 .25.25v7.985z" fill="#000000" class="color000 svgShape"/><path fill="#080808" d="M338.301 365.104v9.947l34.298 3.242-1.397-15.605-1.836-.45zM347.541 382.205v8.235h21.731c1.655-.353 2.9-2.435 4.071-3.811l-23.05-.762-2.752-3.662z" class="color100000 svgShape"/><path fill="#ffffff" d="M315.01 407.3h61.233c1.06 0 1.915-.855 1.915-1.914v-3.551c0-.39-.13-.78-.353-1.115-.911-1.283-3.253-4.945-2.268-7.492 1.227-3.123 2.156-6.896.111-7.77-.8-.353-1.543.26-2.305 1.171-1.17 1.376-2.416 3.458-4.071 3.81h-21.73v-8.234h-12.084v7.547l-11.432 4.406a14.084 14.084 0 0 0-9.016 13.142z" class="colorfff svgShape"/><path fill="#9f9f9f" d="M315.01 407.3h61.233c1.06 0 1.915-.855 1.915-1.914v-2.324c-12.7 1.823-31.156-9.982-31.156-9.982.874-3.216-11.544-3.328-11.544-3.328l-11.432 4.406a14.084 14.084 0 0 0-9.016 13.142z" class="color4776f8 svgShape"/><path d="M376.243 407.55H315.01a.25.25 0 0 1-.25-.25c0-5.968 3.601-11.219 9.176-13.375l11.272-4.345v-7.375a.25.25 0 0 1 .25-.25h12.083a.25.25 0 0 1 .25.25v7.985h21.481c1.16-.253 2.197-1.586 3.11-2.761.263-.337.52-.666.771-.962.719-.86 1.587-1.684 2.596-1.238 2.264.967 1.26 4.933.02 8.09-.953 2.466 1.473 6.177 2.24 7.256.258.387.4.833.4 1.26v3.55a2.168 2.168 0 0 1-2.166 2.165zm-60.981-.5h60.981c.918 0 1.665-.746 1.665-1.664v-3.551c0-.33-.11-.676-.311-.976-1.025-1.443-3.309-5.096-2.293-7.721.949-2.417 2.243-6.597.246-7.45-.564-.25-1.15.068-2.015 1.1-.249.294-.5.617-.758.948-.967 1.243-2.062 2.652-3.453 2.948l-21.783.006a.25.25 0 0 1-.25-.25v-7.985h-11.583v7.297a.25.25 0 0 1-.16.233l-11.432 4.406c-5.302 2.051-8.756 7.002-8.854 12.66z" fill="#000000" class="color000 svgShape"/><path d="M376.243 407.55H315.01a.25.25 0 0 1-.25-.25c0-5.968 3.601-11.219 9.176-13.376l11.432-4.406a.257.257 0 0 1 .09-.016h.002c.4.003 9.797.114 11.536 2.41.244.323.34.675.286 1.048 1.758 1.094 18.96 11.562 30.841 9.854a.263.263 0 0 1 .2.059.25.25 0 0 1 .085.189v2.324a2.168 2.168 0 0 1-2.165 2.164zm-60.981-.5h60.981c.918 0 1.665-.746 1.665-1.664v-2.038c-.82.104-1.664.152-2.523.152-12.404.002-28.346-10.1-28.518-10.21a.25.25 0 0 1-.106-.276.875.875 0 0 0-.163-.8c-1.314-1.734-8.407-2.183-11.095-2.212l-11.387 4.389c-5.302 2.051-8.756 7.002-8.854 12.66z" fill="#000000" class="color000 svgShape"/><path d="M378.158 403.312h-62.456a.25.25 0 0 1 0-.5h62.456a.25.25 0 0 1 0 .5z" fill="#000000" class="color000 svgShape"/><path d="M329.3 403.312a.25.25 0 0 1-.23-.346c.817-1.958.814-3.555-.01-4.745-1.883-2.727-7.442-2.572-7.498-2.567a.245.245 0 0 1-.258-.242.25.25 0 0 1 .24-.258c.235-.01 5.89-.165 7.928 2.782.925 1.34.946 3.098.058 5.222a.25.25 0 0 1-.23.154z" fill="#000000" class="color000 svgShape"/><path d="M329.598 398.918a.25.25 0 0 1-.076-.488l17.404-5.588a.25.25 0 1 1 .152.475l-17.404 5.589a.244.244 0 0 1-.076.012z" fill="#000000" class="color000 svgShape"/><path fill="#9f9f9f" d="m326.967 286.707 7.094 72.478s-3.202 7.253-.789 8.864c.165.11.338.211.517.305.39.2.712.503.93.868.161.275.268.586.296.918l.11 1.26c.071.835.583 1.53 1.289 1.87.324.163.692.245 1.077.234l34.306-1.033c2.19-.066 3.7-2.226 3.007-4.307l-.388-1.157-.027-.082a6.996 6.996 0 0 1-.075-4.2l.723-2.462a7.036 7.036 0 0 0 .27-2.452l-.168-2.49-5.264-59.706h25.564c2.163 0 4.216-.435 6.085-1.22 5.956-2.504 10.015-8.567 9.595-15.447l-.987-23.284-58.772 3.611c-2.636.1-5.118.514-7.416 1.215-11.17 3.386-17.999 13.445-16.977 26.217z" class="color4776f8 svgShape"/><path fill="#999999" d="M343.944 260.49c.085 2.358 3.768 1.303 6.157 1.196a84.708 84.708 0 0 1 11.985.324c4.417.437 8.8 1.22 13.094 2.35 6.395 1.685 24.667 9.334 27.44 15.336 1.768 3.82.51 10.807-1.096 14.698 5.956-2.503 10.015-8.566 9.595-15.446l-.987-23.284-58.772 3.611c-2.636.1-5.118.514-7.416 1.215z" class="color335cff svgShape"/><path d="M337.423 373.755a2.51 2.51 0 0 1-1.12-.26 2.554 2.554 0 0 1-1.427-2.074l-.11-1.259a1.886 1.886 0 0 0-.264-.813 2.04 2.04 0 0 0-.827-.773 5.92 5.92 0 0 1-.541-.32c-2.465-1.644.342-8.349.673-9.111l-7.088-72.414v-.004c-1.011-12.618 5.722-23.01 17.153-26.476 2.344-.715 4.86-1.127 7.478-1.226l58.766-3.61a.23.23 0 0 1 .183.063.25.25 0 0 1 .083.175l.987 23.284a15.984 15.984 0 0 1-9.748 15.688 15.855 15.855 0 0 1-6.182 1.24h-25.29l5.239 59.434.168 2.495a7.254 7.254 0 0 1-.279 2.539l-.722 2.462a6.707 6.707 0 0 0 .07 4.05l.416 1.24a3.493 3.493 0 0 1-.455 3.132 3.49 3.49 0 0 1-2.781 1.504l-34.306 1.033-.076.001zm-10.206-87.073 7.093 72.479a.252.252 0 0 1-.02.125c-.866 1.964-2.714 7.33-.879 8.555.157.105.323.202.493.291.43.22.786.554 1.029.963.19.323.301.668.33 1.025l.11 1.257a2.055 2.055 0 0 0 1.15 1.669c.294.147.637.222.961.208l34.305-1.033a2.995 2.995 0 0 0 2.387-1.29 2.996 2.996 0 0 0 .39-2.688l-.415-1.24a7.203 7.203 0 0 1-.076-4.349l.722-2.462a6.781 6.781 0 0 0 .26-2.365l-.167-2.49-5.263-59.7a.25.25 0 0 1 .249-.272h25.563c2.08 0 4.094-.404 5.989-1.201a15.484 15.484 0 0 0 9.441-15.2l-.977-23.035-58.517 3.596c-2.582.097-5.055.502-7.358 1.204-11.196 3.394-17.79 13.582-16.8 25.955v-.002z" fill="#000000" class="color000 svgShape"/><path fill="#ffffff" d="M364.65 319.876a1.924 1.924 0 0 0 1.922-2.044l-3.262-29.026a1.924 1.924 0 1 0-3.84.24l3.261 29.026a1.924 1.924 0 0 0 1.919 1.804z" opacity=".2" class="colorfff svgShape"/><path fill="#080808" d="M334.718 369.222c.162.275.27.586.297.918l.11 1.26c.071.835.583 1.53 1.289 1.87.319-.18.654-.335.995-.464 1.577-.596 3.284-.725 4.947-1.008.723-.124 1.451-.278 2.105-.608.657-.327 1.24-.849 1.512-1.53.272-.68.178-1.529-.335-2.05-.589-.6-1.562-.644-2.361-.386-.797.256-1.49.759-2.235 1.15a8.588 8.588 0 0 1-3.012.923c-1.075.123-2.246-.215-3.312-.075z" class="color100000 svgShape"/><path fill="#e3e3e3" d="M306.412 229.617s-5.179 1.147-6.213-5.227c-1.035-6.373 5.815-4.796 5.815-4.796l1.921 3.237-1.523 6.786z" class="colorffd8c8 svgShape"/><path d="M305.49 229.95c-.781 0-1.917-.156-2.982-.878-1.344-.912-2.204-2.474-2.557-4.641-.304-1.875.027-3.28.983-4.176 1.769-1.657 5-.937 5.135-.905a.248.248 0 0 1 .16.116l1.921 3.237c.033.055.043.12.03.182l-1.524 6.787a.25.25 0 0 1-.19.19 4.872 4.872 0 0 1-.976.088zm.922-.333h.006-.006zm-2.116-9.944c-.99 0-2.206.185-3.02.948-.828.775-1.107 2.03-.83 3.73.327 2.023 1.114 3.472 2.337 4.303 1.379.939 2.935.812 3.422.744l1.465-6.526-1.815-3.056a8.72 8.72 0 0 0-1.56-.143z" fill="#000000" class="color000 svgShape"/><path fill="#e3e3e3" d="m330.134 227.502 20.825-41.144-19.554-3.766-18.417 38.912z" class="colorffd8c8 svgShape"/><path d="M330.134 227.752a.247.247 0 0 1-.083-.014l-17.148-6a.25.25 0 0 1-.142-.342l18.423-38.911a.252.252 0 0 1 .272-.139l19.55 3.766a.248.248 0 0 1 .176.358l-20.826 41.145a.248.248 0 0 1-.222.137zm-16.803-6.393 16.679 5.835 20.576-40.654-19.034-3.666-18.221 38.485z" fill="#000000" class="color000 svgShape"/><path fill="#a9a9a9" d="M362.414 186.878c-4.467.901-8.713 1.863-12.749 2.514-1.202.19-2.383.35-3.545.48-2.133.23-4.216.341-6.23.25a27.477 27.477 0 0 1-3.875-.42c-3.705-.68-7.19-2.193-10.465-4.967 9.013-12.679 27.58-24.736 27.58-24.736l9.284 26.88z" class="colorff7e53 svgShape"/><path d="M349.665 189.392c-1.202.19-2.383.35-3.545.48-2.133.23-4.216.341-6.23.25a15.83 15.83 0 0 0 1.483-4.225c.54-2.744 1.322-12.008 5.498-6.45 1.943 2.584 2.914 6.4 2.794 9.945z" fill="#000000" class="color000 svgShape"/><path fill="#ababab" d="M353.127 159.996s-18.565 12.056-27.579 24.742c10.176 8.611 22.4 5.072 36.869 2.143l-9.29-26.885z" class="colora068ef svgShape"/><path fill="#ababab" d="M408.604 257.94a8.256 8.256 0 0 0 7.005-7.226c2.541-21.97 6.755-71.092-4.472-84.058-12.12-13.996-47.078-16.197-61.35-4.351-11.627 9.65-7.342 76.677-5.971 94.625 10.62 3.712 38.84 4.773 64.788 1.01z" class="colora068ef svgShape"/><path d="M375.434 260.55c-14.092 0-25.833-1.333-31.7-3.385a.249.249 0 0 1-.168-.216c-1.01-13.219-3.958-58.155.466-81.415a.25.25 0 1 1 .49.094c-4.393 23.104-1.489 67.713-.47 81.119 10.217 3.489 37.667 4.84 64.515.945a8.01 8.01 0 0 0 6.794-7.007c2.416-20.893 6.823-70.889-4.414-83.865-11.901-13.746-46.678-16.212-61-4.323a.25.25 0 0 1-.318-.385c14.482-12.022 49.655-9.526 61.697 4.38 11.366 13.127 6.956 63.292 4.531 84.251a8.509 8.509 0 0 1-7.217 7.444c-11.41 1.655-22.933 2.363-33.206 2.363z" fill="#000000" class="color000 svgShape"/><path fill="#bdbdbd" d="M429.848 239.168c-.37.24-.771.46-1.182.631.571-3.024 1.342-6.029 1.883-9.063 1.002-5.549 1.192-11.617-1.673-16.475-2.553-4.346-7.24-7.1-12.107-8.392-4.877-1.292-9.975-1.312-15.012-1.312l-2.354-1.372c.03-.14.06-.29.1-.43l1.002.43 30.465-5.498s7.59 35.843-1.122 41.481z" class="colorfe8d7c svgShape"/><path fill="#e3e3e3" d="M429.848 239.168c-.37.24-.771.46-1.182.631-17.335 7.942-64.044-27.931-64.965-28.642l-.01-.01s-10.516-2.754-15.463-5.438c-4.958-2.674-3.816-6.33-3.816-6.33-2.533-2.974.31-4.606.31-4.606-2.102-2.895 1.162-4.447 1.162-4.447s-15.412-6.71-12.839-10.235c2.574-3.535 17.506 5.488 17.506 5.488s-2.433-4.356-.61-5.348c5.427-2.944 20.45 12.9 20.83 13.3l28.732 9.223 1.002.431 30.465-5.498s7.59 35.843-1.122 41.481z" class="colorffd8c8 svgShape"/><path fill="#bdbdbd" d="M345.884 190.324s-3.266 1.556-1.162 4.45c0 0-2.841 1.63-.308 4.608 0 0-1.143 3.65 3.814 6.331 4.949 2.678 15.467 5.432 15.467 5.432-18.174-6.193-18.743-12.492-18.743-12.492-1.441-2.324 1.005-2.175.76-4.078-.249-1.893.76-3.246 1.77-4.038 1.008-.783-13.66-5.165-13.188-9.598.33-3.095 14.962 6.027 16.965 5.67 1.99-.351-1.602-5.008.582-5.068 2.18-.071 18.931 11.994 18.931 11.994-.382-.406-15.405-16.249-20.835-13.306-1.815.99.61 5.353.61 5.353s-14.93-9.026-17.504-5.495c-2.567 3.534 12.841 10.237 12.841 10.237z" class="colorfe8d7c svgShape"/><path d="M422.632 241.209c-20.087 0-56.995-28.244-59.057-29.834-.812-.215-10.73-2.876-15.467-5.446-4.532-2.445-4.119-5.77-3.968-6.486-.815-.992-1.149-1.954-.99-2.862.168-.974.86-1.604 1.223-1.874-.548-.837-.726-1.65-.53-2.422.244-.956 1.004-1.6 1.496-1.928-2.236-1.008-11.849-5.513-12.76-8.874-.154-.57-.065-1.087.265-1.54 2.372-3.25 14.007 3.193 17.101 4.988-.476-1.022-1.18-2.828-.842-3.998.122-.418.363-.728.718-.921 5.387-2.915 19.315 11.439 21.087 13.3l28.672 9.204.954.41 30.392-5.485a.251.251 0 0 1 .288.194c.311 1.47 7.527 36.076-1.23 41.743a7.613 7.613 0 0 1-1.222.652c-1.775.813-3.844 1.179-6.13 1.179zm-87.462-61.69c-.881 0-1.555.215-1.922.72-.24.328-.3.692-.187 1.113.948 3.495 12.804 8.693 12.923 8.745a.25.25 0 0 1 .008.455c-.014.006-1.362.664-1.665 1.86-.173.685.028 1.43.598 2.214.042.057.056.13.042.199s-.058.129-.12.164c-.01.006-1.02.604-1.206 1.683-.134.782.189 1.638.961 2.545a.252.252 0 0 1 .05.236c-.045.142-1.009 3.499 3.695 6.036 4.864 2.639 15.301 5.388 15.407 5.416.039.01.075.03.104.057.423.327 38.742 29.728 58.855 29.73 2.19 0 4.163-.347 5.848-1.12.381-.158.765-.363 1.15-.614 8.105-5.244 1.7-37.857 1.063-40.982l-30.225 5.455a.26.26 0 0 1-.143-.017l-1-.43-28.71-9.215a.253.253 0 0 1-.106-.066c-.628-.661-15.352-16.07-20.53-13.252-.237.128-.392.332-.476.621-.426 1.473 1.17 4.356 1.185 4.385a.25.25 0 0 1-.346.336c-3.347-2.022-11.341-6.275-15.253-6.275z" fill="#000000" class="color000 svgShape"/><path d="M409.676 210.207a.25.25 0 0 1-.146-.047l-9.79-6.984a.25.25 0 0 1 .291-.407l9.79 6.984a.25.25 0 0 1 .058.349.249.249 0 0 1-.203.105z" fill="#000000" class="color000 svgShape"/><path fill="#ababab" d="M398.924 200.584c.571 1.476.958 2.39.958 2.39 4.014 1.862 25.474-1.485 34.645-5.772-4.937-16.242-13.73-24.417-20.291-29.318-5.473-4.094-9.268-6.197-9.268-6.197s-10.489 14.055-10.99 19.668c-.421 4.691 3.172 14.661 4.946 19.23z" class="colora068ef svgShape"/><path fill="#808080" d="M398.924 200.584c.571 1.476.958 2.39.958 2.39 4.014 1.862 25.474-1.485 34.645-5.772-4.937-16.242-13.73-24.417-20.291-29.318-1.73 1.37-2.047 2.869-1.371 5.012 1.379 4.366 4.4 8.011 4.137 12.834-.22 4.05-3.03 7.844-6.843 9.232-1.853.677-3.856.817-5.78 1.274-1.915.466-3.882 1.344-4.91 3.03-.255.413-.43.853-.545 1.318z" class="color7f41bf svgShape"/><path d="M403.969 203.75c-1.906 0-3.374-.172-4.189-.55a.248.248 0 0 1-.125-.13c-.033-.08-3.334-7.984-4.999-14.685a.249.249 0 0 1 .182-.303.248.248 0 0 1 .303.183c1.56 6.274 4.564 13.618 4.937 14.519 4.015 1.678 24.729-1.405 34.145-5.72-7.655-24.216-29.153-35.05-29.37-35.157a.25.25 0 1 1 .221-.448c.22.108 22.031 11.1 29.692 35.665a.25.25 0 0 1-.132.301c-7.108 3.327-22.696 6.324-30.665 6.324z" fill="#000000" class="color000 svgShape"/><path fill="#ffffff" d="M355.126 228.111h-46.935a2.838 2.838 0 0 1-2.672-1.88l-10.603-29.596a2.838 2.838 0 0 1 2.672-3.796h46.935c1.198 0 2.268.753 2.672 1.88l10.603 29.597a2.838 2.838 0 0 1-2.672 3.795z" class="colorfff svgShape"/><path fill="#f7f7f7" d="M355.122 228.109h-1.583l-10.435-29.143a2.85 2.85 0 0 0-2.674-1.883h-45.357l-.16-.45c-.661-1.843.711-3.796 2.674-3.796h46.939a2.85 2.85 0 0 1 2.674 1.883l10.596 29.593a2.835 2.835 0 0 1-2.674 3.796z" class="colorf2f6fc svgShape"/><path d="M351.65 223.08a.25.25 0 0 1-.236-.165l-8.546-23.864a2.605 2.605 0 0 0-2.438-1.718h-37.995a.25.25 0 0 1 0-.5h37.995c1.295 0 2.464.823 2.909 2.048l8.546 23.865a.25.25 0 0 1-.236.334z" fill="#000000" class="color000 svgShape"/><path d="M355.126 228.362H308.19a3.093 3.093 0 0 1-2.907-2.048l-10.603-29.595a3.05 3.05 0 0 1 .381-2.82 3.051 3.051 0 0 1 2.526-1.31h46.934c1.301 0 2.47.822 2.909 2.047l10.603 29.595a3.05 3.05 0 0 1-.383 2.82 3.05 3.05 0 0 1-2.525 1.31zm-57.538-35.273c-.854 0-1.625.4-2.117 1.098a2.557 2.557 0 0 0-.32 2.363l10.604 29.596a2.593 2.593 0 0 0 2.436 1.716h46.935c.853 0 1.626-.4 2.117-1.099.491-.698.608-1.56.32-2.363l-10.603-29.595a2.595 2.595 0 0 0-2.438-1.716h-46.934z" fill="#000000" class="color000 svgShape"/><path fill="#e3e3e3" d="M323.185 228.261c-2.79 6.19-14.665 4.814-18.238-.152-2.212-3.075-1.316-10.228 2.25-11.62 2.663-1.032 2.275 6.538 2.275 6.538s.481-6.069 2.754-5.237c1.503.54 2.013 3.345 2.063 4.196.09-.851.481-4.306 2.444-3.856 3.125.721 1.953 4.607 1.733 4.978.37-.451 2.633-3.095 4.356-.852 1.883 2.444.363 6.005.363 6.005z" class="colorffd8c8 svgShape"/><path d="M317.75 227.162a.25.25 0 0 1-.245-.297l.734-3.805a.25.25 0 1 1 .49.095l-.733 3.804a.249.249 0 0 1-.245.203z" fill="#000000" class="color000 svgShape"/><path d="M315.138 232.635c-3.098 0-6.388-.957-8.645-2.64a.25.25 0 0 1 .299-.4c2.96 2.207 7.772 3.119 11.45 2.168 1.596-.414 3.71-1.375 4.715-3.604.012-.03 1.436-3.454-.333-5.75-.399-.519-.855-.786-1.357-.794h-.025c-1.138 0-2.264 1.262-2.583 1.651a.25.25 0 0 1-.408-.286c.13-.22.67-1.98.117-3.276-.297-.692-.865-1.14-1.691-1.33-.332-.078-.62-.025-.878.16-.44.313-1.015 1.17-1.261 3.478-.014.13-.139.212-.255.224a.251.251 0 0 1-.244-.236c-.062-1.053-.625-3.517-1.897-3.975-.28-.103-.533-.08-.769.072-1.088.697-1.56 3.81-1.651 4.95-.01.136-.114.247-.266.23a.25.25 0 0 1-.233-.262c.074-1.453.017-5.406-1.123-6.23-.228-.166-.495-.187-.814-.063-2.115.826-3.172 3.805-3.28 6.39a.25.25 0 0 1-.25.24h-.011a.25.25 0 0 1-.24-.26c.108-2.548 1.115-5.866 3.6-6.836.477-.184.921-.141 1.288.124.85.613 1.176 2.353 1.293 3.907.286-1.081.732-2.172 1.416-2.61.372-.24.778-.281 1.21-.122 1.072.386 1.67 1.742 1.97 2.904.267-1.159.677-1.941 1.227-2.333.376-.268.81-.347 1.28-.24.99.23 1.676.774 2.038 1.622.377.88.321 1.912.175 2.673.59-.536 1.411-1.07 2.273-1.066.662.011 1.25.344 1.745.989 1.95 2.53.458 6.104.394 6.255-.861 1.913-2.606 3.256-5.048 3.888a12.94 12.94 0 0 1-3.228.388z" fill="#000000" class="color000 svgShape"/><path d="M313.798 226.653c-.009 0-.019 0-.028-.002a.25.25 0 0 1-.22-.276l.49-4.417a.246.246 0 0 1 .276-.22.25.25 0 0 1 .221.276l-.491 4.417a.25.25 0 0 1-.248.222zM309.473 225.992a.25.25 0 0 1-.25-.25v-2.714a.25.25 0 0 1 .5 0v2.714a.25.25 0 0 1-.25.25z" fill="#000000" class="color000 svgShape"/><path fill="#ffffff" d="M396.68 182.598c.008.706.043 1.427.299 2.085.255.658.77 1.253 1.452 1.433.712.188 1.484-.108 2.039-.593s.931-1.138 1.284-1.784c.908-1.662 1.74-3.406 2.01-5.28.383-2.677-.681-6.1-3.667-6.739-2.535-.542-2.642 3.27-2.936 4.945a32.108 32.108 0 0 0-.481 5.933z" opacity=".3" class="colorfff svgShape"/><path fill="#ffffff" d="M345.248 171.939a1 1 0 0 1-.693-1.72 38.915 38.915 0 0 1 4.14-3.46 1 1 0 0 1 1.173 1.62 36.894 36.894 0 0 0-3.927 3.28.997.997 0 0 1-.693.28zM352.305 166.593a1 1 0 0 1-.508-1.862 38.864 38.864 0 0 1 6.773-3.153 1 1 0 1 1 .664 1.887 36.867 36.867 0 0 0-6.424 2.99.995.995 0 0 1-.505.138z" class="colorfff svgShape"/><path fill="#0e0e0e" d="M339.405 202.07c-.87 0-1.78-.678-2.034-1.518-.26-.84.234-1.522 1.104-1.522.87 0 1.779.683 2.034 1.522.26.84-.235 1.518-1.104 1.518zM335.049 202.205c-.87 0-1.78-.679-2.034-1.518-.26-.84.235-1.522 1.104-1.522.87 0 1.78.682 2.034 1.522.26.84-.235 1.518-1.104 1.518z" class="color19040f svgShape"/><path fill="#080808" d="m369.874 295.51-2.262-14.017 11.733 14.016z" class="color100000 svgShape"/><path d="M379.346 295.76h-9.472a.25.25 0 0 1-.247-.21l-2.262-14.017a.251.251 0 0 1 .144-.268.25.25 0 0 1 .295.067l11.733 14.016a.25.25 0 0 1-.191.411zm-9.26-.5h8.724l-10.806-12.91 2.083 12.91z" fill="#000000" class="color000 svgShape"/><path fill="#606060" d="M440.41 169.19c-7.77 9.212-33.01-10.25-45.64-12.293-12.628-2.043-6.747-23.053-6.747-23.053" class="colorb30d6e svgShape"/><path d="M434.312 171.916c-6.036 0-14.4-4.044-22.569-7.994-6.436-3.112-12.516-6.05-17.013-6.778-2.707-.438-4.79-1.77-6.19-3.96-4.255-6.66-.902-18.89-.758-19.408a.25.25 0 0 1 .483.135c-.036.124-3.438 12.534.698 19.004 1.32 2.064 3.287 3.321 5.847 3.736 4.57.738 10.68 3.693 17.15 6.821 11.508 5.563 23.406 11.314 28.259 5.557a.25.25 0 0 1 .383.322c-1.535 1.819-3.698 2.565-6.29 2.565z" fill="#000000" class="color000 svgShape"/><path fill="#e3e3e3" d="M369.244 163.914c.972 2.35 4.129 4.18 9.88 4.223 9.82.077 13.654-7.636 13.738-13.28.014-.403-4.292-18.701-4.796-20.812l-.041-.201-9.458 6.174-10.746 7.017.434 1.39.243.77s.346 2.458.66 4.989c.32 2.567.593 5.23.422 5.56-.735 1.409-.868 2.867-.336 4.17z" class="colorffd8c8 svgShape"/><path fill="#080808" d="M369.158 154.186c1.028-.028 1.693-.85 2.47-1.596a23.818 23.818 0 0 0 2.391-2.667 24.638 24.638 0 0 0 3.514-6.336c.434-1.158.78-2.35 1.03-3.566l-10.74 7.014.432 1.392.24.77s.35 2.451.663 4.99z" class="color100000 svgShape"/><path d="M379.268 168.388h-.146c-5.29-.041-8.974-1.637-10.11-4.378-.556-1.365-.437-2.88.346-4.381.026-.072.14-.702-.449-5.414a334.13 334.13 0 0 0-.66-4.985l-.667-2.12a.25.25 0 0 1 .102-.285l20.205-13.19a.254.254 0 0 1 .233-.021c.076.032.132.1.148.181l.04.201c.046.193 4.819 20.375 4.802 20.87-.082 5.448-3.84 13.522-13.844 13.522zm-9.793-4.57c1.054 2.548 4.572 4.03 9.65 4.07h.142c9.644 0 13.266-7.78 13.345-13.035-.05-.62-4.07-17.73-4.755-20.601l-19.742 12.888.621 1.98c.01.041.356 2.5.67 5.033.652 5.215.466 5.572.396 5.707-.713 1.367-.826 2.736-.327 3.959z" fill="#000000" class="color000 svgShape"/><path fill="#e3e3e3" d="M359.331 108.994c.126.696.367 1.43.748 2.193 4.237 8.495 15.11 6.707 17.897 10.47 2.79 3.76 3.56 11.002 5.179 10.392 1.626-.605 2.515-5.668 2.515-5.668v-.003c-.07-.371-5.598-30.27-24.05-23.367-.147.055-.292.111-.436.171a8.473 8.473 0 0 0-1.36 2.037 16.507 16.507 0 0 1-.493 3.775z" class="colorffd8c8 svgShape"/><path fill="#e3e3e3" d="M359.647 148.82c2.762.836 5.704.554 8.608-.393 10.11-3.285 19.767-14.584 19.767-14.584s.091-.034.252-.1c.853-.348 3.71-1.59 5.87-3.494.319-.281.625-.58.904-.89 1.96-2.167 2.738-5.01-.67-8.258-3.115-2.966-8.708 5.28-8.708 5.28s-.89 5.063-2.515 5.668c-1.619.61-2.389-6.632-5.179-10.392-2.788-3.763-13.66-1.975-17.897-10.47a8.166 8.166 0 0 1-.748-2.193c.296-1.179.47-2.419.492-3.723l.002-.052a8.473 8.473 0 0 1 1.36-2.037c-18.07 7.33-11.502 42.622-1.538 45.638z" class="colorffd8c8 svgShape"/><path d="M360.935 137.903c-.19 0-.383-.027-.573-.081-.53-.152-.966-.499-1.195-.951-.315-.62-.247-1.306-.136-1.772.108-.447.29-.867.466-1.273l.127-.297a14.95 14.95 0 0 0 .692-9.47.25.25 0 0 1 .485-.126c.833 3.234.579 6.71-.716 9.79l-.129.301c-.176.405-.34.786-.439 1.192-.091.384-.15.945.095 1.428.167.33.49.583.888.697.395.115.807.071 1.124-.12a.25.25 0 0 1 .258.428c-.28.168-.608.254-.947.254zM364.447 141.723c-.392 0-.786-.07-1.151-.212a.25.25 0 0 1 .181-.466 2.741 2.741 0 0 0 2.175-.1 2.737 2.737 0 0 0 1.39-1.676.25.25 0 1 1 .48.137 3.24 3.24 0 0 1-1.647 1.986c-.44.22-.935.33-1.428.33z" fill="#000000" class="color000 svgShape"/><path fill="#bdbdbd" d="M358.367 110.223c.54 2.355.858 4.558 2.73 6.291 2.416 2.236 5.907 2.72 9.126 3.409 3.219.692 6.721 1.968 8.143 4.935.79 1.65.794 3.566 1.378 5.3.584 1.73 2.179 3.428 3.968 3.053 1.442-.302 2.298-1.797 2.699-3.211.4-1.417.555-2.956 1.405-4.159.78-1.1 2.15-1.787 3.494-1.647 1.34.14 2.576 1.155 2.873 2.47.205.9-.007 1.83-.062 2.752-.015.272-.012.556.023.833 2.556-2.255 4.13-5.436.234-9.148-3.115-2.966-8.708 5.28-8.708 5.28s-.89 5.063-2.515 5.668c-1.619.61-2.389-6.632-5.179-10.392-2.788-3.763-13.66-1.975-17.897-10.47a8.166 8.166 0 0 1-.748-2.193c.296-1.179.47-2.419.492-3.723-.598.351-1.118.774-1.466 1.3-.731 1.1-.259 2.478.01 3.652z" class="colorff8e7b svgShape"/><path d="M363.096 149.564c-1.234 0-2.41-.168-3.522-.505-5.087-1.54-9.46-11.263-9.959-22.136-.544-11.876 3.746-20.837 11.476-23.972a.249.249 0 0 1 .298.086.25.25 0 0 1-.017.31 8.234 8.234 0 0 0-1.298 1.93 16.906 16.906 0 0 1-.487 3.725c.129.682.37 1.38.716 2.073 2.533 5.08 7.59 6.438 11.655 7.53 2.726.732 5.079 1.365 6.22 2.903 1.355 1.827 2.246 4.476 2.963 6.604.593 1.766 1.155 3.434 1.704 3.694a.266.266 0 0 0 .221.009c1.225-.456 2.118-4.109 2.358-5.478a.246.246 0 0 1 .039-.096c.157-.232 3.885-5.679 7.04-6.018.79-.085 1.474.15 2.048.696 3.758 3.583 2.446 6.659.683 8.608-.271.301-.582.607-.925.91-2.188 1.927-5.1 3.195-5.94 3.537-.166.068-.26.103-.26.103a.25.25 0 1 1-.174-.469c.002 0 .09-.033.245-.096.822-.336 3.67-1.575 5.798-3.45.329-.29.626-.583.885-.87 2.347-2.596 2.125-5.257-.658-7.91-.468-.447-1.004-.632-1.648-.561-2.788.299-6.291 5.24-6.65 5.757-.134.737-1.003 5.186-2.666 5.805a.767.767 0 0 1-.61-.025c-.741-.352-1.254-1.876-1.964-3.987-.705-2.094-1.583-4.701-2.892-6.465-1.036-1.399-3.311-2.01-5.947-2.718-4.16-1.118-9.339-2.51-11.973-7.79a8.455 8.455 0 0 1-.77-2.26.256.256 0 0 1 .004-.105c.3-1.197.463-2.43.484-3.666a.575.575 0 0 1 .026-.153c.2-.435.453-.866.753-1.287-6.939 3.378-10.749 11.906-10.238 23.073.48 10.497 4.79 20.223 9.605 21.68 2.498.757 5.344.625 8.46-.391 3.85-1.25 8.074-3.803 12.556-7.586a.25.25 0 1 1 .323.382c-4.532 3.825-8.813 6.408-12.725 7.68-1.838.599-3.589.899-5.237.899z" fill="#000000" class="color000 svgShape"/><path fill="#606060" d="M359.33 108.993a8.17 8.17 0 0 0 .748 2.193c4.237 8.495 15.11 6.707 17.897 10.47 2.79 3.76 3.56 11.002 5.179 10.392 1.625-.605 2.515-5.668 2.515-5.668s5.593-8.246 8.708-5.28c7.808 7.44-6.356 12.742-6.356 12.742l3.347 2.258 45.362 30.606 3.677 2.482c4.71-5.581 3.171-42.425-14.693-41.38 0 0-8.678-12.148-21.001-10.264 0 0-9.063-26.773-35.86-19.166 0 0-2.305.764-4.66 2.282a15.383 15.383 0 0 0-2.407 1.891c-.21.202-.412.411-.603.63a8.469 8.469 0 0 0-1.36 2.037 16.75 16.75 0 0 1-.295 2.885c-.06.303-.126.597-.198.89z" class="colorb30d6e svgShape"/><path fill="#080808" d="M388.538 129.772a.374.374 0 0 1-.373-.34 4.57 4.57 0 0 1 1.674-3.94c.45-.36.902-.565 1.345-.608.58-.062 1.197.153 1.824.624a.375.375 0 0 1-.45.6c-.326-.244-.827-.525-1.302-.478-.295.029-.614.18-.948.447a3.868 3.868 0 0 0-1.397 3.286.375.375 0 0 1-.373.41z" class="color100000 svgShape"/><path fill="#606060" d="M348.907 121.864c.065.32.14.644.225.975 0 0 8.259-6.818 10.003-12.892.078-.267.14-.53.19-.794.036-.19.08-.38.129-.573l.045-.184c.258-.975.6-1.983.617-3.032.89-1.924 2.346-3.43 4.073-4.544a14.54 14.54 0 0 0-.895.273c-3.446 1.13-15.484 5.955-14.774 17.933.052.903.18 1.85.387 2.838z" class="colorb30d6e svgShape"/><path d="M440.407 169.438a.25.25 0 0 1-.191-.41c3.18-3.77 3.374-21.493-2.035-32.297-3.035-6.061-7.222-8.974-12.453-8.673a.252.252 0 0 1-.217-.104c-.087-.12-8.747-11.996-20.76-10.163a.251.251 0 0 1-.275-.167c-.09-.265-9.306-26.46-35.554-19.006a23.01 23.01 0 0 0-4.593 2.251 15.094 15.094 0 0 0-2.368 1.861 9.441 9.441 0 0 0-.589.616 8.267 8.267 0 0 0-1.3 1.93 17.154 17.154 0 0 1-.298 2.874c-.058.29-.12.571-.188.85.129.683.37 1.38.716 2.075 2.533 5.078 7.59 6.437 11.654 7.529 2.726.732 5.08 1.365 6.22 2.903 1.355 1.828 2.247 4.476 2.964 6.605.594 1.765 1.155 3.433 1.704 3.693a.268.268 0 0 0 .221.009c1.224-.456 2.117-4.108 2.358-5.477a.246.246 0 0 1 .039-.097c.157-.232 3.885-5.678 7.04-6.017.79-.085 1.473.15 2.048.696 1.93 1.84 2.714 3.722 2.33 5.597-.935 4.578-8.452 7.44-8.772 7.56a.25.25 0 1 1-.175-.468c.076-.029 7.579-2.885 8.458-7.193.346-1.694-.39-3.422-2.187-5.134a1.97 1.97 0 0 0-1.648-.56c-2.788.298-6.291 5.24-6.65 5.756-.134.737-1.003 5.186-2.666 5.805a.767.767 0 0 1-.61-.025c-.741-.351-1.254-1.876-1.964-3.986-.705-2.095-1.583-4.702-2.893-6.466-1.036-1.399-3.311-2.01-5.946-2.718-4.161-1.118-9.339-2.509-11.973-7.789a8.47 8.47 0 0 1-.77-2.26.269.269 0 0 1 .003-.105c.072-.29.137-.58.196-.879.179-.94.276-1.896.29-2.84a.264.264 0 0 1 .024-.101 8.74 8.74 0 0 1 1.399-2.098c.194-.222.401-.437.617-.644a15.612 15.612 0 0 1 2.445-1.921c2.354-1.518 4.694-2.302 4.716-2.31 25.505-7.238 35.19 16.687 36.104 19.127 11.61-1.633 20.036 9.065 20.957 10.285 5.299-.257 9.73 2.838 12.793 8.955 5.482 10.95 5.226 28.984 1.97 32.842a.25.25 0 0 1-.19.09z" fill="#000000" class="color000 svgShape"/><path d="M349.133 123.09a.25.25 0 0 1-.242-.188 18.639 18.639 0 0 1-.229-.988 19.592 19.592 0 0 1-.392-2.874c-.715-12.088 11.26-16.975 14.946-18.184.522-.175.85-.263.914-.279a.25.25 0 0 1 .195.453c-1.807 1.166-3.139 2.643-3.96 4.392-.022.866-.253 1.694-.475 2.495-.05.182-.101.363-.148.543l-.046.181c-.047.187-.09.371-.124.556a9.161 9.161 0 0 1-.196.82c-1.746 6.078-9.744 12.735-10.084 13.015a.25.25 0 0 1-.16.057zm13.67-21.565c-4.123 1.46-14.695 6.315-14.033 17.486.051.894.18 1.837.382 2.801v.002c.038.19.08.38.126.573 1.502-1.3 8.103-7.237 9.617-12.51.076-.259.136-.515.186-.772.034-.193.08-.387.13-.587l.047-.184.15-.55c.219-.788.445-1.602.458-2.424a.257.257 0 0 1 .024-.101c.658-1.423 1.635-2.674 2.913-3.734z" fill="#000000" class="color000 svgShape"/><path fill="#060606" d="M361.781 102.573c6.326-3.563 16.478-4.86 23.435-2.773 6.96 2.098 10.632 7.552 13.947 14.014 1.04 2.02 1.911 4.295 3.8 5.562 1.746 1.181 3.97 1.235 6.02 1.706 3.543.816 6.754 3.007 8.786 6.019 1.213 1.794 3.268 2.188 5.42 2.41 2.155.23 4.375.17 6.428.84 3.268 1.064 5.707 3.822 7.444 6.788 3.469 5.906 4.725 13.081 3.46 19.814-.26 1.36.692 3.694 1.82 6.202 1.609-12.096-2.128-36.194-16.626-35.35 0 0-8.675-12.145-21.007-10.262 0 0-9.06-26.775-35.852-19.162 0 0-2.305.763-4.658 2.28a15.001 15.001 0 0 0-2.411 1.892s-.007.011-.006.02z" class="color040608 svgShape"/><path fill="#ffffff" d="M381.728 114.431a.5.5 0 0 1-.46-.306c-1.9-4.523-4.555-7.59-7.893-9.117a.5.5 0 0 1 .416-.909c3.573 1.634 6.4 4.877 8.398 9.64a.5.5 0 0 1-.46.692zM360.72 104.089a.503.503 0 0 1-.06-.004c-1.096-.13-1.807-.028-1.814-.027a.5.5 0 0 1-.151-.988c.032-.006.84-.126 2.084.022a.5.5 0 0 1-.058.997z" class="colorfff svgShape"/><circle cx="367.509" cy="127.341" r="1.801" fill="#000000" class="color000 svgShape"/><path d="M364.19 122.535c-.015.656.726 1.193 1.654 1.198l2.383.015c.928.006 1.692-.521 1.706-1.177.014-.657-.727-1.193-1.655-1.2l-2.383-.014c-.928-.006-1.692.522-1.706 1.178z" fill="#000000" class="color000 svgShape"/><circle cx="355.543" cy="127.995" r="1.801" fill="#000000" class="color000 svgShape"/><path d="M352.223 123.189c-.014.656.727 1.193 1.655 1.198l2.383.015c.928.006 1.692-.521 1.706-1.177.014-.657-.727-1.193-1.655-1.2l-2.383-.014c-.928-.006-1.692.522-1.706 1.178z" fill="#000000" class="color000 svgShape"/><path fill="#e3e3e3" d="M202.947 146.289c.022 0 .043.01.054.021.66.13 6.239 1.539.314 6.13 0 0 .033.044.098.12.53.628 3 3.92-.542 7.094-.195.163-.379.325-.585.488 0 0 1.7 5.004-2.448 6.802-4.159 1.809-14.308 6.77-14.48 6.77-.488.8-13.42 42.533-40.26 51.512-.282.109-.553.195-.834.282-12.998 3.975-18.782-9.748-25.822-19.453a212.728 212.728 0 0 1-7.462-11.048c-.044-.065-.087-.14-.13-.205-.835-1.354-1.311-2.145-1.311-2.145l2.199-1.137 1.863-.964 11.069-5.73 12.748-6.607.499-.25.552.586 5.86 5.957.238.238 1.213 1.213.12.12 43.497-45.275s1.863-1.95 3.629-1.105c.498.228.985.694 1.419 1.463 0 0 .097-.033.27-.098h.011c2.253-.704 17.384-5.415 18.597-1.69 1.267 3.954-9.889 6.78-10.376 6.91z" class="colorffd8c8 svgShape"/><path fill="#bdbdbd" d="M145.098 225.226c-.282.109-.553.195-.834.282-12.998 3.975-18.782-9.748-25.822-19.453a212.728 212.728 0 0 1-7.462-11.048 46.762 46.762 0 0 1 2.512-4.289c.033-.054.076-.108.109-.162l11.069-5.73 12.748-6.607.499-.25.552.586 5.86 5.957c-4.614 7.712-7.214 16.842-5.98 25.735.77 5.48 3.142 10.81 6.749 14.98z" class="colorff8e7b svgShape"/><path d="M139.825 226.464c-8.17 0-13.18-7.633-18.05-15.052-1.147-1.749-2.335-3.557-3.533-5.211a209.094 209.094 0 0 1-7.601-11.265c-.844-1.355-1.322-2.152-1.322-2.152l-.136-.229 2.44-1.259 26.34-13.632.686.715 7.248 7.35 43.318-45.094c.08-.085 2.01-2.077 3.915-1.154.531.242 1.012.707 1.426 1.382l.066-.025.065-.018c5.32-1.664 17.71-5.112 18.87-1.52.205.637.13 1.282-.22 1.918-1.417 2.566-7.064 4.398-9.473 5.079.855.301 2.088.923 2.35 2.051.273 1.177-.582 2.568-2.543 4.138.517.637 3.006 4.09-.63 7.351-.155.138-.31.267-.47.394.256.92 1.233 5.263-2.632 6.946-2.47 1.073-7.057 3.259-10.408 4.855-2.828 1.348-3.688 1.753-3.986 1.875-.059.146-.179.48-.324.883-5.828 16.14-18.886 44.222-40.88 50.955-1.61.493-3.11.72-4.516.72zm-29.938-33.71c.197.327.601.991 1.177 1.917 1.703 2.707 4.4 6.855 7.582 11.237 1.206 1.664 2.397 3.477 3.547 5.23 5.607 8.54 11.402 17.377 22.001 14.129 22.6-6.919 35.89-37.724 40.556-50.647.26-.722.346-.955.395-1.038l.074-.122h.141c.115-.049 1.895-.897 3.956-1.88 3.354-1.597 7.947-3.785 10.424-4.862 3.886-1.692 2.373-6.302 2.307-6.497l-.058-.169.14-.11c.2-.155.39-.31.579-.478 3.38-3.033 1.017-6.148.51-6.741a1.188 1.188 0 0 0-.08-.102l-.19-.2.216-.172c1.907-1.483 2.794-2.793 2.562-3.787-.32-1.384-2.677-1.887-2.778-1.908l-.08-.018h-1.91l1.923-.492c.868-.222 8.452-2.232 10.017-5.068.286-.517.346-1.015.182-1.523-.837-2.593-9.991-.742-18.28 1.856l-.04.011c-.165.063-.264.085-.264.085l-.18.038-.092-.159c-.383-.676-.823-1.13-1.307-1.35-1.578-.766-3.323 1.029-3.34 1.047l-43.672 45.462-1.51-1.522-6.535-6.642-.322.166-27.651 14.31z" fill="#000000" class="color000 svgShape"/><path fill="#ffffff" d="M193.03 139.71c-.67.558-1.32 1.076-1.916 1.747-.713.814-1.363 1.688-2.028 2.542-4.546 5.82-8.947 11.28-15.49 14.715-.384.206-.785.4-1.208.55l-.127-.203 1.082-1.031 16.047-17.22s1.868-1.96 3.64-1.1z" class="colorfff svgShape"/><path fill="#f7f7f7" d="M189.403 103.943h10.816v80.555h-10.816z" class="colorf2f6fc svgShape"/><path d="M200.219 184.748h-10.816a.25.25 0 0 1-.25-.25v-80.555a.25.25 0 0 1 .25-.25h10.816a.25.25 0 0 1 .25.25v80.555a.25.25 0 0 1-.25.25zm-10.566-.5h10.316v-80.055h-10.316v80.055z" fill="#000000" class="color000 svgShape"/><path fill="#e3e3e3" d="M194.058 153.807c.067.042.14.075.214.11 2.172 1.157 6.111-.227 7.992-1.004 0 0 .007-.008.016 0 .626-.27 1.029-.466 1.029-.466 5.923-4.606.35-5.998-.316-6.144a.084.084 0 0 0-.049-.012c-.007.008-.015 0-.015 0s-4.874 2.372-8.421 2.7c-1.238.112-2.237 1.175-2.079 2.41.103.82.518 1.702 1.63 2.406z" class="colorffd8c8 svgShape"/><path fill="#e3e3e3" d="M195.49 160.598c2.797.684 6.787-.452 6.787-.452.216-.167.41-.324.594-.488 3.532-3.183 1.07-6.48.533-7.1-.239.073-.631.206-1.124.354-.009-.007-.016.001-.016.001-1.88.777-5.82 2.16-7.992 1.003-.074-.034-.147-.067-.214-.11-.147-.067-3.125 1.614-.793 5.354.476.76 1.283 1.203 2.224 1.438z" class="colorffd8c8 svgShape"/><path fill="#e3e3e3" d="M199.828 166.952c4.16-1.811 2.45-6.806 2.45-6.806s-3.991 1.136-6.789.452c-4.617 5.49 4.34 6.354 4.34 6.354zM194.805 142.276v.021a.836.836 0 0 1-.119.336c-.856 1.473-3.412 3.802-5.6 6.228 0 0 2.112 6.455-2.556 12.326-.01 0-.01.01-.021.01 0 0-10.247-1.96-14.124-2.685l17.005-17.698s1.873-1.96 3.639-1.105c.281.13.563.336.834.628.184.38.303.606.303.606.444.401.628.856.64 1.333z" class="colorffd8c8 svgShape"/><path d="M186.509 161.448a.25.25 0 0 1-.145-.455c4.494-5.69 2.506-11.991 2.486-12.054a.247.247 0 0 1 .051-.245c.762-.845 1.559-1.668 2.328-2.464 1.387-1.433 2.698-2.787 3.242-3.722a.605.605 0 0 0 .086-.235c-.011-.438-.194-.815-.558-1.144a.238.238 0 0 1-.055-.07s-.113-.216-.289-.579a2.433 2.433 0 0 0-.73-.544c-1.583-.766-3.337 1.032-3.355 1.05l-17.005 17.699a.25.25 0 0 1-.361-.347l17.005-17.698c.082-.084 2.025-2.081 3.93-1.156.316.146.623.376.907.682.017.019.031.04.042.062.137.284.239.482.28.561.443.414.675.912.688 1.48a1.09 1.09 0 0 1-.155.492c-.573.986-1.843 2.298-3.312 3.816-.736.76-1.495 1.546-2.223 2.348.274.992 1.675 6.99-2.64 12.418a.245.245 0 0 1-.092.071.275.275 0 0 1-.125.034z" fill="#000000" class="color000 svgShape"/><path d="M185.36 162.747a.25.25 0 0 1-.177-.427 13.85 13.85 0 0 0 1.15-1.287c4.533-5.701 2.537-12.03 2.517-12.094a.247.247 0 0 1 .051-.245c.762-.845 1.559-1.668 2.328-2.464 1.387-1.433 2.698-2.787 3.242-3.722a.605.605 0 0 0 .086-.235c.051-.475-.302-.944-.306-.949a.25.25 0 1 1 .394-.307c.02.026.484.63.409 1.287-.014.16-.067.313-.153.457-.573.986-1.843 2.298-3.312 3.816-.736.76-1.495 1.546-2.223 2.348.274.992 1.675 6.99-2.64 12.418a14.37 14.37 0 0 1-1.189 1.331.25.25 0 0 1-.177.073zM196.375 154.607c-.823 0-1.59-.134-2.22-.47a1.794 1.794 0 0 1-.23-.12c-1.024-.647-1.61-1.517-1.743-2.586a2.28 2.28 0 0 1 .499-1.73 2.623 2.623 0 0 1 1.804-.958c3.46-.32 8.286-2.652 8.334-2.676a.248.248 0 0 1 .094-.025.348.348 0 0 1 .162.022c.526.12 2.78.718 3.136 2.292.274 1.214-.65 2.656-2.75 4.288-.043.027-.45.226-1.083.498a.244.244 0 0 1-.052.016c-1.515.623-3.907 1.449-5.951 1.449zm6.589-8.054c-.65.31-5.077 2.377-8.433 2.688a2.121 2.121 0 0 0-1.46.773 1.79 1.79 0 0 0-.393 1.354c.114.915.624 1.664 1.514 2.227l.001.001c.057.036.12.064.183.093 2.036 1.084 5.754-.166 7.792-1.007v.001a.287.287 0 0 1 .042-.013c.6-.259.986-.447.99-.448 1.86-1.454 2.748-2.762 2.524-3.755-.295-1.303-2.412-1.835-2.76-1.914z" fill="#000000" class="color000 svgShape"/><path d="M197.571 161.069c-.732 0-1.468-.064-2.141-.228h-.001c-1.107-.277-1.906-.798-2.376-1.548-1.62-2.597-.763-4.235-.108-4.98.253-.288.922-.867 1.217-.734.088.053.15.081.214.11 2.036 1.084 5.754-.166 7.792-1.007v.001a.26.26 0 0 1 .062-.017c.304-.091.569-.177.782-.246l.319-.101a.25.25 0 0 1 .263.075c.344.4 3.263 4.009-.556 7.45-.19.169-.387.329-.607.5a.248.248 0 0 1-.085.042c-.126.036-2.432.683-4.775.683zm-2.022-.714c2.54.62 6.167-.316 6.614-.437.195-.152.373-.296.542-.447 3.198-2.881 1.273-5.804.614-6.624l-.154.05c-.22.07-.496.16-.814.255-.008.002-.016.005-.025.006-2.125.874-5.98 2.148-8.17.98a2.215 2.215 0 0 1-.132-.063c-.21.102-.865.528-1.204 1.382-.404 1.022-.183 2.223.656 3.571.4.636 1.097 1.083 2.073 1.327z" fill="#000000" class="color000 svgShape"/><path d="m199.828 167.202-.024-.001c-.193-.019-4.74-.483-5.708-2.854-.453-1.108-.048-2.423 1.202-3.91a.246.246 0 0 1 .25-.082c2.696.659 6.622-.44 6.66-.45a.248.248 0 0 1 .306.16c.017.052 1.734 5.235-2.586 7.116a.242.242 0 0 1-.1.021zm-4.245-6.326c-1.045 1.283-1.39 2.387-1.025 3.282.798 1.953 4.684 2.474 5.231 2.538 3.394-1.526 2.59-5.28 2.32-6.246-.892.23-4.073.962-6.526.426z" fill="#000000" class="color000 svgShape"/><path fill="#ffffff" d="M253.425 67.346v53.72a4.477 4.477 0 0 1-4.472 4.472H140.889a4.453 4.453 0 0 1-2.568-.809 4.465 4.465 0 0 1-1.914-3.664v-53.72a4.472 4.472 0 0 1 4.482-4.472h108.064c.153 0 .307.01.46.02a4.467 4.467 0 0 1 4.012 4.453z" class="colorfff svgShape"/><path fill="#f7f7f7" d="M253.425 72.575v48.49a4.477 4.477 0 0 1-4.472 4.473H140.889a4.453 4.453 0 0 1-2.568-.809c2.753-1.29 6.089-1.545 9.2-1.709 25.709-1.33 51.417-2.671 77.126-4.002 7.348-.388 15.71-1.289 20.038-7.246 2.231-3.08 2.927-6.98 3.552-10.725 1.023-6.028 2.036-12.056 3.06-18.084.276-1.597.47-8.013 2.128-10.388z" class="colorf2f6fc svgShape"/><path d="M248.954 125.784h-34.823a.25.25 0 0 1 0-.5h34.823a4.222 4.222 0 0 0 4.218-4.219V67.343a4.222 4.222 0 0 0-4.218-4.219h-108.07a4.223 4.223 0 0 0-4.218 4.219v34.677a.25.25 0 0 1-.5 0V67.343a4.724 4.724 0 0 1 4.719-4.719h108.069a4.723 4.723 0 0 1 4.718 4.719v53.722a4.723 4.723 0 0 1-4.718 4.719zM200.219 125.784h-59.334a4.724 4.724 0 0 1-4.72-4.719v-11.65a.25.25 0 0 1 .5 0v11.65a4.223 4.223 0 0 0 4.22 4.219h59.334a.25.25 0 0 1 0 .5z" fill="#000000" class="color000 svgShape"/><path d="M214.13 125.784h-11.504a.25.25 0 0 1 0-.5h11.505a.25.25 0 0 1 0 .5z" fill="#000000" class="color000 svgShape"/><path fill="#a2a2a2" d="m144.916 181.612-20.584 13.78-10.643-39.873 1.306.547s21.17 10.201 29.921 25.546z" class="color8aa7bb svgShape"/><path d="m124.185 195.797-.09-.338-10.776-40.362 1.784.748c.213.102 21.344 10.409 30.03 25.642l.115.202-21.063 14.108zm-10.12-39.846 10.423 39.042 20.095-13.46c-8.63-14.9-29.25-25.02-29.69-25.235l-.828-.347z" fill="#000000" class="color000 svgShape"/><path fill="#e3e3e3" d="M131.362 381.25v17.57h-9.493v8.46H99.541c-1.7-.363-2.978-2.502-4.183-3.914l.766-8.565 1.435-16.034.056-.632 1.83.17 31.917 2.945z" class="colorffd8c8 svgShape"/><path fill="#080808" d="M131.362 381.25v10.22l-35.238 3.33 1.435-16.033 1.887-.461zM121.868 398.82v8.46H99.542c-1.7-.363-2.98-2.502-4.183-3.915l23.683-.783 2.826-3.763z" class="color100000 svgShape"/><path fill="#ffffff" d="M155.291 424.603h-62.91a1.964 1.964 0 0 1-1.968-1.968v-3.648c0-.4.133-.802.363-1.145.936-1.318 3.342-5.08 2.33-7.697-1.26-3.209-2.216-7.086-.115-7.983.822-.363 1.585.267 2.368 1.203 1.204 1.413 2.483 3.552 4.183 3.915h22.326v-8.46h12.415v7.753l11.745 4.527a14.47 14.47 0 0 1 9.263 13.503z" class="colorfff svgShape"/><path fill="#9f9f9f" d="M155.291 424.603h-62.91a1.964 1.964 0 0 1-1.968-1.968v-2.387c13.049 1.874 32.01-10.256 32.01-10.256-.898-3.304 11.86-3.419 11.86-3.419l11.745 4.527a14.47 14.47 0 0 1 9.263 13.503z" class="color4776f8 svgShape"/><path fill="#080808" d="M155.666 424.977H92.38a2.344 2.344 0 0 1-2.342-2.341v-3.648c0-.468.146-.936.425-1.354.786-1.106 3.252-4.874 2.293-7.354-1.854-4.72-1.823-7.646.088-8.463 1.097-.485 2.034.388 2.802 1.307.258.303.522.641.792.989.927 1.192 1.978 2.544 3.182 2.8l21.873-.008v-8.46h13.164v7.871l11.506 4.434c5.773 2.234 9.503 7.67 9.503 13.852v.375zM93.47 402.433a.8.8 0 0 0-.328.072c-1.962.839-.646 5.06.312 7.503 1.065 2.753-1.305 6.547-2.373 8.05-.187.282-.293.615-.293.93v3.648c0 .878.714 1.591 1.592 1.591h62.531c-.147-5.713-3.654-10.702-9.019-12.777l-11.985-4.62v-7.636h-11.664v8.461H99.542c-1.55-.322-2.69-1.788-3.696-3.082-.263-.338-.519-.668-.772-.965-.677-.808-1.169-1.175-1.604-1.175z" class="color100000 svgShape"/><path fill="#080808" d="M155.666 424.977H92.38a2.344 2.344 0 0 1-2.342-2.341v-2.82l.429.06c12.025 1.727 29.43-8.759 31.543-10.068a1.539 1.539 0 0 1 .325-1.086c1.79-2.365 10.91-2.514 11.944-2.523h.071l11.813 4.55c5.773 2.235 9.503 7.672 9.503 13.853v.375zm-64.878-4.301v1.96c0 .878.714 1.591 1.592 1.591h62.531c-.147-5.713-3.654-10.702-9.019-12.777l-11.678-4.5c-2.762.03-9.965.486-11.281 2.225a.773.773 0 0 0-.148.719l.072.266-.232.148c-.722.461-16.594 10.513-29.29 10.514-.866 0-1.716-.047-2.547-.146z" class="color100000 svgShape"/><path fill="#080808" d="M90.413 419.873h64.167v.75H90.413z" class="color100000 svgShape"/><path fill="#080808" d="M140.265 420.392c-.93-2.222-.905-4.065.072-5.478 2.129-3.082 7.996-2.919 8.244-2.909l-.025.75c-.051-.002-5.707-.158-7.603 2.587-.82 1.189-.82 2.79.003 4.761l-.691.29z" class="color100000 svgShape"/><path fill="#080808" d="M130.988 403.473h.75v18.78h-.75z" transform="rotate(-72.198 131.363 412.863)" class="color100000 svgShape"/><path fill="#e3e3e3" d="M98.208 381.25v17.57h-9.492v8.46H66.387c-1.7-.363-2.977-2.502-4.183-3.914l.767-8.565 1.434-16.034.056-.632 1.831.17 31.916 2.945z" class="colorffd8c8 svgShape"/><path fill="#080808" d="M98.208 381.25v10.22l-35.237 3.33 1.434-16.033 1.887-.461zM88.715 398.82v8.46H66.388c-1.7-.363-2.979-2.502-4.182-3.915l23.682-.783 2.827-3.763z" class="color100000 svgShape"/><path fill="#ffffff" d="M122.137 424.603h-62.91a1.964 1.964 0 0 1-1.968-1.968v-3.648c0-.4.134-.802.363-1.145.936-1.318 3.342-5.08 2.33-7.697-1.26-3.209-2.215-7.086-.114-7.983.82-.363 1.585.267 2.368 1.203 1.203 1.413 2.482 3.552 4.182 3.915h22.327v-8.46h12.414v7.753l11.745 4.527a14.47 14.47 0 0 1 9.263 13.503z" class="colorfff svgShape"/><path fill="#9f9f9f" d="M122.137 424.603h-62.91a1.964 1.964 0 0 1-1.968-1.968v-2.387c13.049 1.874 32.01-10.256 32.01-10.256-.898-3.304 11.86-3.419 11.86-3.419l11.745 4.527a14.47 14.47 0 0 1 9.263 13.503z" class="color4776f8 svgShape"/><path fill="#080808" d="M122.513 424.977H59.226a2.344 2.344 0 0 1-2.341-2.341v-3.648c0-.47.147-.938.425-1.354.785-1.106 3.25-4.877 2.292-7.354-1.854-4.719-1.824-7.646.088-8.463 1.098-.485 2.034.388 2.803 1.307.258.303.522.641.792.989.927 1.192 1.978 2.544 3.182 2.8l21.873-.008v-8.46h13.164v7.871l11.505 4.434c5.773 2.234 9.504 7.671 9.504 13.852v.375zm-62.197-22.544a.8.8 0 0 0-.327.072c-1.965.84-.647 5.06.312 7.503 1.064 2.75-1.305 6.546-2.373 8.05a1.71 1.71 0 0 0-.293.93v3.648c0 .878.714 1.591 1.591 1.591h62.532c-.148-5.713-3.655-10.702-9.02-12.777l-11.984-4.62v-7.636H89.09v8.461H66.389c-1.55-.322-2.69-1.788-3.697-3.082-.262-.338-.518-.668-.771-.965-.677-.808-1.17-1.175-1.605-1.175z" class="color100000 svgShape"/><path fill="#080808" d="M122.513 424.977H59.226a2.344 2.344 0 0 1-2.341-2.341v-2.82l.428.06c12.018 1.73 29.43-8.759 31.542-10.068a1.538 1.538 0 0 1 .326-1.086c1.79-2.365 10.91-2.514 11.945-2.523h.071l11.812 4.55c5.773 2.235 9.504 7.672 9.504 13.853v.375zm-64.878-4.301v1.96c0 .878.714 1.591 1.591 1.591h62.532c-.148-5.713-3.655-10.702-9.02-12.777l-11.678-4.5c-2.761.03-9.964.486-11.282 2.225a.776.776 0 0 0-.147.719l.071.266-.231.148c-.722.461-16.594 10.513-29.29 10.514-.866 0-1.715-.047-2.546-.146z" class="color100000 svgShape"/><path fill="#080808" d="M57.26 419.873h64.167v.75H57.26z" class="color100000 svgShape"/><path fill="#080808" d="M107.11 420.392c-.928-2.222-.904-4.065.073-5.478 2.13-3.082 7.993-2.919 8.244-2.909l-.026.75c-.05-.002-5.707-.158-7.602 2.587-.82 1.189-.82 2.79.003 4.761l-.692.29z" class="color100000 svgShape"/><path fill="#080808" d="M97.835 403.472h.75v18.781h-.75z" transform="rotate(-72.199 98.21 412.863)" class="color100000 svgShape"/><path fill="#626262" d="m122.32 237.36 22.955 54.494a28.531 28.531 0 0 1 1.385 18l-13.97 80.674H93.873l14.192-81.14-15.027-77.198 29.283 5.17z" class="color008dc4 svgShape"/><path fill="#242424" d="m106.52 318.229-12.65 72.3h38.821l13.966-80.673a28.527 28.527 0 0 0-1.38-18.001l-22.957-54.497-.21-.04-22.977-4.048-6.099-1.078 1.735 8.906 13.296 68.291-1.544 8.84z" class="color043844 svgShape"/><path d="m108.065 309.39-1.544 8.839a50.217 50.217 0 0 0 4.324 3.312c1.354.934 3.174 1.814 4.541.907 1.321-.874 1.289-2.793 1.046-4.357-2.182-13.933-9.57-26.769-10.851-40.813-.986-10.812 2.024-21.84 7.978-30.877 2.012-3.05 6.007-5.994 8.55-9.082l-22.976-4.049c-1.728 2.425-3.115 5.113-4.364 7.828l13.296 68.291z" fill="#000000" class="color000 svgShape"/><path d="M132.69 390.778H93.872a.25.25 0 0 1-.246-.293l14.183-81.094-15.017-77.154a.25.25 0 0 1 .066-.223.256.256 0 0 1 .223-.07l29.283 5.17a.25.25 0 0 1 .187.149l22.955 54.494a28.954 28.954 0 0 1 1.396 18.158l-13.966 80.655a.25.25 0 0 1-.246.208zm-38.52-.5h38.31l13.934-80.466a28.48 28.48 0 0 0-1.37-17.861l-22.902-54.368-28.79-5.084 14.956 76.842c.006.03.007.06.001.09l-14.14 80.847z" fill="#000000" class="color000 svgShape"/><path fill="#626262" d="m65.03 236.717-3.882 153.81h41.784l-.259-139.58c6.96-5.674 10.191-10.382 10.996-18.757l-48.64 4.527z" class="color008dc4 svgShape"/><path fill="#242424" d="m102.932 390.53-.256-139.58c6.953-5.68 10.187-10.385 10.995-18.758l-20.531 1.906-27.019 2.517-1.09.099-.02.887-3.576 141.552-.289 11.377h41.786z" class="color043844 svgShape"/><path fill="#060606" d="M61.435 379.153c4.706-.742 9.116-3.286 11.541-7.36 2.97-4.976 2.682-11.167 2.294-16.95-1.078-16.266-2.156-32.533-3.24-48.799-.533-8.031-1.026-16.365 1.846-23.883 2.117-5.547 5.922-10.26 8.9-15.399 3.068-5.29 5.244-11.048 6.966-16.904 1.268-4.324 3.976-10.653 3.47-15.26-.02-.171-.046-.342-.072-.5-1.71-9.227-20.591-2.287-24.935.874a33.653 33.653 0 0 0-2.084 1.643c-.374.316-.749.644-1.11.986l-3.576 141.552z" class="color040608 svgShape"/><path d="M102.933 390.778H61.148a.249.249 0 0 1-.25-.257l3.881-153.81a.25.25 0 0 1 .227-.243l48.64-4.528a.25.25 0 1 1 .046.498l-48.419 4.508-3.868 153.332h41.278l-.26-139.33a.25.25 0 0 1 .093-.195c3.716-3.03 6.106-5.59 7.75-8.301a.25.25 0 1 1 .428.259c-1.662 2.74-4.06 5.32-7.77 8.355l.259 139.461a.252.252 0 0 1-.25.25z" fill="#000000" class="color000 svgShape"/><path fill="#ffffff" d="M88.184 343.488v-40.677a2.543 2.543 0 115.087 0v40.677a2.543 2.543 0 01-5.087 0zM88.184 353.025v16.322a2.543 2.543 0 105.087 0v-16.322a2.543 2.543 0 00-5.087 0zM123.511 352.827l5.419-29.725a1.89 1.89 0 013.717.678l-5.419 29.725a1.89 1.89 0 01-3.717-.678zM122.24 359.796l-2.174 11.927a1.89 1.89 0 003.717.678l2.175-11.927a1.89 1.89 0 10-3.717-.678z" opacity=".3" class="colorfff svgShape"/><path fill="#242424" d="M100.11 114.524s1.471 9.759 15.117 3.357c13.645-6.401 4.541-20.358 4.541-20.358l-11.26 1.154-8.398 15.847z" class="color043844 svgShape"/><path d="m115.333 118.108-.213-.453c3.723-1.746 6.063-4.226 6.958-7.371 1.715-6.033-2.477-12.56-2.519-12.624l.418-.273c.044.067 4.359 6.785 2.581 13.034-.935 3.29-3.367 5.877-7.225 7.687z" fill="#000000" class="color000 svgShape"/><path fill="#a2a2a2" d="M61.857 248.834c0 4.23 69.859 4.23 69.859 0 0 0 2.656-77.173-8.662-87.383-14.69-13.253-46.016-14.72-59.99-2.193-8.48 7.603-1.207 89.576-1.207 89.576z" class="color8aa7bb svgShape"/><path d="M96.787 252.256c-9.157 0-17.693-.282-24.034-.794-11.146-.9-11.146-2.155-11.146-2.628-.297-3.33-7.185-82.163 1.29-89.761 12.565-11.264 39.978-11.664 56.41-.822l-.276.417c-16.265-10.733-43.383-10.356-55.8.777-8.29 7.432-1.197 88.548-1.125 89.367.001 1.458 12.973 2.944 34.681 2.944 21.707 0 34.679-1.486 34.679-2.922.015-.448 1.467-44.27-2.612-69.899l.495-.078c4.084 25.677 2.631 69.546 2.617 69.986 0 3.317-31.578 3.413-35.179 3.413z" fill="#000000" class="color000 svgShape"/><path fill="#e3e3e3" d="m78.765 122.737 3.02 28.297s2.276 1.039 5.341 2.174c5.43 2.01 13.335 4.318 15.427 1.67.677-.855-.64-7.199-2.062-13.105-1.314-5.463-2.718-10.548-2.718-10.548l-17.997-8.035-1.008-.45-.003-.003z" class="colorffd8c8 svgShape"/><path fill="#bdbdbd" d="m78.763 122.736 3.026 28.3s2.272 1.04 5.335 2.17c-2.024-1.93-3.68-4.156-4.654-6.814-1.647-4.498-1.049-9.446-1.067-14.229-.01-2.3-.23-4.71-.883-6.926-1.086-1.471-1.711-2.428-1.748-2.501h-.009z" class="colorff8e7b svgShape"/><path d="M98.98 156.309c-6.153 0-16.734-4.79-17.3-5.048l-.13-.059-.632-5.925-2.448-22.946 19.512 8.713.032.114c.626 2.264 6.078 22.178 4.736 23.875-.724.915-2.08 1.276-3.77 1.276zm-16.963-5.445c1.6.714 17.365 7.62 20.34 3.859.888-1.122-2.457-14.848-4.795-23.319l-18.503-8.263 2.958 27.723z" fill="#000000" class="color000 svgShape"/><path fill="#e3e3e3" d="M78.763 122.736h.01c.036.073.661 1.03 1.747 2.501 3.467 4.682 11.57 14.496 19.967 16.537 1.306.313 2.622.442 3.919.34 12.444-1.002 12.986-18.1 12.49-28.548-.074-1.435-.157-2.741-.24-3.872-.165-2.373-.386-3.863-.386-3.863L88.052 99.88l-7.284 11.414s-9.372-5.712-10.99 1.582c-1.601 7.238 8.985 9.86 8.985 9.86z" class="colorffd8c8 svgShape"/><path fill="#bdbdbd" d="M78.763 122.736h.01c.036.073.661 1.03 1.747 2.501a13.305 13.305 0 0 0-.745-2.05c-.708-1.573-1.702-2.98-3.072-4.075-1.214-.984-2.686-1.665-3.734-2.815-1.049-1.158-1.555-3.072-.525-4.249 1.168-1.352 4.572-1.517 5.822-.23 1.242 1.288 2.346 2.4 3.394 3.845 1.058 1.453.616 5.546 2.235 4.792l4.516-7.11c1.37-1.214 3.422-1.049 5.234-.819l13.317 1.711c2.226.285 4.48.57 6.705.276a10.695 10.695 0 0 0 3.229-.947c-.074-1.435-.157-2.741-.24-3.872-.165-2.373-.386-3.863-.386-3.863L88.052 99.88l-7.284 11.414s-9.372-5.712-10.99 1.582c-1.601 7.238 8.985 9.86 8.985 9.86z" class="colorff8e7b svgShape"/><path d="M103.515 142.401c-3.552 0-7.467-1.624-11.655-4.84l.305-.396c4.448 3.415 8.564 4.996 12.222 4.702 14.196-1.146 12.616-23.673 12.021-32.153a63.552 63.552 0 0 0-.36-3.677l-27.875-5.882-7.33 11.482-.208-.128c-.052-.031-5.142-3.095-8.306-1.75-1.173.5-1.948 1.567-2.304 3.17-1.528 6.918 8.697 9.539 8.8 9.564l-.121.486c-.107-.027-10.8-2.765-9.167-10.158.393-1.77 1.267-2.955 2.597-3.522 3.05-1.3 7.517 1.069 8.55 1.66l7.254-11.364 28.557 6.025.024.173c.003.014.221 1.53.387 3.886.605 8.615 2.21 31.5-12.478 32.686-.302.024-.607.036-.913.036z" fill="#000000" class="color000 svgShape"/><path fill="#242424" d="m83.503 118.537-.2.368c.082-.118.145-.241.2-.368zM69.781 112.875c1.619-7.292 10.983-1.58 10.983-1.58s3.983 4.373 2.748 7.227c.87-1.625 3.708-7.087 3.71-7.226.152-3.995 24.327 4.185 30.967.208.89-.534 2.068-2.89 2.769-5.946 1.64-7.171.643-18.205-12.824-18.703h-.016s-.003-.015-.012-.042c-.07-.248-.483-1.58-1.57-2.815-1.519-1.727-4.348-3.27-9.388-1.395-5.54 2.06-6.247 5.496-5.966 7.845v.003c.178 1.477.745 2.522.745 2.522s-9.702-3.355-15.898.374c-6.19 3.732-3.358 10.297-3.358 10.297s-2.83 1.697-3.63 4.52c-.383 1.338-.307 2.93.74 4.71z" class="color043844 svgShape"/><path d="M83.064 115.342c-.754-1.888-2.253-3.617-2.46-3.85-.43-.255-5.239-3.024-8.275-1.732-1.173.5-1.948 1.566-2.304 3.169l-.137.62-.323-.548c-3.022-5.144 1.798-8.776 2.802-9.456-.413-1.146-2.162-6.98 3.533-10.412 5.451-3.283 13.408-1.224 15.565-.57-.385-.954-1.009-3.058-.178-5.273.802-2.14 2.745-3.796 5.774-4.922 3.053-1.136 5.647-1.164 7.71-.083 2.422 1.269 3.322 3.648 3.536 4.327 5.56.241 9.479 2.28 11.65 6.061 3.174 5.524 1.676 13.653-.335 17.406l-.441-.236c1.959-3.655 3.422-11.56.343-16.92-2.103-3.663-5.944-5.62-11.416-5.818l-.186-.007-.047-.181c-.007-.028-.755-2.84-3.34-4.192-1.934-1.009-4.389-.972-7.3.112-2.887 1.073-4.731 2.63-5.48 4.628-1.024 2.73.377 5.362.391 5.389l.308.566-.61-.21c-.096-.034-9.664-3.277-15.686.352-5.935 3.577-3.283 9.92-3.256 9.983l.087.2-.187.114c-.235.14-5.507 3.385-3.1 8.34.447-1.429 1.264-2.402 2.432-2.9 3.396-1.445 8.544 1.65 8.76 1.783l.055.045c.071.078 1.738 1.923 2.58 4.03l-.465.185z" fill="#000000" class="color000 svgShape"/><path d="m83.46 119.125-.402-.297c.171-.265 3.79-7.206 3.923-7.596.004-.27.14-.542.397-.754 1.338-1.107 5.965-.398 11.818.498 5.975.915 12.741 1.95 16.826 1.065l.106.488c-4.174.907-10.991-.137-17.007-1.058-5.275-.808-10.258-1.572-11.425-.607a.57.57 0 0 0-.223.441c-.007.29-3.973 7.77-4.012 7.82z" fill="#000000" class="color000 svgShape"/><path fill="#e3e3e3" d="M33.841 221.734c.003.014.003.026.006.037.388 3.07 1.361 5.855 3.098 8.184.106.142.215.282.324.419 6.445 8.013 43.478 5.55 58.277 4.214 3.78-.341 6.11-.607 6.11-.607s11.074 3.19 17.385 2.676c1.13-.101 1.993-.339 2.443-.775a1.04 1.04 0 0 0 .297-.436c.4-1.121-.202-2.016-1.242-2.718-.721-.483-1.666-.88-2.634-1.196.828-.026 1.75-.14 2.757-.4.246-.062.5-.129.758-.21 5.243-1.627 1.088-4.61 1.088-4.61 4.448-1.76 2.966-4.113 1.923-5.196a5.447 5.447 0 0 0-.562-.511l-.044-.037c-.009-.002-.026-.02-.037-.027-.005 0-.014-.012-.02-.017 0 0 4.346.181 3.348-4.253-.993-4.429-17.61-1.39-17.61-1.39l-43.802-1.473-.117-.05 7.28-23.207 3.13-12.602 1.176-4.728-10.938-11.715v11.936H49.652c-.137.274-.276.55-.41.836-.023.048-.048.098-.07.148l-.213.448a247.183 247.183 0 0 1-1.683 3.43c-.576 1.16-1.2 2.419-1.854 3.753-5.497 11.206-13.105 27.904-11.58 40.077z" class="colorffd8c8 svgShape"/><path fill="#ffffff" d="M121.78 235.446c-.06.166-.155.311-.296.436-.45.436-1.313.677-2.445.772l-.005-.005c-1.934-2.66 1.488-3.923 1.488-3.923l.015.005c1.042.701 1.644 1.593 1.243 2.715zM121.42 230.922c-.256.08-.512.15-.757.21-.05-.065-.096-.135-.14-.205-1.574-2.52 1.983-4.615 1.983-4.615s4.16 2.981-1.087 4.61z" class="colorfff svgShape"/><path fill="#ffffff" d="M122.506 226.312s-2.22-1.493-1.964-3.237c.26-1.748 3.282-2.505 3.282-2.505l.045.035c.12.095.331.27.561.511 1.043 1.082 2.526 3.437-1.924 5.196z" class="colorfff svgShape"/><path fill="#bdbdbd" d="M33.841 221.734c.003.014.003.026.006.037.388 3.07 1.361 5.855 3.098 8.184.106.142.215.282.324.419 6.445 8.013 43.478 5.55 58.277 4.214-1.02-.185-2.07-.263-3.106-.341l-34.934-2.612c-4.949-.369-10.236-.867-14.097-3.987-5.167-4.177-6.107-11.79-4.935-18.33 1.373-7.667 5.128-14.892 10.614-20.42 3.439-3.467 7.79-6.716 8.592-11.53l-2.916-2.503c-1.703-.911-3.619-1.191-5.523-.987l-.07.148-.212.448a247.183 247.183 0 0 1-1.683 3.43c-.576 1.16-1.2 2.419-1.854 3.753-5.497 11.206-13.105 27.904-11.58 40.077z" class="colorff8e7b svgShape"/><path d="M117.577 236.962c-6.163 0-15.198-2.517-15.942-2.727-.358.04-2.624.29-6.067.602-15.426 1.392-52.007 3.76-58.493-4.306-.112-.14-.223-.282-.331-.427-1.674-2.245-2.732-5.039-3.145-8.302-1.47-11.732 5.426-27.674 11.598-40.255.654-1.334 1.28-2.593 1.856-3.754a241 241 0 0 0 1.68-3.427l.267-.563c.132-.279.252-.52.371-.758l.127-.253h16.487v-11.686h.5v12.186H49.807c-.114.227-.229.457-.34.693l-.283.596c-.487 1.02-1.054 2.17-1.684 3.434a864.85 864.85 0 0 0-1.854 3.752c-6.141 12.519-13.004 28.372-11.557 39.936.408 3.213 1.434 5.927 3.055 8.102.105.14.213.278.32.413 6.337 7.879 42.713 5.507 58.06 4.12 3.733-.336 6.08-.603 6.103-.606l.05-.005.048.014c.109.031 11.095 3.17 17.295 2.667 1.141-.102 1.913-.34 2.29-.706a.817.817 0 0 0 .236-.34c.32-.897-.056-1.69-1.147-2.427-.629-.421-1.494-.814-2.571-1.166l-1.36-.443 1.43-.044c.893-.028 1.802-.16 2.702-.393.243-.06.493-.125.745-.205 1.513-.47 2.34-1.082 2.46-1.818.189-1.165-1.427-2.34-1.443-2.352l-.372-.267.426-.168c1.679-.664 2.63-1.462 2.828-2.373.202-.936-.428-1.83-.992-2.416a5.363 5.363 0 0 0-.538-.49c-.005-.002-.01-.006-.015-.01h-.018l-.513-.535.61.019c.024.006 1.768.056 2.678-1.037.56-.671.7-1.65.415-2.911-.77-3.44-12.763-2.032-17.32-1.199l-43.946-1.489-.324-.14 7.349-23.422.476.15-7.197 22.939 43.607 1.466c.633-.121 16.81-3.025 17.843 1.585.32 1.422.145 2.547-.521 3.344-.696.833-1.754 1.098-2.432 1.18.072.067.14.134.206.204.649.673 1.37 1.717 1.12 2.868-.217 1.005-1.14 1.868-2.74 2.57.531.467 1.483 1.474 1.307 2.564-.154.94-1.097 1.685-2.805 2.215-.26.082-.52.15-.771.213-.548.142-1.101.248-1.653.317.634.26 1.172.537 1.609.83 1.605 1.083 1.614 2.234 1.338 3.01a1.287 1.287 0 0 1-.366.537c-.462.448-1.31.724-2.588.838-.47.038-.968.056-1.486.056z" fill="#000000" class="color000 svgShape"/><path d="m115.139 221.434-.13-.483c2.664-.707 8.565-.633 8.819-.63l-.008.5c-.057-.001-6.087-.076-8.681.613z" fill="#000000" class="color000 svgShape"/><path fill="#a2a2a2" d="m47.278 177.903 8.116 3.884 17.476 8.363 4.3-17.33-10.875-16.054c-.357.187-.75.409-1.166.655-4.395 2.59-12.077 8.39-15.96 16.607a180.373 180.373 0 0 1-1.89 3.875z" class="color8aa7bb svgShape"/><path fill="#ffffff" d="M71.45 178.49c-.16.78-.524 1.642-1.286 1.873-.555.167-1.155-.063-1.637-.386-1.422-.952-2.193-2.752-2.007-4.454.15-1.37 1.705-4.762 3.585-3.637 1.73 1.035 1.685 4.947 1.345 6.604z" opacity=".3" class="colorfff svgShape"/><path fill="#797979" d="M54.483 180.782c-.86-1.21-1.107-3.015-.12-4.122.878-.988 2.343-1.09 3.62-1.422 4.182-1.09 7.18-5.587 6.558-9.862-.247-1.763-1.065-3.466-2.385-4.667l3.543-2.87a3.763 3.763 0 0 0-.57-.418c-4.395 2.59-12.077 8.39-15.96 16.607a180.373 180.373 0 0 1-1.89 3.875l8.115 3.884a5.69 5.69 0 0 1-.91-1.005z" class="color5d7a95 svgShape"/><path d="m73.037 190.508-.277-.133-25.82-12.356.113-.227c.84-1.684 1.422-2.878 1.891-3.872 5.031-10.653 16.001-16.72 17.236-17.377l.234.441c-1.219.65-12.056 6.642-17.018 17.15-.448.951-1.002 2.085-1.783 3.653L72.7 189.792l2.467-9.925.484.12-2.613 10.52z" fill="#000000" class="color000 svgShape"/><path fill="#ffffff" d="M106.687 220.406a.85.85 0 0 1-.317 0 87.998 87.998 0 0 0-23.292-1.247.854.854 0 1 1-.136-1.704 89.68 89.68 0 0 1 23.745 1.27.855.855 0 0 1 0 1.681z" class="colorfff svgShape"/><path d="M122.434 226.551c-.048-.015-4.967-1.473-9.875-.395l-.107-.489c5.038-1.109 10.077.39 10.127.406l-.145.478zM117.824 231.768c-.035-.012-3.542-1.2-8.281-1.2h-.012v-.5h.012c4.828 0 8.408 1.215 8.443 1.227l-.162.473z" fill="#000000" class="color000 svgShape"/><path fill="#bdbdbd" d="m119.433 111.586-1.144 1.407c.446-.42.83-.894 1.144-1.407z" class="colorff8e7b svgShape"/><path fill="#242424" d="m83.503 118.537-.2.368c.082-.118.145-.241.2-.368z" class="color043844 svgShape"/><path fill="#060606" d="M69.781 112.875c1.619-7.292 10.983-1.58 10.983-1.58s3.983 4.373 2.748 7.227c.87-1.625 3.708-7.087 3.71-7.226.152-3.995 24.327 4.185 30.967.208.89-.534 2.068-2.89 2.769-5.946-2.673 3.775-7.453 6.006-12.067 5.526-2.738-.287-5.305-1.422-7.841-2.488-2.54-1.066-5.173-2.092-7.927-2.132s-5.683 1.102-7.063 3.482c-.317.55-.561 1.166-1.048 1.573-1.075.903-2.78.314-3.759-.694-.978-1.009-1.561-2.35-2.555-3.343-2.307-2.298-6.38-2-8.926.03a8.867 8.867 0 0 0-.73.652c-.384 1.338-.308 2.93.74 4.71z" class="color040608 svgShape"/><path fill="#ffffff" d="M117.107 104.127c.21 0 .397-.146.443-.359.543-2.558.26-5.285-.798-7.677a12.646 12.646 0 0 0-5.14-5.759.454.454 0 0 0-.458.782 11.733 11.733 0 0 1 4.77 5.343c.98 2.22 1.243 4.75.74 7.123a.453.453 0 0 0 .443.547z" class="colorfff svgShape"/><path d="M104.926 131.75c-.484 0-.926-.181-1.221-.51a.25.25 0 0 1 .373-.334c.237.265.647.392 1.07.327.42-.063.76-.292.906-.612.156-.337.143-.757.131-1.128l-.311-10.057a.25.25 0 0 1 .242-.258c.128-.01.254.104.258.242l.311 10.057c.013.426.028.91-.176 1.353-.218.473-.699.809-1.285.897-.101.016-.2.023-.298.023zM98.048 134.318a.249.249 0 0 1-.06-.008c-1.883-.463-3.47-1.933-4.04-3.742a.25.25 0 0 1 .162-.314.249.249 0 0 1 .314.163c.52 1.647 1.967 2.985 3.683 3.408a.25.25 0 0 1-.06.493zM109.309 121.748c0 .968.797 1.744 1.79 1.744.987 0 1.792-.776 1.792-1.744 0-.96-.805-1.743-1.791-1.743-.994 0-1.791.783-1.791 1.743zM98.746 121.748c0 .968.797 1.744 1.79 1.744.986 0 1.791-.776 1.791-1.744 0-.96-.805-1.743-1.79-1.743-.994 0-1.791.783-1.791 1.743zM98.626 115.222c-.05.616.574 1.165 1.393 1.227l2.1.158c.82.061 1.522-.388 1.571-1.004.05-.616-.575-1.165-1.393-1.227l-2.101-.158c-.818-.061-1.522.388-1.57 1.004zM110.154 116.697c-.165.541.324 1.159 1.093 1.38l1.972.568c.768.222 1.524-.037 1.69-.578.164-.54-.325-1.159-1.094-1.38l-1.972-.568c-.768-.221-1.524.038-1.69.578z" fill="#000000" class="color000 svgShape"/><path fill="#ffffff" d="M162.397 205.743a1.625 1.625 0 0 1-1.21-2.708 93.442 93.442 0 0 0 7.053-8.923 1.625 1.625 0 1 1 2.668 1.855 96.77 96.77 0 0 1-7.3 9.235 1.62 1.62 0 0 1-1.211.541zM173.013 191.348a1.625 1.625 0 0 1-1.39-2.462 93.37 93.37 0 0 0 3.37-6.114 1.625 1.625 0 1 1 2.902 1.46 96.949 96.949 0 0 1-3.487 6.329 1.624 1.624 0 0 1-1.395.787z" class="colorfff svgShape"/><path fill="#9b9b9b" d="M148.396 101.204a.473.473 0 0 1-.143-.347V87.575c0-.15.044-.272.133-.368a.463.463 0 0 1 .356-.143h1.878c.15 0 .272.048.367.143a.5.5 0 0 1 .143.368v5.243h5.958v-5.243a.5.5 0 0 1 .143-.368.473.473 0 0 1 .346-.143h1.898c.15 0 .268.048.357.143a.523.523 0 0 1 .133.368v13.282a.493.493 0 0 1-.133.347.466.466 0 0 1-.357.143h-1.898a.473.473 0 0 1-.346-.143.473.473 0 0 1-.143-.347V95.41h-5.958v5.448a.473.473 0 0 1-.143.347.498.498 0 0 1-.367.143h-1.878a.473.473 0 0 1-.346-.143zM161.964 101.225a.419.419 0 0 1-.122-.307l.041-.183 4.896-13.16c.136-.34.381-.511.735-.511h2.245c.353 0 .598.17.734.51l4.897 13.161.04.183a.402.402 0 0 1-.132.307.43.43 0 0 1-.295.122h-1.816c-.286 0-.484-.129-.592-.388l-.938-2.468h-6.04l-.939 2.468c-.11.26-.306.388-.592.388h-1.815a.419.419 0 0 1-.307-.122zm4.367-5.101h4.61l-2.305-6.285-2.305 6.285zM178.94 101c-.87-.368-1.53-.85-1.98-1.449a3.42 3.42 0 0 1-.713-1.958c0-.109.04-.208.122-.296a.399.399 0 0 1 .307-.133h1.856c.15 0 .273.034.367.102.095.068.184.163.265.286.136.463.446.85.929 1.162.483.314 1.146.47 1.99.47.951 0 1.669-.16 2.151-.48.483-.318.725-.757.725-1.316 0-.367-.122-.672-.367-.917s-.615-.46-1.112-.643c-.497-.184-1.234-.405-2.214-.664-1.605-.38-2.781-.883-3.53-1.51-.747-.624-1.122-1.523-1.122-2.692 0-.79.218-1.493.653-2.112.435-.619 1.058-1.105 1.867-1.46.809-.353 1.751-.53 2.826-.53 1.13 0 2.105.198 2.928.592.823.395 1.448.887 1.877 1.479s.656 1.18.684 1.765a.424.424 0 0 1-.123.296.395.395 0 0 1-.306.133h-1.938c-.3 0-.504-.123-.613-.367-.068-.436-.332-.8-.795-1.092-.463-.292-1.034-.44-1.714-.44-.748 0-1.336.144-1.765.43-.428.285-.643.7-.643 1.244 0 .368.109.673.327.918.217.245.558.46 1.02.643.462.184 1.136.392 2.02.623 1.21.271 2.173.577 2.887.918.714.34 1.24.769 1.582 1.285.34.517.51 1.177.51 1.98 0 .884-.242 1.648-.725 2.295-.483.646-1.163 1.14-2.04 1.48-.878.339-1.895.509-3.05.509-1.225 0-2.272-.184-3.143-.55zM190.366 101.204a.473.473 0 0 1-.143-.347V87.575c0-.15.044-.272.133-.368a.463.463 0 0 1 .357-.143h1.878c.149 0 .272.048.367.143a.5.5 0 0 1 .143.368v5.243h5.957v-5.243a.5.5 0 0 1 .143-.368.473.473 0 0 1 .347-.143h1.898c.149 0 .268.048.357.143a.523.523 0 0 1 .133.368v13.282a.493.493 0 0 1-.133.347.466.466 0 0 1-.357.143h-1.898a.473.473 0 0 1-.347-.143.473.473 0 0 1-.143-.347V95.41h-5.957v5.448a.473.473 0 0 1-.143.347.498.498 0 0 1-.367.143h-1.878a.473.473 0 0 1-.347-.143zM208.403 101.204a.473.473 0 0 1-.143-.347V89.615h-3.774a.471.471 0 0 1-.348-.143.496.496 0 0 1-.142-.367v-1.53c0-.15.044-.272.132-.368a.467.467 0 0 1 .358-.143h10.426c.15 0 .272.048.367.143a.5.5 0 0 1 .143.368v1.53c0 .15-.048.272-.143.367a.494.494 0 0 1-.367.143h-3.755v11.242a.492.492 0 0 1-.132.347.467.467 0 0 1-.357.143h-1.918a.473.473 0 0 1-.347-.143zM214.81 101.225a.419.419 0 0 1-.123-.307l.041-.183 4.897-13.16c.136-.34.38-.511.734-.511h2.245c.354 0 .599.17.735.51l4.897 13.161.04.183a.402.402 0 0 1-.132.307.43.43 0 0 1-.296.122h-1.816c-.286 0-.484-.129-.592-.388l-.938-2.468h-6.04l-.938 2.468c-.11.26-.307.388-.593.388h-1.815a.419.419 0 0 1-.307-.122zm4.366-5.101h4.611l-2.305-6.285-2.306 6.285zM231.061 100.103c-1.041-.967-1.595-2.313-1.663-4.041-.014-.394-.02-1.026-.02-1.897s.006-1.503.02-1.898c.054-1.686.612-3.01 1.673-3.969 1.06-.958 2.517-1.438 4.367-1.438 1.251 0 2.328.215 3.234.643.904.429 1.587.96 2.05 1.592s.707 1.254.734 1.867a.418.418 0 0 1-.122.306.441.441 0 0 1-.326.122h-2.143c-.136 0-.238-.027-.306-.081a.695.695 0 0 1-.183-.266c-.19-.503-.525-.932-1-1.286-.476-.353-1.123-.53-1.938-.53-.953 0-1.697.256-2.235.765-.538.51-.82 1.303-.846 2.377-.014.395-.02.993-.02 1.796 0 .789.006 1.387.02 1.795.026 1.102.312 1.915.856 2.439.545.523 1.292.785 2.245.785.965 0 1.74-.258 2.325-.775.586-.517.878-1.293.878-2.326v-.633h-2.489a.471.471 0 0 1-.346-.143.47.47 0 0 1-.143-.346v-1.123a.47.47 0 0 1 .143-.347.471.471 0 0 1 .346-.143h4.897a.5.5 0 0 1 .367.143c.095.096.143.211.143.347v2.163c0 1.13-.252 2.112-.755 2.948-.503.837-1.218 1.48-2.142 1.928-.926.45-2.007.674-3.244.674-1.877 0-3.336-.483-4.377-1.448z" class="coloree4857 svgShape"/><path fill="#ffffff" d="M119.552 164.801a32.855 32.855 0 0 1 7.705 6.216c.653.714 1.711-.35 1.06-1.06a34.204 34.204 0 0 0-8.008-6.451c-.835-.488-1.591.807-.757 1.295zM111.148 161.481c1.216.291 2.411.648 3.588 1.072.91.327 1.302-1.122.399-1.447a33.795 33.795 0 0 0-3.588-1.071c-.939-.224-1.34 1.222-.4 1.446z" class="colorfff svgShape"/><path fill="#8f8f8f" d="M271.62 59.218c5.7 5.7 14.295 6.734 21.035 3.087a.02.02 0 0 1 .013-.003l8.549 1.323-1.323-8.543c3.85-7.122 2.5-16.3-4.048-21.964-6.412-5.547-16.091-5.754-22.711-.457-8.444 6.757-8.952 19.12-1.514 26.557z" class="colorfdd621 svgShape"/><path fill="#080808" d="m305.121 66.096-.859-4.97-.42-2.488c-.138-.854-.28-1.602-.417-2.543l-.002-.01.017-.032c2.353-4.528 2.951-9.892 1.694-14.791-1.237-4.918-4.445-9.235-8.641-11.99-4.2-2.762-9.448-3.872-14.408-3.069-2.478.4-4.879 1.256-7.036 2.527-2.153 1.276-4.064 2.957-5.66 4.89-3.144 3.918-4.719 9.027-4.388 14.043.273 5.04 2.63 9.856 6.22 13.382 3.614 3.526 8.585 5.638 13.67 5.751 2.536.08 5.103-.283 7.504-1.154.594-.23 1.203-.43 1.771-.724l.867-.41.054-.025c.104-.028.082-.002.112-.006l.119.02.237.04.475.082 3.795.658-3.817-.52-.477-.065-.238-.033-.12-.017c-.008-.007-.07 0-.006-.011l-.054.027-.862.437c-.566.312-1.175.53-1.77.78-2.407.946-5.005 1.39-7.598 1.377-5.203.005-10.361-2.099-14.164-5.68-3.796-3.573-6.305-8.59-6.606-13.847-.375-5.231 1.241-10.587 4.515-14.713 1.66-2.034 3.646-3.812 5.924-5.132a21.187 21.187 0 0 1 7.388-2.608c5.191-.811 10.659.378 15.026 3.283 4.37 2.896 7.585 7.471 8.786 12.552 1.228 5.072.493 10.57-2.038 15.094l.015-.042c.12.721.236 1.634.354 2.442l.352 2.497.686 4.998z" class="color100000 svgShape"/><path fill="#ffffff" d="M294.304 41.465a1.007 1.007 0 0 0-.73-.282h-2.622l.492-3.34a.87.87 0 0 0-.25-.737.967.967 0 0 0-.701-.284h-1.037a.966.966 0 0 0-.7.283 1.269 1.269 0 0 0-.34.65l-.506 3.428h-3.88l.491-3.34a.87.87 0 0 0-.25-.737.966.966 0 0 0-.7-.284h-1.037a.968.968 0 0 0-.7.283c-.17.169-.283.38-.341.65l-.506 3.428h-3.455c-.291 0-.539.092-.736.273a.98.98 0 0 0-.308.74v.977c0 .297.106.553.308.74.197.181.445.273.736.273h2.989l-.693 4.742h-3.088c-.293 0-.54.093-.736.274a.977.977 0 0 0-.309.741v.975c0 .299.107.555.308.74.196.182.444.275.737.275h2.648l-.52 3.338a.854.854 0 0 0 .276.749c.195.178.439.273.706.273h1.037a.969.969 0 0 0 .7-.283c.168-.168.281-.378.341-.65l.506-3.427h3.877l-.52 3.338a.851.851 0 0 0 .276.749c.194.178.438.273.706.273h1.036a.97.97 0 0 0 .702-.283c.167-.17.28-.38.34-.65l.505-3.427h3.424c.294 0 .547-.099.731-.284.186-.186.284-.438.284-.73v-.976c0-.292-.098-.545-.283-.73a1.004 1.004 0 0 0-.732-.285h-2.957l.692-4.742h3.058c.293 0 .545-.097.731-.283a.996.996 0 0 0 .283-.73v-.976a.996.996 0 0 0-.283-.732zm-6.861 2.721-.693 4.742h-3.85l.693-4.742h3.85z" class="colorfff svgShape"/></svg>