<svg xmlns="http://www.w3.org/2000/svg" enable-background="new 0 0 850 850" viewBox="0 0 850 850"><path fill="#5d5d5d" d="M445.06,654.29H291c-26.34,0-47.69-21.35-47.69-47.69V224.94c0-26.34,21.35-47.68,47.68-47.68h154.06     c26.34,0,47.68,21.35,47.68,47.68V606.6C492.75,632.94,471.4,654.29,445.06,654.29z" class="color5d5d5d svgShape"/><path fill="#5d5d5d" d="M457.8,642.06H278.27c-15.77,0-28.56-12.79-28.56-28.56V218.04c0-15.77,12.79-28.56,28.56-28.56H457.8     c15.77,0,28.56,12.79,28.56,28.56V613.5C486.35,629.27,473.57,642.06,457.8,642.06z" class="color5d5d5d svgShape"/><path fill="#5d5d5d" d="M412.9,208.11h-89.59c-7.55,0-13.67-6.12-13.67-13.67v-5.38h116.94v5.38     C426.57,201.99,420.45,208.11,412.9,208.11z" class="color5d5d5d svgShape"/><path fill="#e3e3e3" d="M372.8,197.46c0-2.59-2.1-4.7-4.7-4.7s-4.7,2.1-4.7,4.7c0,2.59,2.1,4.7,4.7,4.7S372.8,200.05,372.8,197.46z     " class="colord3eef4 svgShape"/><circle cx="387.99" cy="197.46" r="3.34" fill="#e3e3e3" class="colord3eef4 svgShape"/><path fill="#e3e3e3" d="M352.08,197.46c0-2.59-2.1-4.7-4.7-4.7c-2.59,0-4.7,2.1-4.7,4.7c0,2.59,2.1,4.7,4.7,4.7     C349.97,202.15,352.08,200.05,352.08,197.46z" class="colord3eef4 svgShape"/><rect width="219.05" height="406.6" x="258.51" y="212.47" fill="#eaeaea" class="colord9f5fc svgShape"/><polygon fill="#ffffff" points="281.39 619.07 332.48 619.07 477.56 213.48 477.56 212.47 426.83 212.47" class="colorfff svgShape"/><polygon fill="#ffffff" points="403.07 619.07 477.56 341.87 477.56 250.99 378.65 619.07" class="colorfff svgShape"/><polygon fill="#ffffff" points="258.51 537.81 378.65 211.97 355.95 211.97 258.51 476.25" class="colorfff svgShape"/><path fill="#a7a7a7" d="M454.75,375.75c-31.61,0-57.24,19.09-57.24,42.66c0,15.26,10.79,28.61,26.96,36.14l-15.84,27.33      l37.07-21.41c2.95,0.35,5.96,0.59,9.04,0.59c31.61,0,57.23-19.1,57.23-42.65C511.99,394.84,486.37,375.75,454.75,375.75z" class="color4f9cff svgShape"/><path fill="#a7a7a7" d="M445.71 458.84c2.95.35 5.96.59 9.04.59 31.24 0 56.59-18.66 57.18-41.84.01.26.06.54.06.81 0 23.55-25.62 42.65-57.23 42.65-3.08 0-6.09-.24-9.04-.59l-37.07 21.41 1.42-2.45L445.71 458.84zM424.48 452.92l-.73 1.26c-15.76-7.6-26.23-20.75-26.23-35.78 0-.22.04-.43.04-.65C398.01 432.61 408.66 445.55 424.48 452.92z" class="color4f9cff svgShape"/><path fill="#ffffff" d="M436.66 418.39c0 4.86-3.94 8.79-8.79 8.79-4.85 0-8.78-3.93-8.78-8.79 0-4.84 3.94-8.78 8.78-8.78C432.72 409.61 436.66 413.55 436.66 418.39zM463.54 418.39c0 4.86-3.94 8.79-8.79 8.79-4.85 0-8.78-3.93-8.78-8.79 0-4.84 3.93-8.78 8.78-8.78C459.6 409.61 463.54 413.55 463.54 418.39zM490.42 418.39c0 4.86-3.93 8.79-8.78 8.79-4.85 0-8.78-3.93-8.78-8.79 0-4.84 3.94-8.78 8.78-8.78C486.49 409.61 490.42 413.55 490.42 418.39z" class="colorfff svgShape"/><path fill="#d2d2d2" d="M449.53 411.38c-1.12 1.47-1.82 3.29-1.82 5.29 0 4.86 3.93 8.79 8.78 8.79 1.96 0 3.76-.67 5.23-1.76-1.61 2.1-4.12 3.48-6.97 3.48-4.85 0-8.78-3.93-8.78-8.79C445.97 415.51 447.38 412.97 449.53 411.38zM476.41 411.38c-1.12 1.48-1.82 3.29-1.82 5.29 0 4.86 3.94 8.79 8.79 8.79 1.97 0 3.76-.66 5.22-1.75-1.61 2.1-4.11 3.48-6.96 3.48-4.85 0-8.78-3.93-8.78-8.79C472.85 415.51 474.26 412.98 476.41 411.38z" class="colore4cdc0 svgShape"/><path fill="#ffffff" d="M435.66,420.02c0-4.85-3.94-8.78-8.79-8.78c-2.84,0-5.33,1.37-6.94,3.46c1.4-3,4.42-5.09,7.94-5.09     c4.85,0,8.79,3.94,8.79,8.78c0,2.02-0.71,3.86-1.85,5.34C435.34,422.6,435.66,421.35,435.66,420.02z" class="colorfff svgShape"/><path fill="#535353" d="M462.54 420.02c0-4.85-3.94-8.78-8.79-8.78-2.84 0-5.33 1.37-6.94 3.45 1.4-2.99 4.42-5.08 7.94-5.08 4.85 0 8.79 3.94 8.79 8.78 0 2.02-.71 3.86-1.85 5.33C462.23 422.6 462.54 421.35 462.54 420.02zM489.42 420.02c0-4.85-3.93-8.78-8.78-8.78-2.84 0-5.34 1.37-6.94 3.46 1.4-3 4.42-5.09 7.94-5.09 4.85 0 8.78 3.94 8.78 8.78 0 2.02-.71 3.86-1.85 5.34C489.1 422.6 489.42 421.35 489.42 420.02z" class="color694f3d svgShape"/><path fill="#808080" d="M457.16,435.13c5.71,0,10.34-4.63,10.34-10.34h-20.68C446.83,430.5,451.45,435.13,457.16,435.13z" class="colore81919 svgShape"/><path fill="#9c9c9c" d="M458.56,319.6h103.38c12.61,0,22.83,10.22,22.83,22.83v82.37c0,12.62-10.22,22.83-22.83,22.83h-24.95      l20.06,34.62l-63.07-34.62h-35.42c-12.61,0-22.83-10.21-22.83-22.83v-82.37C435.73,329.82,445.95,319.6,458.56,319.6z" class="colore8505b svgShape"/><path fill="#d2d2d2" d="M538.73 445.43h24.95c6.82 0 12.93-3.01 17.11-7.75-4.11 6-11.02 9.95-18.85 9.95H540L538.73 445.43zM441.45 327.36c-2.51 3.67-3.98 8.09-3.98 12.87v82.37c0 12.61 10.22 22.83 22.83 22.83h35.42l58.65 32.19 2.68 4.63-63.07-34.62h-35.42c-12.61 0-22.83-10.21-22.83-22.83v-82.37C435.73 336.65 437.9 331.38 441.45 327.36z" class="colorc0dde4 svgShape"/><path fill="#9c9c9c" d="M458.56,319.6h103.38c12.61,0,22.83,10.22,22.83,22.83v2.73c0-12.61-10.22-22.83-22.83-22.83H458.56      c-12.61,0-22.83,10.22-22.83,22.83v-2.73C435.73,329.82,445.95,319.6,458.56,319.6z" class="colore8505b svgShape"/><polygon fill="#ffffff" points="538.57 450.36 557.06 482.25 554.74 480.98 536.99 450.36" class="colorfff svgShape"/><g><polygon fill="#ffffff" points="466.25 359.79 456.49 365.28 463.78 374.96" class="colorfff svgShape"/><polygon fill="#ffffff" points="463.78 373.41 465.97 359.94 466.25 359.79 463.78 374.96 456.49 365.28 457.31 364.81" class="colorfff svgShape"/><polygon fill="#ffffff" points="456.91 365.83 456.49 365.28 466.25 359.79 466.11 360.65" class="colorfff svgShape"/><path fill="#ffffff" d="M464.03,370.61c0-15.2,12.32-27.51,27.52-27.51c15.18,0,27.5,12.31,27.5,27.51      c6.72,34.56,46.38,30.48,46.38,30.48c-66.61,42.32-95.19,11.81-99.82-8.92C462.85,379.8,464.03,370.61,464.03,370.61z" class="colorfff svgShape"/><path fill="#ffffff" d="M464.03,370.61c0-5.34,1.55-10.32,4.18-14.54c-1.81,3.67-2.85,7.77-2.85,12.14c0,0-1.18,9.19,1.58,21.56      c4.53,20.3,32.03,49.91,95.67,11.47c1.76-0.03,2.81-0.14,2.81-0.14c-66.61,42.32-95.19,11.81-99.82-8.92      C462.85,379.8,464.03,370.61,464.03,370.61z" class="colorfff svgShape"/><path fill="#ffffff" d="M517.71,371.81c0-15.2-12.32-27.51-27.5-27.51c-6.62,0-12.68,2.34-17.42,6.23      c4.91-4.59,11.5-7.43,18.76-7.43c15.18,0,27.5,12.31,27.5,27.51c6.72,34.56,46.38,30.48,46.38,30.48      c-0.7,0.45-1.37,0.83-2.05,1.26C558.08,402.69,523.91,403.68,517.71,371.81z" class="colorfff svgShape"/><path fill="#ffffff" d="M477.9,362.1c0,1.99,1.63,3.62,3.63,3.62c2,0,3.63-1.64,3.63-3.62c0-2-1.63-3.64-3.63-3.64       C479.53,358.47,477.9,360.1,477.9,362.1z" class="colorfff svgShape"/><path fill="#ffffff" d="M479.31,359.3c-0.55,0.63-0.91,1.43-0.91,2.33c0,2,1.63,3.62,3.64,3.62c0.85,0,1.59-0.34,2.21-0.83      c-0.66,0.78-1.62,1.3-2.72,1.3c-2,0-3.63-1.64-3.63-3.62C477.9,360.95,478.47,359.96,479.31,359.3z" class="colorfff svgShape"/><path fill="#ffffff" d="M481.53 359.18c-1.88 0-3.38 1.45-3.56 3.28-.01-.12-.07-.22-.07-.35 0-2 1.63-3.64 3.63-3.64 2 0 3.63 1.64 3.63 3.64 0 .13-.06.23-.07.35C484.9 360.63 483.41 359.18 481.53 359.18zM522.91 375.63c0 0 13.98 16.22 31.47 11.49 0 0-4.41 11-17.53 9.97 0 0 8.49 4.37 12.94 4.86 0 0-14.61 6.23-25.61 2.54 0 0 3.89 4.76 11.01 4.05 0 0-23.24 4.94-33.49-10.81C491.46 381.98 511.43 366.81 522.91 375.63z" class="colorfff svgShape"/><path fill="#ffffff" d="M551.8 391.14c-2.08 2.45-5.57 5.22-10.91 5.87-1.61-.74-2.71-1.32-2.71-1.32C544.69 396.2 549.05 393.74 551.8 391.14zM503.64 378.02c-3.81 4.71-5.09 11.45-.62 18.32 6.63 10.19 18.67 11.71 26.36 11.52 1.6.56 3.52.92 5.8.69 0 0-23.24 4.94-33.49-10.81C496.77 390.14 498.88 382.72 503.64 378.02z" class="colorfff svgShape"/><path fill="#ffffff" d="M528.45 405.45c-1.93-1.12-2.95-2.35-2.95-2.35 7.97 2.67 17.8.14 22.63-1.46.59.14 1.16.26 1.67.32C549.79 401.95 538.62 406.72 528.45 405.45zM522.91 377.3c-9.06-6.96-23.34 1.03-23.96 12.45-.79-12.29 14.46-21.41 23.96-14.12 0 0 13.98 16.22 31.47 11.49 0 0-.32.77-1 1.87C536.36 392.85 522.91 377.3 522.91 377.3z" class="colorfff svgShape"/><path fill="#ffffff" d="M540.27 398.72c2.86 1.3 6.9 2.94 9.53 3.23 0 0-1.08.46-2.84 1.04-4.49-1.34-10.1-4.23-10.1-4.23C538.08 398.85 539.2 398.82 540.27 398.72zM524.18 406.17c1 .33 2.03.56 3.08.74 1.86 1.05 4.51 1.98 7.93 1.63 0 0-2.7.55-6.63.69C525.69 408.02 524.18 406.17 524.18 406.17z" class="colorfff svgShape"/></g><g><path fill="#a7a7a7" d="M565.09,284.57c-0.99,0-1.99-0.29-2.87-0.88c-9.23-6.27-21.16-6.27-30.4,0c-2.32,1.57-5.51,0.98-7.09-1.36       c-1.59-2.33-0.98-5.51,1.35-7.1c12.72-8.64,29.16-8.64,41.88,0c2.34,1.59,2.94,4.77,1.35,7.1       C568.33,283.79,566.72,284.57,565.09,284.57z" class="color4f9cff svgShape"/><path fill="#a7a7a7" d="M575.31,269.1c-0.99,0-1.99-0.29-2.87-0.88c-15.44-10.49-35.39-10.49-50.83,0       c-2.32,1.58-5.51,0.98-7.09-1.36c-1.59-2.34-0.98-5.51,1.36-7.1c18.92-12.86,43.39-12.86,62.31,0c2.33,1.59,2.94,4.76,1.36,7.1       C578.55,268.31,576.94,269.1,575.31,269.1z" class="color4f9cff svgShape"/><path fill="#a7a7a7" d="M585.52 253.62c-.99 0-1.99-.29-2.87-.88-21.64-14.71-49.62-14.71-71.27 0-2.32 1.58-5.51.98-7.1-1.35-1.58-2.34-.98-5.52 1.36-7.1 25.13-17.08 57.61-17.08 82.75 0 2.34 1.59 2.94 4.76 1.36 7.1C588.76 252.83 587.16 253.62 585.52 253.62zM526.08 276.82c12.72-8.64 29.16-8.64 41.88 0 1.21.83 1.95 2.08 2.16 3.42.29-1.89-.48-3.86-2.16-5.01-12.72-8.64-29.16-8.64-41.88 0-1.68 1.15-2.45 3.12-2.16 5.01C524.14 278.9 524.87 277.64 526.08 276.82z" class="color4f9cff svgShape"/><path fill="#a7a7a7" d="M515.87,261.34c18.92-12.86,43.39-12.86,62.31,0c1.21,0.82,1.95,2.08,2.16,3.43     c0.29-1.89-0.48-3.87-2.16-5.01c-18.92-12.86-43.39-12.86-62.31,0c-1.69,1.14-2.46,3.12-2.16,5.01     C513.92,263.43,514.65,262.17,515.87,261.34z" class="color4f9cff svgShape"/><path fill="#a7a7a7" d="M505.65 245.86c25.13-17.08 57.61-17.08 82.75 0 1.22.83 1.95 2.08 2.16 3.43.29-1.89-.48-3.86-2.16-5.01-25.13-17.08-57.61-17.08-82.75 0-1.69 1.14-2.45 3.12-2.16 5.01C503.7 247.95 504.43 246.69 505.65 245.86zM569.37 276.66c.62 1.53.5 3.34-.5 4.81-.99 1.45-2.59 2.24-4.23 2.24-.99 0-1.99-.28-2.87-.88-9.24-6.27-21.16-6.27-30.4 0-2.32 1.58-5.51.98-7.09-1.35-.02-.04-.04-.08-.06-.11.13.33.3.66.51.98 1.59 2.34 4.77 2.93 7.09 1.36 9.23-6.27 21.16-6.27 30.4 0 .88.59 1.87.88 2.87.88 1.63 0 3.24-.78 4.23-2.24C570.51 280.57 570.46 278.34 569.37 276.66zM579.58 261.19c.63 1.53.5 3.33-.5 4.8-.99 1.46-2.6 2.24-4.23 2.24-.99 0-1.99-.29-2.87-.89-15.44-10.49-35.39-10.49-50.83 0-2.33 1.59-5.51.99-7.1-1.36-.02-.03-.04-.08-.06-.11.13.34.3.67.51.98 1.59 2.34 4.77 2.94 7.09 1.36 15.44-10.49 35.39-10.49 50.83 0 .88.59 1.88.88 2.87.88 1.63 0 3.24-.78 4.23-2.24C580.73 265.1 580.68 262.87 579.58 261.19z" class="color4f9cff svgShape"/><path fill="#a7a7a7" d="M589.8 245.71c.63 1.53.5 3.33-.5 4.81-.99 1.45-2.6 2.24-4.23 2.24-.99 0-1.99-.29-2.87-.89-21.65-14.71-49.62-14.71-71.27 0-2.32 1.58-5.51.99-7.09-1.36-.02-.03-.04-.07-.06-.11.14.34.3.67.51.98 1.59 2.33 4.77 2.93 7.1 1.35 21.65-14.71 49.62-14.71 71.27 0 .88.6 1.88.88 2.87.88 1.63 0 3.24-.79 4.23-2.24C590.95 249.62 590.9 247.39 589.8 245.71zM554.4 291.14c0 4.07-3.3 7.37-7.37 7.37-4.07 0-7.37-3.3-7.37-7.37 0-4.07 3.3-7.37 7.37-7.37C551.09 283.77 554.4 287.07 554.4 291.14z" class="color4f9cff svgShape"/><path fill="#a7a7a7" d="M553.39,287.48c0.35,0.86,0.56,1.81,0.56,2.8c0,4.07-3.3,7.37-7.37,7.37c-2.73,0-5.09-1.51-6.36-3.71     c1.1,2.68,3.73,4.57,6.81,4.57c4.07,0,7.37-3.3,7.37-7.37C554.4,289.8,554.01,288.56,553.39,287.48z" class="color4f9cff svgShape"/><path fill="#a7a7a7" d="M540.13,291.94c0-4.07,3.3-7.37,7.37-7.37c2.48,0,4.66,1.23,5.99,3.1c-1.24-2.32-3.66-3.91-6.47-3.91     c-4.07,0-7.37,3.3-7.37,7.37c0,1.6,0.52,3.06,1.38,4.27C540.48,294.37,540.13,293.2,540.13,291.94z" class="color4f9cff svgShape"/></g><g><path fill="#cbcbcb" d="M733.83,531.69c0,0,2.96-11.15,6-27.73h-40.2l5.19,138.72c-1.23,6.62-3.35,14.29-6.87,17.93        c-0.5,0.51-0.26,1.49,0.39,1.52c3.02,0.14,8.3,0.32,9.71-0.12c1.49-0.45,8.45-10.84,11.94-16.16        c1.47-2.24,2.22-4.95,2.17-7.71c-0.01-0.25-0.02-0.52-0.03-0.78C726.74,626.98,738.35,593.88,733.83,531.69z" class="colorf7a3a0 svgShape"/><path fill="#838383" d="M712.12,530.88c0.42-0.12,0.73-0.11,1-0.06c0.27,0.06,0.51,0.16,0.7,0.32c0.2,0.15,0.35,0.36,0.46,0.62        c0.11,0.26,0.19,0.56,0.16,1c-0.42,0.13-0.73,0.12-1.01,0.06c-0.27-0.06-0.51-0.16-0.7-0.32c-0.19-0.16-0.35-0.36-0.46-0.62        C712.17,531.62,712.09,531.32,712.12,530.88z" class="colord45d33 svgShape"/><path fill="#000000" d="M721.72,638.09c-0.04,0.53-0.07,1.1-0.09,1.73c-0.04,1.15-2.92,5.31-5.66,9.07        c-4.43,6.09-10.3,10.71-16.95,13.34c-1.67-0.37-1.06-1.61-1.06-1.61c0.68-0.3,2.01-2.69,2.01-2.69        c-9.21,1.91-10.62,5.57-10.35,8.09c0.17,1.55,1.34,2.7,2.74,2.74c4.27,0.12,15.03,0.29,18.1-0.9        c3.86-1.5,14.08-18.02,14.5-21.37c0.25-2.04-0.9-5.78-1.83-8.39H721.72z" class="color171c27 svgShape"/><polygon fill="#000000" points="724.19 668.32 721.18 668.32 720.37 644.91 725.01 645.9" class="color171c27 svgShape"/><path fill="#cbcbcb" d="M683.09,503.96h-40.76l-17.67,139.09c-1.24,6.54-3.35,13.99-6.8,17.56c-0.5,0.51-0.26,1.49,0.39,1.52        c3.02,0.14,8.3,0.32,9.71-0.12c1.49-0.45,8.45-10.84,11.94-16.16c1.47-2.24,2.22-4.95,2.17-7.71        c-0.01-0.25-0.02-0.51-0.03-0.76c6.07-9.13,24.65-41.69,30.51-105.7C672.53,531.69,677.32,520.54,683.09,503.96z" class="colorf7a3a0 svgShape"/><path fill="#838383" d="M651.74,530.08c0.64,0.16,1.15,0.43,1.62,0.74c0.46,0.31,0.88,0.66,1.25,1.06        c0.37,0.39,0.69,0.83,0.97,1.32c0.28,0.48,0.51,1.01,0.63,1.67c-0.63-0.14-1.14-0.41-1.61-0.73        c-0.47-0.31-0.89-0.67-1.26-1.07c-0.38-0.4-0.7-0.85-0.98-1.34C652.08,531.24,651.84,530.71,651.74,530.08z" class="colord45d33 svgShape"/><path fill="#000000" d="M641.62,638.09c-0.04,0.53-0.07,1.1-0.09,1.73c-0.04,1.15-2.92,5.31-5.66,9.07        c-4.43,6.09-10.3,10.71-16.95,13.34c-1.67-0.37-1.07-1.61-1.07-1.61c0.68-0.3,2.01-2.69,2.01-2.69        c-9.21,1.91-10.62,5.57-10.35,8.09c0.17,1.55,1.34,2.7,2.74,2.74c4.27,0.12,15.03,0.29,18.1-0.9        c3.86-1.5,14.08-18.02,14.5-21.37c0.25-2.04-0.9-5.78-1.83-8.39H641.62z" class="color171c27 svgShape"/><polygon fill="#000000" points="644.1 668.32 641.08 668.32 640.27 644.91 644.92 645.9" class="color171c27 svgShape"/><g><path fill="#808080" d="M666.3,374.46c0,0-7.99,18.92-12.19,36.58c-4.2,17.66-15.56,114.79-15.56,114.79h99.65       c0,0,13.03-76.1,9.25-100.07c-3.78-23.97-14.72-50.04-14.72-50.04L666.3,374.46z" class="color442cd3 svgShape"/><path fill="#808080" d="M727.69 380.35c1.74 5.78 3.31 11.61 4.94 17.43 1.57 5.83 3.11 11.67 4.6 17.52.75 2.93 1.48 5.86 2.14 8.81.33 1.48.66 2.95.92 4.48.05.4.12.8.15 1.2l.01 1.15c0 .77.03 1.55-.01 2.3-.2 6.07-.71 12.09-1.19 18.11-1.13 12.03-2.35 24.04-3.76 36.03l-2.2 17.98c-.81 5.98-1.57 11.97-2.45 17.94l1.61-18.04 1.71-18.02c1.13-12.02 2.37-24.02 3.36-36.04.53-6 1.09-12.02 1.34-18.01.04-.75.02-1.48.03-2.22l0-1.11c-.03-.36-.09-.7-.13-1.05-.24-1.44-.55-2.92-.86-4.39l-1.97-8.82L727.69 380.35zM689.26 424.15c1.2 1.76 2.28 3.56 3.35 5.36l3.16 5.41 3.08 5.46c1.02 1.83 2.02 3.67 2.93 5.6-1.5-1.51-2.84-3.16-4.08-4.87-1.25-1.71-2.38-3.5-3.44-5.32-1.04-1.84-2.01-3.72-2.86-5.66C690.56 428.19 689.81 426.21 689.26 424.15zM685.35 429.34c1.21 6.79 2.87 13.39 5.3 19.74 2.39 6.36 5.51 12.41 9.1 18.29-4.7-5.07-8.25-11.2-10.72-17.68C686.59 443.19 685.19 436.25 685.35 429.34z" class="color442cd3 svgShape"/></g><g><path fill="#cbcbcb" d="M669.66,283.22c0,0-14.72,10.09-17.24,20.6c-2.52,10.51-17.24,30.69-17.24,30.69l-28.15-43.69        c-0.76-3.41-2.12-10.34-2.12-10.34c-0.95-7.73-3-9.15-3.78-8.99c-0.79,0.16,0.16,8.99-0.32,9.62        c-0.47,0.63-2.21-0.47-2.21-0.47s-10.72-13.4-11.51-12.93c-0.79,0.47,3.94,13.09,3.94,13.09s-7.41-9.3-8.2-8.99        c-0.79,0.32-0.47,3.63-0.47,3.63s-0.87,0.63-1.02,1.58c-0.16,0.95,7.65,11.19,7.65,11.19s-8.04-6.46-8.2-5.36        c-0.16,1.1,6.46,10.09,7.25,11.04c0.79,0.95,6.36,6.57,6.36,6.57s22.06,59.99,40.15,60.44c25.23,0.63,43.94-50.77,43.94-50.77        L669.66,283.22z" class="colorf7a3a0 svgShape"/><path fill="#838383" d="M634.98,334.52c0.45,0.29,0.74,0.63,0.97,0.98c0.23,0.35,0.4,0.72,0.5,1.11         c0.11,0.38,0.15,0.79,0.13,1.21c-0.02,0.42-0.09,0.85-0.34,1.33c-0.45-0.29-0.74-0.63-0.97-0.98         c-0.23-0.35-0.4-0.72-0.5-1.11c-0.11-0.39-0.15-0.79-0.13-1.21C634.66,335.43,634.74,335,634.98,334.52z" class="colord45d33 svgShape"/><path fill="#808080" d="M680.91,279.62c0,0-14.35,4.18-21.44,12.22c-7.1,8.04-20.97,36.26-20.97,36.26s-3.31,1.42-3.15,3.15        c0.16,1.73,8.36,27.44,8.36,27.44s1.1,2.52,2.68,2.21c1.58-0.32,24.12-22.39,24.12-22.39L680.91,279.62z" class="colorffc800 svgShape"/><rect width="20.04" height="45.44" x="685.81" y="252.39" fill="#cbcbcb" transform="rotate(-180 695.831 275.11)" class="colorf7a3a0 svgShape"/><path fill="#838383" d="M685.81,271.36v3.75c1.41,0.06,3.48-0.07,5.87-0.91c2.36-0.82,5.04-2.33,7.75-5        c2.64-2.61,4.77-6.77,6.42-11.31v-2.68c-1.59,4.13-3.59,7.86-6.03,10.27c-2.71,2.68-5.39,4.19-7.75,5        C689.45,271.4,687.23,271.47,685.81,271.36z" class="colord45d33 svgShape"/><path fill="#808080" d="M680.91,279.62c2.05-2.68,4.91-3.43,4.91-3.43v4.02c0,0,2.5,5.4,8.89,5.16         c6.39-0.24,11.12-5.05,11.12-5.05v-3.94c0,0,3.47,0.79,3.63,3.47c0,0,15.29,3.39,16.87,4.73         c1.58,1.34,8.51,14.98,10.88,22.55c2.37,7.57-6.46,63.38-6.46,63.38s3.63,2.52,5.05,7.41c0,0-42.26,6.62-74.26,0         c0,0,1.26-5.83,4.57-8.36c0,0-6.62-75.21-6.62-77.73c0-2.52,7.1-8.99,9.3-9.93C670.98,280.96,680.91,279.62,680.91,279.62z" class="colorffc800 svgShape"/><path fill="#cbcbcb" d="M737.52,347.24c-7.58-2.96-15.15-5.97-22.76-8.88l2.26,8.04l-42.29-3.68l-0.98-1.01      c0,0-2.27-2.98-4.11-3.44c0,0-1.18,2.34-5.67,2.68l-0.01-2.93c0,0-7.03,1.15-7.6,2.19c-0.58,1.04,0.69,2.99,0.69,2.99      s-1.27,2.19-0.81,4.38c0,0-0.69,3.34,0.46,4.38c0,0-0.92,2.65,0.12,3.69c0,0,4.03,4.03,4.84,4.38c0.49,0.21,5.56-0.05,9.47-0.28      c25.05,12.64,70.5,12.07,73.79,1.78c0.74-2.31,0.85-6.43,0.47-11.6C742.63,349.06,739.96,348.19,737.52,347.24z" class="colorf7a3a0 svgShape"/><path fill="#808080" d="M746.98,354.91c-0.63-7.73-7.25-42.1-8.36-45.73c-1.1-3.63-8.67-22.07-12.3-24.6      c-3.63-2.52-16.87-4.73-16.87-4.73l-0.07,0.18c6.07,3.25,9.15,8.89,6.41,16.04c-1.76,4.59-4.97,8.26-8.12,11.95      c5.2,0.71,10.38,2.36,12.21,7.94c2.21,6.76-2.94,11.55-5.46,17.21c-0.36,0.82-0.95,1.46-1.65,1.95l1.25,4.48      c-0.79,1.42,1.1,6.15,1.1,6.15c3,0.16,30.27,17.82,30.27,17.82S747.61,362.63,746.98,354.91z" class="colorffc800 svgShape"/></g><g><path fill="#cbcbcb" d="M671.81,224.25c1.8-3.54,11.47-6.74,20.99-4.95c9.53,1.72,17.41,8.16,17.83,12.11       c0.16,1.5-0.12,4.95-0.85,9.15c0.91-0.41,2.16-0.67,3.91-0.59c6.22,0.27,1.84,21.97-7.27,13.68c-1.68,4.74-3.86,9.12-6.6,11.83       c-2.71,2.68-5.39,4.19-7.75,5c-4.55,1.59-7.9,0.64-7.9,0.64l-1.81-0.33c0,0-4.37-0.39-8.51-4.69       c-1.46-1.52-2.89-3.53-4.09-6.17c-1.11-2.47-1.68-5.59-1.88-8.99C667.25,240.37,670.28,227.29,671.81,224.25z" class="colorf7a3a0 svgShape"/><path fill="#000000" d="M719.07,239.34c-0.43-6.79-6.41-11.78-7.64-12.75c0-1.58-0.25-3.91-1.66-4.91       c-2.01-1.44-29.91-13.08-39.04-0.49c-1.4,1.92-2.09,4.28-2.23,6.65l-0.29,5.37c-0.04,0.71-0.11,1.43-0.23,2.13       c-0.82,5.05-4.34,27.06-5.03,36.79l22.88,0.2v-0.97c-1.05-0.08-1.64-0.24-1.64-0.24l-1.82-0.34c0,0-4.38-0.39-8.51-4.69       c-1.46-1.51-2.89-3.52-4.09-6.17c-1.11-2.46-1.69-5.59-1.88-8.98c-0.21-3.49-0.01-7.24,0.39-10.83       c8.49-3.31,17.37-12.84,17.37-12.84s3.39,13.8,17.11,14.82c0,0,0.55,5.36,1.5,5.36c0.57,0,3.46-3.87,5.67-6.94       c0.91-0.37,2.11-0.61,3.78-0.54c6.22,0.28,1.84,21.97-7.28,13.67c-0.18,0.5-0.37,1.01-0.57,1.51v17.56l10.55-0.11       C716.39,272.6,719.55,246.91,719.07,239.34z" class="color171c27 svgShape"/></g></g><g><polygon fill="#cbcbcb" points="144.26 350.34 154.2 315.38 144.14 305.31" class="colorf7a3a0 svgShape"/><path fill="#cbcbcb" d="M144.14 305.31l-7.01-7.02c-2.39-.89-4.6-2.22-6.58-3.92v10.89l13.7 45.08L144.14 305.31zM137.14 298.29l7.01 7.02v-5.7C141.7 299.61 139.36 299.12 137.14 298.29z" class="colorf7a3a0 svgShape"/><path fill="#cbcbcb" d="M144.14,299.61v5.7l10.06,10.07l2.71-10.2v-10.17C153.24,297.89,148.86,299.61,144.14,299.61L144.14,299.61     z" class="colorf7a3a0 svgShape"/><path fill="#cbcbcb" d="M168.99,263.4c-0.07-0.06-0.11-0.07-0.14-0.07c-0.56,0-1.39,0.67-2.21,1.79l-0.92,1.27l0.44-1.49     c0,0-6.71-5.75-14.1-10.73c-1.93-1.3-3.01-3.04-3.61-4.91c-1.17,2.01-2.59,3.84-4.31,5.15l0,0c-6.14,4.69-19.32,9.58-21.98,10.54     l0.42,1.43l-0.93-1.25c-0.81-1.14-1.65-1.8-2.22-1.8c-0.03,0-0.06,0.01-0.13,0.07c-0.61,0.63-0.7,3.66-0.32,9.05     c0.34,4.72,3.3,9.15,4.93,9.15c0.15-0.02,0.26-0.06,0.38-0.14l0.34-0.26l0.09,0.41c1.11,5.59,3.88,10.24,7.6,13.44     c1.72,1.48,3.65,2.64,5.72,3.41c1.93,0.72,3.97,1.14,6.09,1.15l0.01,0c4.1,0,7.9-1.49,11.1-4c4.07-3.19,7.13-8.05,8.3-13.99     l0.1-0.41l0.36,0.26c0.11,0.08,0.22,0.13,0.41,0.14c1.6,0,4.55-4.43,4.89-9.15C169.69,267.07,169.59,264.03,168.99,263.4z" class="colorf7a3a0 svgShape"/><path fill="#646464" d="M129.98,661.51c-4.1,0-7.19-3.48-9.28-7.03l-1.07,3.45c-1.16,3.69-0.91,8.05,1.76,10.83     c6.23,6.47,18.26,3.12,18.26,3.12c1.64-2.68,2.21-5.88,1.57-8.95l-1.49-7.14C138.15,659.24,135.42,661.51,129.98,661.51z" class="colorbe190a svgShape"/><path fill="#cbcbcb" d="M115.11,591.71c5.15,22.88,8.39,53.77,8.39,53.77l-2.8,9c2.1,3.55,5.18,7.03,9.28,7.03     c5.44,0,8.18-2.27,9.75-5.72l-2.3-11.01l3.81-87.4h-25.38C113.92,568.59,112.81,581.51,115.11,591.71z" class="colorf7a3a0 svgShape"/><path fill="#646464" d="M158.58,661.51c-5.44,0-8.18-2.27-9.75-5.72l-1.49,7.14c-0.64,3.07-0.08,6.27,1.57,8.95     c0,0,12.02,3.35,18.25-3.12c2.68-2.78,2.92-7.14,1.77-10.83l-1.07-3.45C165.77,658.03,162.69,661.51,158.58,661.51z" class="colorbe190a svgShape"/><path fill="#cbcbcb" d="M151.14 644.78l-2.31 11.01c1.57 3.45 4.3 5.72 9.75 5.72 4.11 0 7.19-3.48 9.29-7.03l-2.81-9c0 0 3.25-30.89 8.39-53.77 2.3-10.2 1.19-23.12-.73-34.32h-25.38L151.14 644.78zM283.88 342.58c-1.54-4.17-6.24 8.04-25.36 8.35-3.98.06-2-3.11 2-4.31 3.99-1.2 9.48-1.69 7.54-4.5 0 0-12.94-1.82-19.79 6.3-3.01 3.56-3.91 4.99-4.3 5.6l.67 9.74c0 0 23.67-.96 31.46-11.06C283.88 342.58 284.54 344.4 283.88 342.58z" class="colorf7a3a0 svgShape"/><path fill="#808080" d="M242.66 353.51l-34.72.28c0 0-23.24-48.61-31.77-48.61h-19.26l-2.71 10.2-9.94 34.96v207.04h3.08 25.38 11.84c0 0-5.81-46.13-.78-64.62l.21-.78c7.48-62.99-3.45-67.5-16.05-93.62l12.39-50.11 18.14 26.14c7.38 8.38 53.22-9.81 53.22-9.81l-8-9.87L242.66 353.51zM112.13 305.18h18.43l13.7 45.16v207.04h-3.29-25.38-11.84c0 0 5.81-46.13.78-64.62l-.21-.78c-7.48-62.99 3.45-67.5 16.05-93.62l-12.39-50.11C107.97 348.25 93.74 315.38 112.13 305.18z" class="colorffc800 svgShape"/><path fill="#000000" d="M168.65,249.98c-0.81-3.94-4.85-9.42-9.24-12.43c0.17-0.71,0.29-1.43,0.29-2.18     c0-6.61-6.96-11.95-15.55-11.95h0c-8.58,0-15.54,5.34-15.54,11.95c0,1.11,0.26,2.16,0.63,3.17c-1.81,1.38-3.34,3.02-4.37,4.93     c-6.12,11.3-3.21,21.67-3.21,21.67s0.2-0.07,0.51-0.18c2.66-0.96,15.85-5.85,21.98-10.54l0,0c1.72-1.31,3.14-3.14,4.31-5.15     c0.59,1.87,1.68,3.61,3.61,4.91c7.38,4.97,14.1,10.73,14.1,10.73S169.72,255.17,168.65,249.98z" class="color171c27 svgShape"/><rect width="125.28" height="154.97" x="217.08" y="236.57" fill="#9c9c9c" class="colore8505b svgShape"/><rect width="99.73" height="9.97" x="230.49" y="254.76" fill="#ffffff" class="colorfff svgShape"/><rect width="49.69" height="7.57" x="230.67" y="276.93" fill="#ffffff" class="colorfff svgShape"/><rect width="49.69" height="7.57" x="230.67" y="292.03" fill="#ffffff" class="colorfff svgShape"/><rect width="44.62" height="7.58" x="230.67" y="307.12" fill="#ffffff" class="colorfff svgShape"/><rect width="36.9" height="7.57" x="230.67" y="322.22" fill="#ffffff" class="colorfff svgShape"/><rect width="49.69" height="7.57" x="230.67" y="337.31" fill="#ffffff" class="colorfff svgShape"/><rect width="44.62" height="7.57" x="230.67" y="352.4" fill="#ffffff" class="colorfff svgShape"/><rect width="49.69" height="7.57" x="230.67" y="367.49" fill="#ffffff" class="colorfff svgShape"/><rect width="38.76" height="43.99" x="291.46" y="328.28" fill="#ffffff" class="colorfff svgShape"/><path fill="#9c9c9c" d="M318.19 342.75c0 4.12-3.33 10.07-7.45 10.07-4.11 0-7.45-5.95-7.45-10.07 0-4.11 3.33-7.44 7.45-7.44C314.87 335.31 318.19 338.64 318.19 342.75zM310.75 353.88c-7.71 0-11.68 6-11.68 10.58h23.37C322.43 359.88 318.47 353.88 310.75 353.88z" class="colore8505b svgShape"/><rect width="39.53" height="7.57" x="291.46" y="276.93" fill="#ffffff" class="colorfff svgShape"/><rect width="33.12" height="7.57" x="294.54" y="292.03" fill="#ffffff" class="colorfff svgShape"/><rect width="39.53" height="7.58" x="291.46" y="309.91" fill="#ffffff" class="colorfff svgShape"/><path fill="#a7a7a7" d="M364.01,229.15c0,0-5.46-5.63-16.68-0.38c-8.73,4.07-46.92,45.22-41.06,61.04c0,0,3.37,0.31,7.18-10.11       c3.8-10.43,6.23-16.38,15.13-27.02c8.89-10.64,21.49-21.42,26.33-17.46L364.01,229.15z" class="color4f9cff svgShape"/><path fill="#a7a7a7" d="M339.16,311.13c-21.94,36.07-50.8,67.75-59.41,62.5c-8.62-5.24,6.26-45.42,28.21-81.49       c21.95-36.07,53.51-72.2,62.12-66.96C378.71,230.42,361.12,275.06,339.16,311.13z" class="color4f9cff svgShape"/><path fill="#a7a7a7" d="M281.96,370.01c-1.49-0.91-3.1-1.46-4.66-1.68c-2.31,6.08-3.11,10.73-1.46,11.74       c1.65,1.01,5.42-1.84,9.76-6.69C284.68,372.09,283.46,370.92,281.96,370.01z" class="color4f9cff svgShape"/><g><path fill="#cbcbcb" d="M237.77,268.38c4.15,1.62-8.15,6.09-8.8,25.21c-0.13,3.98,3.07,2.05,4.35-1.93     c1.27-3.96,1.86-9.45,4.64-7.45c0,0,1.58,12.97-6.65,19.68c-3.61,2.94-5.06,3.81-5.67,4.2l-9.73-0.84c0,0,1.39-23.65,11.63-31.25     C237.77,268.38,235.96,267.69,237.77,268.38z" class="colorf7a3a0 svgShape"/></g><g><path fill="#c3c3c3" d="M119.49,306.61l44.02,22.84l53.21-29.83l6.17,10.2c0,0-46.09,41.23-58.14,40.81     c-12.04-0.42-59.1-14.48-59.1-14.48S94.8,299.55,119.49,306.61z" class="colorffe088 svgShape"/></g></g></svg>