<svg xmlns="http://www.w3.org/2000/svg" xmlns:xlink="http://www.w3.org/1999/xlink" enable-background="new 0 0 850 850" viewBox="0 0 850 850"><defs><rect id="a" width="505.64" height="346.24" x="214.22" y="301.3"/></defs><clipPath id="b"><use overflow="visible" xlink:href="#a"/></clipPath><g clip-path="url(#b)"><path fill="#efefef" d="M708.92,598.69c0,127.87-103.65,231.52-231.51,231.52c-127.87,0-231.52-103.65-231.52-231.52     c0-127.86,103.65-231.52,231.52-231.52C605.26,367.17,708.92,470.83,708.92,598.69z" class="colorefefef svgShape"/><linearGradient id="c" x1="246.019" x2="704.728" y1="585.78" y2="585.78" gradientUnits="userSpaceOnUse"><stop offset=".011" stop-color="#595959" class="stopColor1a2499 svgShape"/><stop offset="1" stop-color="#717171" class="stopColor0fa0d3 svgShape"/></linearGradient><path fill="url(#c)" d="M433.22,691.78c-6.72,10-9,19.57-5.05,31.31c3.5,10.4,0.78,14.45-12.82,20.38     c-8.92,3.89-19.22,4.6-15.64,19.48c1.3,5.42-3.75,12.39-5.99,18.63c-0.44,1.24-1.3,3.4-1.87,3.38     c-12.27-0.65-12.59,11.69-19.06,17.24c-0.79,0.67-1.34,1.41-1.73,2.18c-11.41-5.91-22.26-12.73-32.46-20.38     c0.68-13.55-0.43-27.18,0.82-40.72c1.02-11.04-2.14-19.95-12.5-26.17c-11.27-6.76-21.2-15.19-24.25-29.17     c-3.48-16.02-2.78-31.24,7.62-44.85c3.06-4.01,4.3-8.5,2.51-13.2c-2-5.27-6.84-4.47-11.19-4.26c-3.91,0.18-6.85-1.09-9.62-4.17     c-9.4-10.44-20.11-19.09-33.8-23.61c-4.79-1.58-8.79-3.87-12.18-6.72c1.96-61.1,27.58-116.22,68.02-156.49     c-0.03,0.3-0.03,0.61,0,0.96c0.33,3.47,1.73,5.93,5.71,7.14c7.18,2.18,15.64,3.43,15.72,13.96c0.01,0.95,1.38,2.58,2.29,2.72     c2.41,0.36,3.08-1.77,4.1-3.57c5.7-10.08,13.1-19.12,17.82-29.83c1.13-2.57,2.82-5.98,6.36-5.63c3.64,0.36,5.94,3.23,6.53,6.74     c0.62,3.67,2.42,5.38,5.92,6.61c5.1,1.78,9.63,4.64,9.9,11.06c0.17,4.12,3.51,5.42,6.52,6.84c2.91,1.38,6.71,2.54,5.79,6.44     c-0.85,3.62-4.74,4.62-8.12,4.85c-6.32,0.44-12.67,0.38-19.01,0.69c-2.32,0.12-5.09,0.06-6.81,1.27     c-2.31,1.62-5.39,4.29-4.39,7.25c1.27,3.74,4.73,1.94,7.55,1.11c3.21-0.94,7.22-4.43,9.61-0.21c2.16,3.8-2.09,6.5-4.42,9.23     c-0.22,0.26-0.49,0.47-0.67,0.75c-4.86,7.65-17.75,2.93-19.09,7.01c-2.67,8.13-6.94,10.79-13.94,12.4     c-6.35,1.46-9.94,5.42-11.02,12.03c-0.81,4.99-2.54,10.29-8.12,11.54c-12.63,2.84-13.22,12.11-12.77,22.18     c0.04,0.95,0.74,1.86,0.85,2.83c0.06,0.5-0.48,1.08-0.78,1.68c-0.65,0-1.51,0.27-1.92-0.04c-5.12-3.9-8.96-11.81-16.36-9.56     c-11.8,3.58-24.62,5.71-33.02,16.64c-6.82,8.87,2.18,13.88,5.27,19.39c2.56,4.57,9.17,4.8,13.34-1.02     c2.21-3.09,5.94-4.57,8.78-2.57c3.41,2.41,2.45,7.12,0.45,9.94c-5.2,7.32-4.08,11.12,5.15,11.44c3.68,0.13,5.42,1.7,5.99,5.29     c0.42,2.62,1.14,5.27,2.26,7.67c3.86,8.32,8.3,9.66,16.03,5.02c2.29-1.38,4.59-2.81,6.59-4.56c7.13-6.26,13.51-8.89,18.46,2.38     c2.17,4.93,6.05,4.95,10.87,3.43c8.85-2.78,16.52-2.37,18.86,9.19c0.52,2.59,1.43,6.35,5.54,5.98c6.01-0.54,9.26,2.8,11.4,7.69     c4.88,11.14,14.58,16.06,25.12,20.24c5.12,2.04,9.94,4.93,14.73,7.71C438.74,673.74,440.85,680.42,433.22,691.78z M704.7,569.6     c-0.6,19-11.37,27.82-27.61,33.21c-4.61,1.53-13.03,3.17-11.57,7.96c1.88,6.21,8.52,0.14,13.1-0.15     c1.78-0.11,3.51-2.57,5.45-0.95c2.42,2.02,0.41,4.52-0.31,6.43c-4.27,11.33-7.74,22.85-14.05,33.54     c-4.39,7.43-12.7,13.11-12.25,23.35c0.45,10.34-0.27,20.75,0.51,31.05c0.61,8.1-1.18,13.74-8.98,17.49     c-7.1,3.41-12.74,8.15-8.65,17.72c1.59,3.72-1.19,7.13-3.79,9.62c-2.57,2.47-4.53,4.99-4,8.6c1.09,7.51-3.51,11.88-7.91,17.05     c-9.1,10.7-22.43,7.78-33.6,11.64c-4.9,1.69-6.28-2.14-5.83-6.46c0.93-8.89-1.07-17.27-4.4-25.41c-0.56-0.1-1.09-0.27-1.6-0.52     c-8.55-15.73-10.64-31.95-3.88-48.93c0.84-2.1,2.16-5.33,1.24-6.6c-7.73-10.73-2.6-24.43-9.22-35.79     c-6.08-10.43-4.77-11.19,3.21-20.29c-6.47-2.82-12.58-6.05-17.67-10.87c-0.71-0.67-2.16-1.68-2.51-1.44     c-7.93,5.43-18.13-0.77-25.94,5.18c-6.36,4.84-14.01,3.38-18.64-3.31c-2.29-3.3-5.04-6.33-6.96-9.82     c-5.46-9.93-17.29-20.64-14.76-29.86c6.68-24.32,9.35-52.63,34.62-66.96c12.15-6.9,25.34-12.83,41.54-7.89     c8.65,2.64,14.83,5.38,19.2,12.82c2.28,3.87,4.28,4.75,8.3,1.02c4.85-4.5,11-2.88,16.85-0.84c6.94,2.42,13.87,4.24,21.55,2.91     c6.98-1.2,9.94-6.43,10.82-11.51c1.03-5.97-5.85-5.39-9.58-6.32c-7.45-1.87-13.86-4.65-17.75-11.7     c-1.65-2.99-3.81-6.42-7.68-4.78c-3.43,1.45-5.02,4.91-4.85,9.02c0.06,1.39,2.97,3.75-0.87,4.46c-1.87,0.35-3.11-0.71-4.37-1.89     c-2.66-2.5-3.54-5.58-3.23-9.08c0.37-4.2-0.67-8.03-3.3-11.28c-1.35-1.66-2.48-4.61-5.46-2.88c-3.01,1.76-1.43,4.29,0.02,5.95     c3.86,4.39-0.03,7.96-1,11.75c-0.61,2.36-2.67,4.12-5.34,3.46c-4.13-1.03-1.15-3.35-0.76-5.32c1.7-8.73-6.61-10.25-11.13-13.53     c-4.29-3.11-10.16-1.55-14.28,3.04c-5.79,6.48-12.43,11.98-17.32,19.56c-5.58,8.65-12.49,0.14-18.5-1.4     c-7.97-2.04-4.97-9.36-4.54-14.45c0.47-5.48,4.07-9.03,10.42-7.9c0.65,0.11,1.35,0.11,2,0c4.55-0.77,10.65,2.56,12.96-4.29     c2.01-5.97-2.05-9.22-6.91-11.37c2.04-3.23,4.52-2.41,6.7-2.63c0.53-0.83,1.06-1.65,1.59-2.48c-9.55-2.89-4.8-9.77-4.21-15.4     c0.65-6.23-3.3-11.26-4.78-17.19c14.91,2.61,20.17,12.29,14.83,26.04c-1.17,3.01,0.76,3.35,3.1,3.03l-0.01,0.08     c0.68-0.69,1.37-1.39,2.06-2.08l-0.08-0.01c5.26,0.01,3.97-5.26,6.21-7.69c4.25-0.42,7.41-1.44,4.52-6.78     c-0.91-1.68-1.7-4.18,0.84-5.13c2.2-0.82,4.94-0.74,5.77,2.25c1.65,5.92,7.71,9.58,11.34,8.48c6.08-1.83,14.35-3.4,15.77-12.1     c0.94-5.84,7.08-7.66,9.21-12.34c-3.37-3.1-9.03,5.13-10.04-1.06c-0.96-5.79-1.59-13.8,7.96-16.52     c-11.18-1.48-17.59,5.44-17.16,17.22c0.09,2.5,1.62,4.68,0.24,7.59c-3.26,6.82-8.03,8.07-12.37,2.02     c-2.67-3.71-5.47-4.27-9.41-3.69c-2.67,0.4-5.99,4.23-7.89,0.33c-1.83-3.76-3.12-9.91,0.33-12.28     c8.23-5.66,12.66-15.42,19.86-20.38c5.1-3.5,10.97-6.31,17.13-7.2c8.54,4.6,16.77,9.72,24.62,15.32c-0.01,0-0.03,0-0.04,0     c1.01,4.55,4.8,6.96,7.72,10.04c1.47-0.2,2.79-0.6,4.03-1.12c41.38,33.65,70.91,81.3,81.37,135.74     c-1.19-1.52-3.99-1.84-6.15-1.89c-2.86-0.06-5.23-0.8-7.03-3.12c-3.06-3.95-7.26-7.78-11.54-3.43c-3.83,3.9,0.05,8.46,2.99,11.89     c3.39,3.96,6.55,7.53,13.15,4.63C701.02,560.67,704.98,560.98,704.7,569.6z M657.43,583.29     C657.43,583.29,657.43,583.29,657.43,583.29c-8.61-5.85-4.9-15.09-6.23-22.91c-1.24-7.31-5.44-12.13-12.08-14.64     c-3.09-1.17-6.99,1.46-7.69,3.42c-2.23,6.17,1.22,11.75,3.96,17.19c0.15,0.3,0.17,0.82,0.38,0.9     c10.37,3.98,9.89,13.76,12.27,22.21c1.23,4.39,4.07,8.32,6.18,12.46c2.58,1.08,2.45,5.4,7.14,5.64     C660.17,599.03,665.87,590.29,657.43,583.29z M495.17,384.3c3.25-6.04,4.47-11.6,3.89-16.11c-7.13-0.66-14.35-1.02-21.66-1.02     c-22.05,0-43.37,3.08-63.57,8.84c1,1,2.55,1.42,3.28,2.45c4.27,6.04,14.39,12.26,10.48,18.73c-5.66,9.35-3.47,16.14,0.08,24.14     c1.41,3.17,0.82,8.36,5.52,8.51c4.83,0.15,8.85-2.87,11.01-7.36c4.35-9.04,11.85-13.57,20.9-17.28     C476.47,400.52,488.64,396.42,495.17,384.3z M351.5,415.82c2.64-0.33,4.12-2.26,5.73-4.61c8.86-12.88,12.32-13.59,26.13-6.94     c3.77,1.82,6.32,4.89,9.49,7.3c4.41,3.36,8.92,3.23,12.53-0.96c4.44-5.15-1.29-6.5-3.88-8.93c-2.16-2.03-4.41-3.81-6.24-6.33     c-2.23-3.07-9.44-5.48-16.12-6.33c-8.63,4.05-16.96,8.61-24.97,13.66c-1.32,3.05-3.28,5.91-5.4,8.79     C346.94,413.96,347.58,415.92,351.5,415.82z M490.72,414.73c-0.31,3.96,3.57,7.22,6.18,6.15c3.81-1.56,10.09-1.97,10.52-7.45     c0.41-5.22-4.59-3.2-7.56-3.71C495.95,409.87,491.17,408.97,490.72,414.73z M379.41,411.88c-1.75,0.51-5.81-1.08-4.92,2.3     c1.04,3.93,4.18,8,9.1,7.38c2.46-0.31,7.66-0.26,7.02-3.98C389.67,412.14,384.26,411.94,379.41,411.88z M400.73,466.07     c-2.68-0.31-5.65-0.26-5.1,3.85c0.37,2.7-0.63,6.49,4.05,6.43c3.51-0.04,5.13-2.47,6.2-5.35     C405.89,467.47,403.44,466.39,400.73,466.07z M520.43,458.86c3.55-0.7,5.48-2.76,5.34-6.29c-0.13-3.2-1.89-4.59-5.26-4.54     c-4.04,0.05-4.05,2.65-4.01,5.42C516.54,456.17,516.5,459.06,520.43,458.86z"/></g><path fill="#d2d2d2" d="M640.24,647.55c17.91,0,32.48-14.57,32.48-32.48V265.82c0-17.9-14.57-32.47-32.48-32.47H438.23    c-17.91,0-32.48,14.56-32.48,32.47v349.24c0,17.91,14.57,32.48,32.48,32.48H640.24z" class="colord1d3d4 svgShape"/><path fill="#efefef" d="M414.83,265.82v349.24c0,12.93,10.48,23.4,23.4,23.4h202.01c12.91,0,23.4-10.47,23.4-23.4V265.82      c0-12.91-10.48-23.38-23.4-23.38H438.23C425.32,242.44,414.83,252.91,414.83,265.82z" class="colorefefef svgShape"/><rect width="248.79" height="308.1" x="414.84" y="276.15" fill="#ffffff" class="colorfff svgShape"/><path fill="#ffffff" d="M502.51 259.44c0 .83.34 1.57.88 2.11.54.54 1.28.88 2.11.88h67.48c1.64 0 2.98-1.34 2.98-2.98 0-.81-.34-1.55-.88-2.09-.54-.54-1.28-.88-2.11-.88h-67.48C503.85 256.47 502.51 257.81 502.51 259.44zM593.56 614.87h26.76c2.34 0 4.24-1.9 4.24-4.24l0 0c0-2.34-1.9-4.24-4.24-4.24h-26.76c-2.34 0-4.24 1.9-4.24 4.24l0 0C589.32 612.98 591.22 614.87 593.56 614.87zM457.63 614.87h26.76c2.34 0 4.24-1.9 4.24-4.24l0 0c0-2.34-1.9-4.24-4.24-4.24h-26.76c-2.34 0-4.24 1.9-4.24 4.24l0 0C453.39 612.98 455.29 614.87 457.63 614.87z" class="colorfff svgShape"/><g><path fill="#efefef" d="M672.67 361.12h3.46c3.08 0 5.58-2.5 5.58-5.58v-40.43c0-3.08-2.5-5.58-5.58-5.58h-3.46V361.12zM672.67 399.84h3.46c3.08 0 5.58-2.5 5.58-5.58v-15.59c0-3.08-2.5-5.58-5.58-5.58h-3.46V399.84z" class="colorefefef svgShape"/></g><g><rect width="164.11" height="39.92" x="459.26" y="318.42" fill="#d2d2d2" class="colord1d3d4 svgShape"/><path fill="#ffffff" d="M585.06 338.38c0 7.26 5.89 13.15 13.15 13.15 7.26 0 13.15-5.89 13.15-13.15 0-7.26-5.89-13.15-13.15-13.15C590.95 325.23 585.06 331.12 585.06 338.38zM547.14 338.38c0 7.26 5.89 13.15 13.15 13.15 7.26 0 13.15-5.89 13.15-13.15 0-7.26-5.89-13.15-13.15-13.15C553.02 325.23 547.14 331.12 547.14 338.38z" class="colorfff svgShape"/><circle cx="522.36" cy="338.38" r="13.15" fill="#ffffff" transform="rotate(-4.726 522.437 338.275)" class="colorfff svgShape"/><path fill="#ffffff" d="M471.28,338.38c0,7.26,5.89,13.15,13.15,13.15c7.26,0,13.15-5.89,13.15-13.15        c0-7.26-5.89-13.15-13.15-13.15C477.17,325.23,471.28,331.12,471.28,338.38z" class="colorfff svgShape"/><g><path fill="#d2d2d2" d="M553.7,391.43c0,3.91,1.59,7.44,4.14,10c2.56,2.56,6.09,4.14,10,4.14h42.43        c7.81,0,14.14-6.33,14.14-14.14c0-3.91-1.59-7.44-4.14-10c-2.56-2.56-6.09-4.14-10-4.14h-42.43        C560.04,377.29,553.7,383.62,553.7,391.43z" class="colord1d3d4 svgShape"/><polygon fill="#d2d2d2" points="597.97 402.46 589.06 420.27 580.15 402.46" class="colord1d3d4 svgShape"/></g><g><rect width="164.11" height="93.83" x="459.2" y="455.34" fill="#efefef" class="colorefefef svgShape"/><rect width="164.1" height="22.75" x="459.21" y="432.59" fill="#d2d2d2" class="colord1d3d4 svgShape"/><g><rect width="125.61" height="6.8" x="478.45" y="469.21" fill="#d2d2d2" class="colord1d3d4 svgShape"/><rect width="125.61" height="6.8" x="478.45" y="485.68" fill="#d2d2d2" class="colord1d3d4 svgShape"/><rect width="125.61" height="6.8" x="478.45" y="502.15" fill="#d2d2d2" class="colord1d3d4 svgShape"/><rect width="53.97" height="6.8" x="550.09" y="518.62" fill="#d2d2d2" class="colord1d3d4 svgShape"/><rect width="33.38" height="12.58" x="478.45" y="525.41" fill="#d2d2d2" class="colord1d3d4 svgShape"/></g><g><linearGradient id="d" x1="447.352" x2="486.657" y1="426.764" y2="426.764" gradientUnits="userSpaceOnUse"><stop offset=".011" stop-color="#909090" class="stopColore922ff svgShape"/><stop offset="1" stop-color="#5c5c5c" class="stopColora500b8 svgShape"/></linearGradient><circle cx="467" cy="426.76" r="19.65" fill="url(#d)"/><path fill="#ffffff" d="M470.86,415.78v22.7h-5.71v-16.89c-1.77,1.61-3.55,2.57-5.37,2.89l-0.55-4.88         c1.17-0.14,2.47-0.6,3.9-1.39c1.43-0.79,2.44-1.6,3.01-2.42H470.86z" class="colorfff svgShape"/></g></g></g><g><linearGradient id="e" x1="356.472" x2="498.158" y1="278.608" y2="278.608" gradientUnits="userSpaceOnUse"><stop offset=".011" stop-color="#909090" class="stopColore922ff svgShape"/><stop offset="1" stop-color="#5c5c5c" class="stopColora500b8 svgShape"/></linearGradient><path fill="url(#e)" d="M356.47,257.13v42.96c0,3.05,2.5,5.52,5.58,5.52h130.52c3.08,0,5.58-2.47,5.58-5.52v-42.96        c0-3.05-2.5-5.52-5.58-5.52H362.05C358.97,251.61,356.47,254.08,356.47,257.13z"/><linearGradient id="f" x1="371.604" x2="394.381" y1="315.226" y2="315.226" gradientUnits="userSpaceOnUse"><stop offset=".011" stop-color="#909090" class="stopColore922ff svgShape"/><stop offset="1" stop-color="#5c5c5c" class="stopColora500b8 svgShape"/></linearGradient><polygon fill="url(#f)" points="394.38 305.61 382.99 324.84 371.6 305.61"/><g><path fill="#ffffff" d="M472.53 266.3c-6.49 0-8.4 4.72-8.4 4.72s-1.91-4.72-8.4-4.72c-6.49 0-13.16 10.19 8.4 27.93C485.69 276.5 479.01 266.3 472.53 266.3zM427.31 294.24c21.58-17.75 14.88-27.93 8.41-27.93-6.49 0-8.41 4.71-8.41 4.71s-1.9-4.71-8.39-4.71C412.43 266.31 405.75 276.51 427.31 294.24zM390.5 294.24c21.56-17.75 14.88-27.93 8.39-27.93-6.47 0-8.39 4.71-8.39 4.71s-1.9-4.71-8.39-4.71S368.94 276.51 390.5 294.24z" class="colorfff svgShape"/></g><g><linearGradient id="g" x1="255.972" x2="337.133" y1="541.803" y2="541.803" gradientUnits="userSpaceOnUse"><stop offset=".011" stop-color="#909090" class="stopColore922ff svgShape"/><stop offset="1" stop-color="#5c5c5c" class="stopColora500b8 svgShape"/></linearGradient><path fill="url(#g)" d="M271.22,501.22h50.67c8.38,0,15.24,6.86,15.24,15.24v50.67c0,8.38-6.86,15.24-15.24,15.24h-50.67     c-8.38,0-15.24-6.86-15.24-15.24v-50.67C255.97,508.08,262.83,501.22,271.22,501.22z"/><path fill="#ffffff" d="M315.05,528.59c1.75-1.4,3.15-2.87,3.68-4.96c-1.58,0.62-3.07,1.26-4.61,1.76c-0.6,0.2-1.29,0.6-1.95-0.05     c-1.36-1.33-2.99-2.13-4.87-2.46c-3.26-0.57-6.13,0.21-8.54,2.48c-2.19,2.05-3.22,4.61-3.06,7.62c0.03,0.54,0,1.09,0,1.69     c0,0-0.23-0.01-0.64-0.06c-3.88-0.38-7.4-1.41-10.59-3.07c-2.38-1.18-4.79-2.8-6.84-5.02c-0.35-0.35-1.42-1.72-1.62-2     c0,0-0.75,0.9-1.24,2.42c-0.78,3.04-0.22,5.87,1.71,8.46c0.54,0.72,1.28,1.29,1.94,1.93c-0.04,0.08-0.08,0.15-0.12,0.23     c-1.28-0.35-2.56-0.7-3.83-1.05c-0.31,3.22,1.94,7.81,7.19,9.66c-1.23,0.05-2.46,0.11-3.83,0.17c1.59,4.02,4.55,6.14,8.87,6.69     c-4.03,3.01-8.42,4.25-13.23,4.1v0c0,0,16.01,8.95,30.1-0.69c2.35-1.66,10.28-8.34,11.7-21.01c-0.06-0.17,0.3-2.68,0.36-3.74     c0,0,2.25-1.37,4.31-4.06C318.29,527.88,316.83,528.64,315.05,528.59z" class="colorfff svgShape"/></g><g><linearGradient id="h" x1="302.723" x2="387.115" y1="420.275" y2="420.275" gradientUnits="userSpaceOnUse"><stop offset=".008" stop-color="#919191" class="stopColordd4568 svgShape"/><stop offset="1" stop-color="#6b6b6b" class="stopColorb52142 svgShape"/></linearGradient><path fill="url(#h)" d="M302.72,420.28c0,23.3,18.89,42.2,42.2,42.2c23.3,0,42.2-18.89,42.2-42.2c0-23.3-18.89-42.2-42.2-42.2     C321.62,378.08,302.72,396.97,302.72,420.28z"/><path fill="#ffffff" d="M314.17 412.9c-.91-2.75.08-5.89 2.39-7.63 2.65-1.98 6.02-1.76 8.37.02-.09-2.95 1.7-5.82 4.85-6.82 2.76-.87 5.89.16 7.6 2.5 1.4 1.92 1.67 4.22 1.02 6.23l-4.25 13.26c-.3.94-1.31 1.46-2.25 1.16l-13.26-4.26C316.63 416.71 314.91 415.15 314.17 412.9zM376.88 412.9c.91-2.75-.07-5.89-2.39-7.63-2.65-1.98-6.02-1.76-8.37.02.09-2.95-1.7-5.82-4.85-6.82-2.76-.87-5.89.16-7.6 2.5-1.4 1.92-1.67 4.22-1.02 6.23l4.25 13.26c.3.94 1.31 1.46 2.25 1.16l13.26-4.26C374.41 416.71 376.13 415.15 376.88 412.9zM323.15 429.16c0 12.02 9.75 21.77 21.77 21.77 12.02 0 21.76-9.74 21.76-21.77H323.15z" class="colorfff svgShape"/></g><g><linearGradient id="i" x1="594.652" x2="693" y1="251.625" y2="251.625" gradientUnits="userSpaceOnUse"><stop offset=".011" stop-color="#595959" class="stopColor1a2499 svgShape"/><stop offset="1" stop-color="#717171" class="stopColor0fa0d3 svgShape"/></linearGradient><path fill="url(#i)" d="M613.12,202.45h61.4c10.16,0,18.47,8.31,18.47,18.47v61.4c0,10.16-8.31,18.47-18.47,18.47h-61.4     c-10.16,0-18.47-8.31-18.47-18.47v-61.4C594.65,210.76,602.96,202.45,613.12,202.45z"/><path fill="#ffffff" d="M651.45,231.32c2.66,0,7.15,0.04,7.15,0.04v-9.02c0,0-3.12-0.08-7.22,0c-4.1,0.08-14.18,0.39-14.18,12.26     v7.65h-7.81v9.37h7.81v29.29h11.17v-29.29h9.14l1.09-9.37h-10.23v-7.65C648.36,234.6,648.79,231.32,651.45,231.32z" class="colorfff svgShape"/></g></g><g><path fill="#b7b7b7" d="M249.57,426.82c0,0,0.79,21.88-3.44,23.05c-4.2,1.15-10.76-27.61-10.76-27.61L249.57,426.82z" class="colorfdb171 svgShape"/><path fill="#434343" d="M227.42,300.12c0,0,16.69,4.3,17.38,14.53c0.67,10.24,5.13,63.48,5.13,63.48l2.73,48.94l-17.06-1.46     L227.42,300.12z" class="color6e0384 svgShape"/><path fill="#787878" d="M209.76,609.32c-2.46,2.25-23.62-0.42-24.68,2.2c-1.12,2.58-3,9.86-1.53,13.74c0,0-1.03,0.93-0.36,2.93      c0.67,2,6.02,2.52,12.91,2.43c6.87-0.1,27.68,1.33,33.44-0.29c5.72-1.58,10.93-3.65,11.68-6.12c0.77-2.47,2.37-7.67-2.77-6.94      c-5.12,0.75-11.22,0.7-13.86-0.67c-2.64-1.36-8.35-3.61-10.64-5.6C211.67,609,210.77,608.42,209.76,609.32z" class="color3357bd svgShape"/><path fill="#282828" d="M165.73,416.69c0,0,4.24,38.19,8.09,56.48c3.82,18.28,6.8,35.74,6.8,41.68c0,5.97,3.4,97.85,3.4,97.85      l31.06-2.55c0,0-1.69-73.6-1.28-88.48c0.24-8.01,0.46-28,0.62-40.73c0.15-10.95,0.23-21.28,0.23-21.28l-2.97-45.94      L165.73,416.69z" class="color001b51 svgShape"/><path fill="#959595" d="M209.64,615.67c-3.36,0.27-18.46-14.98-20.93-13.58c-2.48,1.38-8.49,5.97-9.72,9.95      c0,0-1.41,0.09-2.1,2.11c-0.71,1.99,3.19,5.72,8.72,9.91c5.5,4.2,21.11,18.23,26.67,20.51c5.52,2.32,10.93,3.89,13.03,2.37      c2.13-1.47,6.62-4.58,2.13-7.2c-4.51-2.58-9.31-6.39-10.58-9.12c-1.23-2.71-4.35-8.03-4.94-11.02      C211.35,616.6,210.99,615.58,209.64,615.67z" class="color4985e2 svgShape"/><path fill="#282828" d="M209.33,460.92l5.08,20.01l9.18,37.75c0,0-13.19,31.91-22.13,51.9c-8.93,19.99-16.31,31.77-16.31,31.77      l27.8,17.59c0,0,33.61-73.62,35.74-79.13c2.13-5.54,8.73-14.68,6.98-27.66c-1.25-9.36-15.06-96.47-15.06-96.47h-35.55      L209.33,460.92z" class="color001b51 svgShape"/><polygon fill="#282828" points="165.73 421.04 241.35 421.04 242.23 426.34 165.73 426.34" class="color001b51 svgShape"/><path fill="#b7b7b7" d="M177.59,422.37l9.5,7.71l-10.81,16.21c0,0-8.77-5.71-11.09-15.69      C162.89,420.61,177.59,422.37,177.59,422.37z" class="colorfdb171 svgShape"/><path fill="#aaaaaa" d="M192.02,284.57c-0.4,1.76-1.46,9.29-2.13,10.86c-0.01,0.05,5.58,3.32,6.09,3.57        c1.1,0.56,7.15,2.83,11.29,1.65c3.33-0.94,4.98-5.27,5.3-5.75c0.56-0.84,0.04-7.6,0.52-8.67L192.02,284.57z" class="colorf49f60 svgShape"/><path fill="#434343" d="M183.45,296.99c-12.2,3.13-26.65,3.13-32.21,17.17c-5.51,14.04-19.57,63.76-20.95,68.12      c-2.05,6.54,16.95,32.55,35.44,53.55l15.48-13.09l-26.54-36.27l8.93-30.98l2.14,65.54h48.04l4.37-40.6l-21.36-64.57      L183.45,296.99z" class="color6e0384 svgShape"/><path fill="#434343" d="M213.49,421.04h27.86l-3.73-90.28c0,0-4.01-28.73-6.5-29.51c-5.55-1.74-12.03-3.52-12.03-3.52l-14.4,91.35      L213.49,421.04z" class="color6e0384 svgShape"/><path fill="#ffffff" d="M190.52,292.75c0,0,4.15,3.39,14.57,7.14c0,0,6.75-3.1,7.45-5.69l8.29,3.53l-11.2,74.88      c0,0-16.27-56.4-26.17-75.61L190.52,292.75z" class="colorfff svgShape"/><polygon fill="#282828" points="176.51 449.87 172.97 447.32 186.61 428.38 190.15 430.92" class="color001b51 svgShape"/><polygon fill="#282828" points="242.22 452.68 238.04 428.93 242.31 428.17 246.51 451.94" class="color001b51 svgShape"/><polygon fill="#000000" points="183.45 421.04 179.97 421.04 164.96 400.52 164.96 392.38" opacity=".3" class="color202626 svgShape"/><g><path fill="#b7b7b7" d="M220.98,265.65h-0.33c0.15-1.24,0.31-2.49,0.45-3.63c0.79-6.02,2.56-23.64-18.47-23.64     c-21,0-19.25,17.62-18.46,23.64c0.15,1.15,0.3,2.4,0.46,3.63h-0.36c-3.2-2.37-3.46,3.82-2.13,5.92c1.1,1.75,1.14,1.93,1.8,3.87     c0.48,1.41,1.3,1.6,2,1.45c0.08,0.83,0.14,1.57,0.17,2.17c0.31,3.23,8.12,9.76,9.89,11.79c1.66,1.91,4.43,1.16,5.32,1.13     c0.87-0.07,1.31-0.08,1.31-0.08s0.43,0.01,1.33,0.08c0.88,0.04,3.64,0.79,5.31-1.13c1.76-2.03,9.56-8.55,9.85-11.79     c0.07-0.59,0.15-1.33,0.23-2.17c0.69,0.16,1.49-0.04,1.98-1.45c0.68-1.93,0.68-2.12,1.8-3.87     C224.48,269.47,224.19,263.29,220.98,265.65z" class="colorfdb171 svgShape"/></g><g><path fill="#282828" d="M217.62,233.87c0,0,0.86,2.36-17.07,2.36l-0.01,0c-0.37,0-0.78,0-1.2,0.04     c-17.17,0.74-16.2,17.07-16.2,17.07l0.01-0.01c-0.13,4.11,0.7,8.22,1.5,12.32l0.36-1.99c0,0,0.17-1.99,0.95-4.38     c0.04-0.15,0.1-0.29,0.13-0.4c0.26-0.66,0.52-1.36,0.86-2.05c4.66-9.29,15.68-6.26,15.68-6.26s11.04-3.03,15.71,6.28     c0.32,0.67,0.61,1.35,0.83,2c0.04,0.13,0.12,0.28,0.15,0.44c0.78,2.38,0.96,4.38,0.96,4.38l0.37,1.99c0.49-2.56,1-5.14,1.3-7.72     c0-0.02,0-0.03,0-0.03C223.9,244.23,217.62,233.87,217.62,233.87z" class="color001b51 svgShape"/></g><g><polygon fill="#434343" points="241.35 421.04 235.37 318.41 246.51 426.54 242.23 426.34" class="color6e0384 svgShape"/></g></g></svg>