<svg xmlns="http://www.w3.org/2000/svg" xmlns:xlink="http://www.w3.org/1999/xlink" enable-background="new 0 0 850 850" viewBox="0 0 850 850"><path fill="#bcbcbc" d="M682.24,673.7l-281.33,0.27c-15.46,0.02-28.01-12.5-28.03-27.96l-0.51-448.04      c-0.02-15.46,12.5-28.01,27.96-28.03l281.33-0.27c15.46-0.02,28.01,12.5,28.03,27.96l0.51,448.04      C710.22,661.13,697.7,673.68,682.24,673.7z" class="colorcebdaa svgShape"/><rect width="317.47" height="435.62" x="382.53" y="202.34" fill="#ffffff" class="colorfff svgShape"/><path fill="#c2c2c2" d="M688.47,169.66l-294.96,0.29c-11.7,0.01-21.17,9.51-21.16,21.21l0.52,461.66       c0.01,11.7,9.51,21.17,21.21,21.16l294.96-0.29c11.7-0.01,21.17-9.51,21.16-21.21l-0.52-461.66       C709.67,179.12,700.17,169.65,688.47,169.66z M700.19,637.8l-317.4,0.31l-0.44-435.61l317.4-0.31L700.19,637.8z" class="colorff9f85 svgShape"/><path fill="#ffffff" d="M574.29 661.31l-56.98.07c-2.72 0-4.92-2.19-4.92-4.91l0-.36c0-2.72 2.19-4.92 4.91-4.92l56.98-.07c2.72 0 4.92 2.19 4.92 4.91l0 .36C579.2 659.11 577 661.31 574.29 661.31zM549.58 186.81c.01 4.29-3.46 7.76-7.75 7.77-4.29 0-7.76-3.46-7.77-7.75-.01-4.29 3.46-7.76 7.75-7.77C546.1 179.05 549.57 182.52 549.58 186.81z" class="colorfff svgShape"/><rect width="317.41" height="14.76" x="382.36" y="202.18" fill="#a1a1a1" class="colorff7444 svgShape"/><path fill="#ffffff" d="M669.62 209.56c0 1.68-1.36 3.05-3.05 3.05-1.68 0-3.05-1.36-3.05-3.05 0-1.68 1.36-3.05 3.05-3.05C668.26 206.52 669.62 207.88 669.62 209.56zM681.54 209.56c0 1.68-1.36 3.05-3.05 3.05-1.68 0-3.05-1.36-3.05-3.05 0-1.68 1.36-3.05 3.05-3.05C680.17 206.52 681.54 207.88 681.54 209.56zM693.45 209.56c0 1.68-1.36 3.05-3.05 3.05-1.68 0-3.05-1.36-3.05-3.05 0-1.68 1.36-3.05 3.05-3.05C692.09 206.52 693.45 207.88 693.45 209.56z" class="colorfff svgShape"/><path fill="#c2c2c2" d="M409.39,228.17v118.66h263.78V228.17H409.39z" class="colorff9f85 svgShape"/><rect width="105.86" height=".74" x="541.85" y="269" fill="#ffffff" class="colorfff svgShape"/><rect width="66.94" height="2.21" x="541.85" y="252.28" fill="#ffffff" class="colorfff svgShape"/><rect width="88.25" height=".74" x="541.85" y="278.57" fill="#ffffff" class="colorfff svgShape"/><rect width="91.95" height=".74" x="541.85" y="288.77" fill="#ffffff" class="colorfff svgShape"/><rect width="85.28" height=".74" x="541.85" y="298.34" fill="#ffffff" class="colorfff svgShape"/><rect width="105.86" height=".74" x="541.85" y="308.53" fill="#ffffff" class="colorfff svgShape"/><rect width="82.71" height=".74" x="541.85" y="318.11" fill="#ffffff" class="colorfff svgShape"/><path fill="#ffffff" d="M523.19,286.91c0,16.46-8.21,30.99-20.76,39.72c-7.84,5.47-17.37,8.67-27.63,8.67       c-9.71,0-18.74-2.86-26.32-7.78c-13.29-8.62-22.08-23.59-22.08-40.62c0-26.73,21.67-48.39,48.39-48.39       C501.52,238.52,523.19,260.19,523.19,286.91z" class="colorfff svgShape"/><path fill="#a1a1a1" d="M502.6,323.01c0,1.3-0.06,2.5-0.17,3.63c-7.84,5.47-17.37,8.67-27.63,8.67c-9.71,0-18.74-2.86-26.32-7.78        c-0.18-1.37-0.27-2.88-0.27-4.52c0-8.52,8.01-15.74,19.05-18.16c2.58-0.57,5.31-0.87,8.15-0.87c2.41,0,4.75,0.22,6.98,0.63        C494.03,306.78,502.6,314.19,502.6,323.01z" class="colorff7444 svgShape"/><path fill="#cbcbcb" d="M474.89,320.39L474.89,320.39c3.35-0.11,8.96-3.77,8.82-9.84l-3.25-14.63l-1.47-16.08l-13.26,2.67        l2.51,13.58c-0.34,5.59-0.89,7.67-1.8,14.16C465.62,316.16,471.6,320.51,474.89,320.39z" class="colorf7a3a0 svgShape"/><path fill="#bbbbbb" d="M480.27,294.01l1,6.57c-2.3-0.32-7.25-0.98-9.21-2.27c-4.28-2.82-2.19-7.18-0.3-9.66        C473.08,286.92,476.4,293.09,480.27,294.01z" class="colorf78480 svgShape"/><path fill="#cbcbcb" d="M483.71,257.55c1.7,0.48,5.68,16.88,2.57,28.54c-3.24,12.15-15.42,14.71-21.46,4.65        c-7.63-12.7-5.66-26.49-5.98-29.26C458.25,256.29,474.32,254.88,483.71,257.55z" class="colorf7a3a0 svgShape"/><path fill="#cbcbcb" d="M455.96 280.81c.53 2.67 3.14 4.41 5.81 3.87 2.67-.54 4.41-3.14 3.87-5.81-.54-2.67-3.14-4.41-5.81-3.87C457.16 275.54 455.42 278.14 455.96 280.81zM482.59 276.97c.53 2.67 3.14 4.41 5.81 3.87 2.67-.54 4.41-3.14 3.87-5.81-.54-2.67-3.14-4.41-5.81-3.87C483.79 271.7 482.06 274.3 482.59 276.97z" class="colorf7a3a0 svgShape"/><path fill="#000000" d="M467.02,260.06c0,0,3.52,14.5-9.87,16.78c0,0-8.09-28.61,14.91-27.15        c22.99,1.47,15.17,21.71,15.17,21.71S476.06,268.38,467.02,260.06z" class="color302120 svgShape"/><g><path fill="none" d="M523.19,286.91c0,16.46-8.21,30.99-20.76,39.72c-7.84,5.47-17.37,8.67-27.63,8.67       c-9.71,0-18.74-2.86-26.32-7.78c-13.29-8.62-22.08-23.59-22.08-40.62c0-26.73,21.67-48.39,48.39-48.39       C501.52,238.52,523.19,260.19,523.19,286.91z"/></g><g><rect width="263.78" height="118.66" x="409.39" y="366.27" fill="#c2c2c2" class="colorff9f85 svgShape"/><rect width="105.86" height=".74" x="541.85" y="407.11" fill="#ffffff" class="colorfff svgShape"/><rect width="66.94" height="2.21" x="541.85" y="390.38" fill="#ffffff" class="colorfff svgShape"/><rect width="88.25" height=".74" x="541.85" y="416.68" fill="#ffffff" class="colorfff svgShape"/><rect width="91.95" height=".74" x="541.85" y="426.87" fill="#ffffff" class="colorfff svgShape"/><rect width="85.28" height=".74" x="541.85" y="436.44" fill="#ffffff" class="colorfff svgShape"/><rect width="105.86" height=".74" x="541.85" y="446.64" fill="#ffffff" class="colorfff svgShape"/><rect width="82.71" height=".74" x="541.85" y="456.21" fill="#ffffff" class="colorfff svgShape"/><defs><circle id="a" cx="474.8" cy="425.02" r="48.39" transform="rotate(-45.001 474.795 425.025)"/></defs><use fill="#8b8b8b" overflow="visible" xlink:href="#a" class="colorec632b svgShape"/><clipPath id="b"><use overflow="visible" xlink:href="#a"/></clipPath><g clip-path="url(#b)"><circle cx="474.8" cy="425.02" r="48.39" fill="#ffffff" transform="rotate(-45.001 474.795 425.025)" class="colorfff svgShape"/></g><g clip-path="url(#b)"><ellipse cx="475.41" cy="461.12" fill="#a1a1a1" rx="27.19" ry="19.03" class="colorff7444 svgShape"/><path fill="#cbcbcb" d="M474.89,458.5L474.89,458.5c3.35-0.11,8.96-3.77,8.82-9.84l-3.25-14.63l-1.47-16.08l-13.26,2.67        l2.51,13.58c-0.34,5.59-0.89,7.67-1.8,14.16C465.62,454.27,471.6,458.61,474.89,458.5z" class="colorf7a3a0 svgShape"/><path fill="#bbbbbb" d="M480.27,432.12l1,6.57c-2.3-0.32-7.25-0.98-9.21-2.27c-4.28-2.82-2.19-7.18-0.3-9.66        C473.08,425.03,476.4,431.19,480.27,432.12z" class="colorf78480 svgShape"/><path fill="#cbcbcb" d="M483.71,395.66c1.7,0.48,5.68,16.88,2.57,28.54c-3.24,12.15-15.42,14.71-21.46,4.65        c-7.63-12.7-5.66-26.49-5.98-29.26C458.25,394.4,474.32,392.99,483.71,395.66z" class="colorf7a3a0 svgShape"/><path fill="#cbcbcb" d="M455.96 418.92c.53 2.67 3.14 4.41 5.81 3.87 2.67-.54 4.41-3.14 3.87-5.81-.54-2.67-3.14-4.41-5.81-3.87C457.16 413.64 455.42 416.24 455.96 418.92zM482.59 415.07c.53 2.67 3.14 4.41 5.81 3.87 2.67-.54 4.41-3.14 3.87-5.81-.54-2.67-3.14-4.41-5.81-3.87C483.79 409.8 482.06 412.4 482.59 415.07z" class="colorf7a3a0 svgShape"/><path fill="#000000" d="M484.18,398.66c0,0-23.16-1.43-24.76,14.55c0,0-10.37-24.26,12.64-25.42        c25-1.26,15.17,21.71,15.17,21.71S487.65,409.67,484.18,398.66z" class="color302120 svgShape"/></g></g><g><rect width="263.78" height="118.66" x="409.39" y="504.37" fill="#c2c2c2" class="colorff9f85 svgShape"/><rect width="105.86" height=".74" x="541.85" y="545.21" fill="#ffffff" class="colorfff svgShape"/><rect width="66.94" height="2.21" x="541.85" y="528.49" fill="#ffffff" class="colorfff svgShape"/><rect width="88.25" height=".74" x="541.85" y="554.78" fill="#ffffff" class="colorfff svgShape"/><rect width="91.95" height=".74" x="541.85" y="564.98" fill="#ffffff" class="colorfff svgShape"/><rect width="85.28" height=".74" x="541.85" y="574.55" fill="#ffffff" class="colorfff svgShape"/><rect width="105.86" height=".74" x="541.85" y="584.74" fill="#ffffff" class="colorfff svgShape"/><rect width="82.71" height=".74" x="541.85" y="594.31" fill="#ffffff" class="colorfff svgShape"/><defs><circle id="c" cx="474.8" cy="563.12" r="48.39" transform="rotate(-45.001 474.794 563.13)"/></defs><clipPath id="d"><use overflow="visible" xlink:href="#c"/></clipPath><g clip-path="url(#d)"><circle cx="474.8" cy="563.12" r="48.39" fill="#ffffff" transform="rotate(-45.001 474.794 563.13)" class="colorfff svgShape"/></g><g clip-path="url(#d)"><path fill="#000000" d="M457.6,543.49c-5.5,6.67-10.31,18.79-4.83,28.76c7.21,13.11,28.46,15.66,38.21,6.51       c6.44-6.04,6-15.44,5.88-18.06c-0.55-11.81-8.75-26.25-20.78-27.08C466.3,532.95,459.16,541.6,457.6,543.49z" class="color302120 svgShape"/></g><g clip-path="url(#d)"><ellipse cx="475.41" cy="599.22" fill="#a1a1a1" rx="27.19" ry="19.03" class="colorff7444 svgShape"/><path fill="#cbcbcb" d="M474.89,596.6L474.89,596.6c3.35-0.11,8.96-3.77,8.82-9.84l-3.25-14.63l-1.47-16.08l-13.26,2.67        l2.51,13.58c-0.34,5.59-0.89,7.67-1.8,14.16C465.62,592.37,471.6,596.71,474.89,596.6z" class="colorf7a3a0 svgShape"/><path fill="#bbbbbb" d="M480.27,570.22l1,6.57c-2.3-0.32-7.25-0.98-9.21-2.27c-4.28-2.82-2.19-7.18-0.3-9.66        C473.08,563.13,476.4,569.3,480.27,570.22z" class="colorf78480 svgShape"/><path fill="#cbcbcb" d="M483.71,533.76c1.7,0.48,5.68,16.88,2.57,28.54c-3.24,12.15-15.42,14.71-21.46,4.65        c-7.63-12.7-5.66-26.49-5.98-29.26C458.25,532.5,474.32,531.09,483.71,533.76z" class="colorf7a3a0 svgShape"/><path fill="#cbcbcb" d="M455.96 557.02c.53 2.67 3.14 4.41 5.81 3.87 2.67-.54 4.41-3.14 3.87-5.81-.54-2.67-3.14-4.41-5.81-3.87C457.16 551.75 455.42 554.35 455.96 557.02zM482.59 553.18c.53 2.67 3.14 4.41 5.81 3.87 2.67-.54 4.41-3.14 3.87-5.81-.54-2.67-3.14-4.41-5.81-3.87C483.79 547.9 482.06 550.5 482.59 553.18z" class="colorf7a3a0 svgShape"/><path fill="#000000" d="M473.57,537.4c0,0-8.52,16.17-20.84,14.23c0,0-2.7-22.42,20.27-23.3c23.02-0.88,20.46,19.31,20.46,19.31        S481.17,550.45,473.57,537.4z" class="color302120 svgShape"/></g></g><g><path fill="#959595" d="M294.2,418.34c0,0.58-0.99,1.06-2.2,1.06c-1.22,0-2.2-0.47-2.2-1.06c0-0.58,0.99-1.06,2.2-1.06     C293.21,417.28,294.2,417.75,294.2,418.34z" class="coloree8a3c svgShape"/></g><g><polygon fill="#acacac" points="653.44 401.97 653.44 452.58 688.09 452.58 694.75 459.58 701.41 452.58 750 452.35 750 401.74" class="color599bff svgShape"/><path fill="#ffffff" d="M739.18 424.13h-35.71c-.2 0-.37-.16-.37-.37 0-.2.16-.37.37-.37h35.71c.2 0 .37.16.37.37C739.54 423.96 739.38 424.13 739.18 424.13zM721.32 416.21h-17.85c-.2 0-.37-.16-.37-.37 0-.2.16-.37.37-.37h17.85c.2 0 .37.16.37.37C721.69 416.04 721.53 416.21 721.32 416.21zM739.18 431.03h-35.71c-.2 0-.37-.16-.37-.37 0-.2.16-.37.37-.37h35.71c.2 0 .37.16.37.37C739.54 430.86 739.38 431.03 739.18 431.03zM739.18 437.71h-35.71c-.2 0-.37-.16-.37-.37 0-.2.16-.37.37-.37h35.71c.2 0 .37.16.37.37C739.54 437.54 739.38 437.71 739.18 437.71z" class="colorfff svgShape"/><circle cx="677.41" cy="425.96" r="15.12" fill="#ffffff" transform="rotate(-80.758 677.396 425.98)" class="colorfff svgShape"/><path fill="#9f9f9f" d="M681.83 421.94c0 2.44-1.98 4.42-4.42 4.42-2.44 0-4.42-1.98-4.42-4.42 0-2.44 1.98-4.42 4.42-4.42C679.85 417.52 681.83 419.5 681.83 421.94zM684.76 433.24c-.25-3.84-3.44-6.88-7.35-6.88-3.9 0-7.09 3.04-7.35 6.88H684.76z" class="color408eff svgShape"/></g><g><polygon fill="#acacac" points="653.44 541 653.44 591.61 688.09 591.61 694.75 598.61 701.41 591.61 750 591.38 750 540.77" class="color599bff svgShape"/><path fill="#ffffff" d="M739.18 563.16h-35.71c-.2 0-.37-.16-.37-.37 0-.2.16-.37.37-.37h35.71c.2 0 .37.16.37.37C739.54 563 739.38 563.16 739.18 563.16zM721.32 555.24h-17.85c-.2 0-.37-.16-.37-.37s.16-.37.37-.37h17.85c.2 0 .37.16.37.37S721.53 555.24 721.32 555.24zM739.18 570.06h-35.71c-.2 0-.37-.16-.37-.37 0-.2.16-.37.37-.37h35.71c.2 0 .37.16.37.37C739.54 569.89 739.38 570.06 739.18 570.06zM739.18 576.74h-35.71c-.2 0-.37-.16-.37-.37s.16-.37.37-.37h35.71c.2 0 .37.16.37.37S739.38 576.74 739.18 576.74z" class="colorfff svgShape"/><circle cx="677.41" cy="565" r="15.12" fill="#ffffff" transform="rotate(-80.781 677.423 564.985)" class="colorfff svgShape"/><path fill="#9f9f9f" d="M681.83 560.97c0 2.44-1.98 4.42-4.42 4.42-2.44 0-4.42-1.98-4.42-4.42 0-2.44 1.98-4.42 4.42-4.42C679.85 556.55 681.83 558.53 681.83 560.97zM684.76 572.27c-.25-3.84-3.44-6.88-7.35-6.88-3.9 0-7.09 3.04-7.35 6.88H684.76z" class="color408eff svgShape"/></g><g><polygon fill="#acacac" points="653.44 253.86 653.44 304.47 688.09 304.47 694.75 311.46 701.41 304.47 750 304.23 750 253.62" class="color599bff svgShape"/><path fill="#ffffff" d="M739.18,276.01h-35.71c-0.2,0-0.37-0.16-0.37-0.37c0-0.2,0.16-0.37,0.37-0.37h35.71        c0.2,0,0.37,0.16,0.37,0.37C739.54,275.85,739.38,276.01,739.18,276.01z" class="colorfff svgShape"/><path fill="#cacaca" d="M721.32,268.08h-17.85c-0.2,0-0.35-0.16-0.35-0.35s0.16-0.35,0.35-0.35h17.85c0.2,0,0.35,0.16,0.35,0.35       S721.52,268.08,721.32,268.08z" class="colordcccb9 svgShape"/><path fill="#ffffff" d="M739.18,282.91h-35.71c-0.2,0-0.37-0.16-0.37-0.37c0-0.2,0.16-0.37,0.37-0.37h35.71        c0.2,0,0.37,0.16,0.37,0.37C739.54,282.75,739.38,282.91,739.18,282.91z" class="colorfff svgShape"/><path fill="#cacaca" d="M739.18,289.58h-35.71c-0.2,0-0.35-0.16-0.35-0.35c0-0.2,0.16-0.35,0.35-0.35h35.71       c0.2,0,0.35,0.16,0.35,0.35C739.53,289.42,739.37,289.58,739.18,289.58z" class="colordcccb9 svgShape"/><circle cx="677.41" cy="277.85" r="15.12" fill="#ffffff" transform="rotate(-80.758 677.4 277.866)" class="colorfff svgShape"/><path fill="#9f9f9f" d="M681.83 273.83c0 2.44-1.98 4.42-4.42 4.42-2.44 0-4.42-1.98-4.42-4.42 0-2.44 1.98-4.42 4.42-4.42C679.85 269.41 681.83 271.39 681.83 273.83zM684.76 285.13c-.25-3.84-3.44-6.88-7.35-6.88-3.9 0-7.09 3.04-7.35 6.88H684.76z" class="color408eff svgShape"/></g><g><path fill="#cbcbcb" d="M315.56,632.79c1.72,2.32,2.63,5.27,3.29,8.06c0.34,1.39,0.63,2.81,0.89,4.22       c0.29,1.5,0.32,3.04,0.64,4.52c0.04,0.13,0.18,0.23,0.3,0.23c2.22-0.29,4.5-0.09,6.72-0.52c2.02-0.39,3.91-1.34,5.79-2.16       c0.14-0.05,0.2-0.25,0.16-0.39c-0.13-0.46-0.21-0.95-0.43-1.38c-0.05-0.52-0.21-1.04-0.32-1.45c-0.36-1.39-0.8-2.73-1.05-4.16       c-0.32-1.89-0.59-3.81-0.91-5.72c-0.14-0.91-0.25-1.82-0.43-2.72c-0.21-1.04-0.57-2-0.54-3.07c0-0.18-0.16-0.29-0.32-0.25       c-0.04,0-0.07,0-0.09,0.02c-1.29,0.63-2.47,1.43-3.84,1.89c-1.11,0.36-2.23,0.68-3.34,0.98c-2.09,0.57-4.5,0.55-6.43,1.57       C315.54,632.52,315.49,632.68,315.56,632.79z" class="colorf7a3a0 svgShape"/><path fill="#cbcbcb" d="M315.56,632.79c1.72,2.32,2.63,5.27,3.29,8.06c0.34,1.39,0.63,2.81,0.89,4.22       c0.98-1.23,2.02-2.43,2.95-3.74c1.61-2.23,2.97-4.66,4.24-7.11c0.61-1.2,1.27-2.36,1.88-3.54c0.32-0.63,0.57-1.29,0.55-1.98       c0.18-0.09,0.27-0.3,0.18-0.48c-0.04-0.07-0.11-0.16-0.18-0.21c-0.04,0-0.07,0-0.09,0.02c-1.29,0.63-2.47,1.43-3.84,1.89       c-1.11,0.36-2.23,0.68-3.34,0.98c-2.09,0.57-4.5,0.55-6.43,1.57C315.54,632.52,315.49,632.68,315.56,632.79z" class="colorf7a3a0 svgShape"/><path fill="#000000" d="M255.03,425.22c0.34,1.48,0.73,2.97,1.02,4.47c1.27,6.56,1.64,13.4,4.27,19.62       c2.41,5.72,6.08,10.78,8.29,16.57c0.55,1.84,1.18,3.68,1.66,5.54c1.13,4.45,2.23,8.86,3.63,13.24       c1.38,4.38,2.88,8.7,4.25,13.08c1.38,4.38,2.72,8.77,4.5,13.03c0.89,2.14,1.68,4.32,2.32,6.58c0.23,0.82,0.45,1.66,0.68,2.5       c0.05,0.5,0.11,0.98,0.18,1.48c0.23,1.64,0.45,3.29,1.72,4.49c2.04,1.98,5.38,2.02,8.02,1.86c2.79-0.16,5.68-0.59,8.42-1.22       c3.02-0.7,6.11-2.04,8.49-4.07c1.57-1.36,2.84-3.4,2.61-5.43c-0.02-0.21-0.07-0.43-0.13-0.64c0.18-0.45,0.05-0.98-0.02-1.47       c-0.11-0.73-0.3-1.45-0.52-2.14c-0.32-1.07-0.73-2.11-1.09-3.18c-0.18-1.43-0.34-2.86-0.57-4.29       c-0.32-1.89-0.84-3.75-1.25-5.63c-0.43-1.91-0.7-3.88-1-5.81c-0.64-4.13-1.34-8.22-1.84-12.37c-0.46-3.9-0.79-7.79-1.36-11.69       c-2.07-14.21-5.36-28.25-8.63-42.21c-0.8-3.43-1.41-6.88-2.22-10.29c-0.32-1.34-0.59-2.68-0.95-4       c-0.21-0.75-0.48-1.52-1.05-2.06c-0.7-0.64-1.64-0.75-2.56-0.73c-1.5,0.04-3.02,0.21-4.5,0.43c-3.43,0.48-6.81,1.25-10.17,2.14       c-0.11,0.04-0.2,0.05-0.3,0.09c-3.2,0.84-6.38,1.82-9.56,2.73c-2.95,0.84-5.92,1.73-8.67,3.09c-1.52,0.73-3.66,1.77-3.97,3.65       C254.62,423.45,254.84,424.36,255.03,425.22z" class="color302120 svgShape"/><path fill="#000000" d="M271.67,430.09c-0.27,1.88-0.73,3.9-0.5,5.79c0.29,2.18,1.79,4.27,2.72,6.22       c1.16,2.48,2.25,5.02,3.36,7.54c2.2,5.06,4.4,10.11,6.65,15.14c2.22,4.97,4.52,9.9,7.04,14.73c2.48,4.77,5.11,9.47,7.58,14.24       c2.04,3.95,4.04,8.08,6.65,11.67c1.39,1.89,2.9,3.73,4.43,5.52c1.75,2.06,3.54,4.11,5.5,6c-0.02-0.21-0.07-0.43-0.13-0.64       c0.18-0.45,0.05-0.98-0.02-1.47c-0.11-0.73-0.3-1.45-0.52-2.14c-0.32-1.07-0.73-2.11-1.09-3.18c-0.18-1.43-0.34-2.86-0.57-4.29       c-0.32-1.89-0.84-3.75-1.25-5.63c-0.43-1.91-0.7-3.88-1-5.81c-0.64-4.13-1.34-8.22-1.84-12.37c-0.46-3.9-0.79-7.79-1.36-11.69       c-2.07-14.21-5.36-28.25-8.63-42.21c-0.8-3.43-1.41-6.88-2.22-10.29c-0.32-1.34-0.59-2.68-0.95-4       c-0.21-0.75-0.48-1.52-1.05-2.06c-0.7-0.64-1.64-0.75-2.56-0.73c-1.5,0.04-3.02,0.21-4.5,0.43c-3.43,0.48-6.81,1.25-10.17,2.14       c-0.11,0.04-0.2,0.05-0.3,0.09c-0.21,0.09-0.41,0.21-0.61,0.32c-1.77,1-3.77,2.29-4.9,4.02c-1.02,1.57-0.52,3.15,0.04,4.79       C272.35,424.88,272.06,427.4,271.67,430.09z" class="color302120 svgShape"/><path fill="#000000" d="M285.93,524.83c0.05,1.68,0.25,3.34,0.38,5.02c0.13,2.07,0.11,4.16,0.32,6.24       c0.2,2.14,0.54,4.29,0.93,6.42c0.88,4.54,2.14,8.99,3.48,13.42c1.36,4.5,2.9,8.95,4.57,13.35c1.66,4.32,2.9,9.24,4.5,13.56       c3,8.06,7.43,33.63,8.69,38.17c0.64,2.31,1.25,4.63,1.52,6.99c0.2,1.72,0.09,3.54,1,5.08c0.14,0.23,0.41,0.2,0.57,0.05       c0.59,0.57,2.02,0.57,2.68,0.57c1.63,0.04,3.31-0.16,4.91-0.46c0.25-0.05,0.5-0.11,0.75-0.18c1.48-0.36,2.93-0.91,4.32-1.52       c1.02-0.43,2.02-0.93,2.95-1.54c0.5-0.34,1.27-0.8,1.7-1.36c0.13,0.16,0.45,0.13,0.45-0.14c0.02-2.2-0.34-4.38-0.79-6.54       c-1.98-9.45-2.43-19.19-3.65-28.77c-0.61-4.88-1.27-9.74-1.8-14.62c-0.52-4.63-1.39-9.19-2.2-13.76       c-0.84-4.74-0.95-9.56-1.59-14.31c-0.64-4.9-1.32-9.78-1.93-14.69c-0.48-3.84-0.95-7.68-1.2-11.56       c-0.04-0.54-0.05-1.13-0.09-1.73c-0.11-1.98-0.3-4.2-1.32-5.75c-1.36-2.11-5.04-0.77-6.93-0.32c-1.79,0.41-3.61,0.55-5.41,0.84       c-2.31,0.36-4.61,0.77-6.9,1.22c-2.23,0.43-4.41,0.86-6.7,0.77c-1.22-0.04-2.18,0.16-2.72,1.36       C285.86,521.9,285.9,523.45,285.93,524.83z" class="color302120 svgShape"/><path fill="#000000" d="M314.74 571.87c.79 10.65 1.72 21.28 2.68 31.92.91 9.76 1.73 19.53 2.82 29.27 1.48-.36 2.93-.91 4.32-1.52 1.02-.43 2.02-.93 2.95-1.54.5-.34 1.27-.8 1.7-1.36.13.16.45.13.45-.14.02-2.2-.34-4.38-.79-6.54-1.98-9.45-2.43-19.19-3.65-28.77-.61-4.88-1.27-9.74-1.8-14.62-.52-4.63-1.39-9.19-2.2-13.76-.84-4.74-.95-9.56-1.59-14.31-.64-4.9-1.32-9.78-1.93-14.69-.48-3.84-.95-7.68-1.2-11.56-.04-.54-.05-1.13-.09-1.73-.02.05-.02.09-.04.12-.45 1.23-.8 2.48-1.05 3.75-.93 4.79-1.43 9.67-1.68 14.53C313.15 551.22 313.99 561.59 314.74 571.87zM305.54 486.05c1.72 0 1.72 2.67 0 2.67C303.83 488.71 303.82 486.05 305.54 486.05z" class="color302120 svgShape"/><path fill="#393939" d="M318.09,673.31c-0.36-0.87-0.11-2.1,0.01-2.93c0.31-2.19,0.63-4.35,1.05-6.53       c0.51-2.66,0.95-5.34,1.19-8.04c0.22-2.46,0.64-5.2,0.15-7.64c-0.03-0.17,0.05-0.32,0.21-0.37c1.5-0.5,3.05-0.37,4.61-0.3       c1.63,0.07,3.15-0.55,4.76-0.53c1.28,0.02,1.86,1.02,2.35,2.06c0.73,1.54,1.48,3.08,2.01,4.71c1,3.02,1.24,6.54-0.72,9.23       c-1.6,2.19-4.07,3.58-6.38,4.9c-1.62,0.93-3.11,1.93-4.58,3.1c-0.65,0.52-1.32,0.99-2.04,1.41c-0.63,0.36-1.63,0.76-2.04,1.38       c-0.26,0.4-0.87,0.05-0.64-0.37C318.04,673.37,318.07,673.34,318.09,673.31z" class="color66220c svgShape"/><path fill="#696969" d="M318.15,673.62c0.05,0.91,0.32,1.77,0.86,2.38c1.3,1.47,4.16,1.38,5.92,1.5       c3.66,0.25,7.33-0.09,10.97-0.41c3.73-0.3,7.38-0.48,11.12-0.09c3.61,0.38,7.22,0.82,10.85,0.82c3.41,0.02,6.84,0,10.26-0.36       c1.57-0.18,3.15-0.41,4.68-0.79c1.2-0.29,2.48-0.66,3.31-1.66c0.13-0.16,0.13-0.34,0.07-0.48c0.32-0.73,0.48-1.5,0.38-2.31       c-0.05-0.45-0.16-0.86-0.32-1.27c-1.29-3.2-5.7-5.24-8.81-5.54c-3.57-0.32-7.11,0.27-10.56-1c-3.06-1.13-6-2.81-8.94-4.24       c-2.97-1.45-5.93-3-8.56-5.04c-1.23-0.97-2.36-1.98-3.07-3.41c-0.59-1.18-0.88-2.52-1.16-3.82c-0.34-1.54-0.63-3.34-1.68-4.58       c-1.04-1.18-2.72-0.98-3.68,0.2c-1,1.18-0.8,2.93-0.5,4.34c0.45,2.04,1.3,3.99,2.07,5.93c0.68,1.75,1.59,3.56,0.7,5.4       c-1.41,2.91-4.75,4.06-7.31,5.67c-2.13,1.34-5.02,2.63-6.02,5.08C318.31,670.92,318.03,672.34,318.15,673.62z" class="coloraa4729 svgShape"/><path fill="#ffffff" d="M318.15 673.62c.05.91.32 1.77.86 2.38 1.3 1.47 4.16 1.38 5.92 1.5 3.66.25 7.33-.09 10.97-.41 3.73-.3 7.38-.48 11.12-.09 3.61.38 7.22.82 10.85.82 3.41.02 6.84 0 10.26-.36 1.57-.18 3.15-.41 4.68-.79 1.2-.29 2.48-.66 3.31-1.66.13-.16.13-.34.07-.48.32-.73.48-1.5.38-2.31-.05-.45-.16-.86-.32-1.27-.02.02-.02.02-.02.04-1.7.57-3.23 1.57-4.97 2.06-2.14.61-4.38 1.04-6.58 1.29-4.02.45-7.99.13-12.01-.18-4.04-.29-8.13-.52-12.19-.34-3.97.18-7.9.86-11.88.89C325.09 674.77 321.62 674.23 318.15 673.62zM351.51 665.68c.25-.42.55-.81.88-1.16.32-.34.66-.65 1.02-.94.37-.3.8-.62 1.28-.69.29-.04.5.21.37.48-.19.38-.54.69-.85.97-.33.29-.65.6-.94.93-.29.33-.47.56-.71.96-.06.09-.11.19-.16.29-.02.04-.04.09-.06.13-.01.03-.02.03-.02.04 0 .01 0 .01-.01.04-.09.23-.15.47-.27.69-.28.5-1.02.26-1.04-.28C350.97 666.63 351.26 666.1 351.51 665.68zM345.89 664.31c.31-.9.95-1.72 1.59-2.4.32-.33.7-.62 1.09-.87.17-.11.35-.23.54-.31.24-.11.45-.12.7-.13.15-.01.23.16.16.28-.03.06-.06.12-.1.18.01-.05.03-.1.04-.15-.02.39-.51.72-.77.99-.29.29-.56.6-.84.9-.13.15-.26.3-.38.45-.01.01-.03.03-.04.05-.03.04-.06.08-.09.12-.06.09-.12.17-.18.26-.23.36-.42.74-.64 1.1-.16.26-.48.37-.76.25C345.98 664.92 345.79 664.6 345.89 664.31zM340.38 661.74c.06-.15.13-.3.2-.45.12-.24.27-.47.43-.69.35-.48.75-.93 1.2-1.31.48-.41.97-.73 1.56-.95.46-.17 1.06-.35 1.52-.13.1.05.11.2.04.27-.16.16-.34.23-.52.36-.19.14-.4.26-.58.41-.35.28-.74.59-1.12.96-.19.18-.37.37-.54.57-.04.05-.08.1-.12.15-.02.02-.04.05-.06.07-.07.1-.15.2-.21.3-.13.2-.26.41-.37.62-.06.1-.1.2-.15.3-.01.03-.01.03-.02.04 0 .01-.01.02-.02.06-.05.12-.1.21-.2.3-.17.16-.4.23-.63.17-.2-.05-.42-.24-.45-.45C340.28 662.11 340.3 661.94 340.38 661.74z" class="colorfff svgShape"/><g><path fill="#cbcbcb" d="M380.48,304.24c1.5-2.06,3.63-3.13,6-3.86c1.54-0.48,3.1-0.81,4.71-0.91c1.65-0.1,2.96-0.67,4.51-1.17       c0.86-0.27,5.17-0.72,4.29,1.25c-0.45,1.02-1.69,1.62-2.72,1.87c-0.88,0.21-1.62,0.1-2.44,0.58c-0.76,0.44-1.47,0.99-2.14,1.56       c-0.01,0.01-0.01,0.03-0.03,0.04c-0.01,0-0.02,0.01-0.03,0.01c-0.01,0.01-0.01,0.01-0.02,0.02c-0.04,0.03-0.07,0.04-0.11,0.03       c-1.5,0.67-3.32,0.59-4.92,0.62c-1.11,0.02-2.22-0.02-3.33,0.04c-1.19,0.06-2.37,0.32-3.57,0.29       C380.52,304.59,380.37,304.39,380.48,304.24z" class="colorf7a3a0 svgShape"/><path fill="#cbcbcb" d="M274.21,305.19c1.04,3.88,2.31,7.65,3.65,11.44c1.39,3.9,2.61,7.85,3.91,11.78       c0.07,0.23,0.34,0.23,0.45,0.09c0.64,1.32,1.55,2.47,2.88,3.47c2.59,1.93,5.43,3.41,8.26,4.95c2.56,1.38,5.09,2.77,7.6,4.24       c0.71,0.43,1.43,0.86,2.13,1.3c1.84,1.16,3.66,2.38,5.52,3.52c4.93,3.07,10.26,5.63,15.51,8.11c1.29,0.63,2.59,1.16,3.91,1.7       c1.05,0.41,2.11,0.82,3.16,1.23c0.98,0.38,1.91,0.63,2.84,0.71c0.05,0.02,0.11,0.04,0.16,0.04c4.72,0.68,7.93-3.11,10.67-6.36       c1.77-2.11,3.73-3.93,5.7-5.83c2.45-2.36,4.65-4.95,7.13-7.27c4.56-4.27,8.63-9.08,13.4-13.14c2.47-2.09,4.95-4.13,7.27-6.38       c1.23-1.18,2.73-2.43,3.73-3.91c0.73-0.5,1.29-1.29,1.91-1.89c0.3-0.29,0.64-0.57,1.02-0.82c1.16-0.82,2.54-1.43,3.81-1.91       c1.73-0.66,3.61-1.02,5.47-1.11c1.86-0.11,3.68,0.23,5.54,0.41c1.88,0.18,3.81,0.18,5.7,0.2c1.77,0.02,3.59,0.11,5.34-0.05       c0.71-0.05,2.07-0.46,2.84-1.13c0.59-0.5,0.84-1.13,0.25-1.88c-0.09-0.13-0.25-0.04-0.3,0.07c-0.46-0.61-1.36-0.79-2.09-0.91       c-1.54-0.25-3.02-0.46-4.57-0.46c-3.61-0.04-7.02-0.3-10.53-1.18c-2.88-0.71-5.68-1.93-8.63-2.31       c-2.72-0.36-4.97,0.14-7.18,1.75c-1,0.73-1.84,1.61-2.5,2.66c-0.29,0.48-0.59,0.98-0.89,1.47c-1.57,0.98-3.02,2.23-4.41,3.41       c-1.98,1.68-3.95,3.4-5.99,5.02c-3.77,3.02-7.83,5.43-11.9,8.01c-4.04,2.56-7.93,5.36-11.83,8.13       c-3.32,2.36-6.84,4.5-10.04,7.04c-0.13,0.11-0.27,0.23-0.39,0.34c-0.57-0.48-1.14-0.95-1.73-1.39       c-3.38-2.61-6.68-5.25-9.99-7.95c-2.86-2.32-5.75-4.54-8.7-6.72c-0.55-0.63-1.27-1.14-1.89-1.7c-1.25-1.07-2.39-2.22-3.81-3.13       c-2.93-1.89-5.54-4.16-8.27-6.33c-1.23-0.95-2.59-1.72-3.86-2.61c-1.36-0.95-2.63-2.04-3.97-3c-2.68-1.91-5.45-3.88-8.47-5.18       c-1.02-0.45-2.11-0.71-3.2-0.97c0-0.07-0.04-0.13-0.13-0.16c-1.14-0.32-2.2-0.86-3.36-1.14c-0.48-0.13-1.05-0.25-1.52-0.05       c-0.09-0.04-0.18-0.07-0.27-0.11c-0.38-0.2-0.7,0.36-0.32,0.55c0.02,0.02,0.04,0.02,0.07,0.04       C272.37,301.3,273.85,303.82,274.21,305.19z" class="colorf7a3a0 svgShape"/><path fill="#cbcbcb" d="M303.07,342.45c1.84,1.16,3.66,2.38,5.52,3.52c4.93,3.07,10.26,5.63,15.51,8.11       c1.29,0.63,2.59,1.16,3.91,1.7c-1.91-1.52-3.75-3.11-5.5-4.84c-2.22-2.22-4.22-4.7-6.59-6.76c-0.98-0.86-1.98-1.68-2.88-2.64       c-0.89-0.98-1.73-2.04-2.61-3.06c-0.84-0.97-1.7-1.89-2.63-2.75c-0.43-0.38-1.13-1.07-1.77-0.93       c-0.61,0.14-0.84,0.95-1.07,1.41c-0.5,1.02-0.95,2.06-1.25,3.15C303.44,340.36,303.25,341.44,303.07,342.45z" class="colorf7a3a0 svgShape"/><path fill="#a1a1a1" d="M274.82,299.9c0.11,1.52,0.34,3.02,0.93,4.43c0.57,1.39,1.22,2.72,1.61,4.18       c0.89,3.31,1.34,6.74,2.2,10.06c0.77,2.9,1.72,5.79,2.98,8.51c1.23,2.7,2.91,4.84,5.04,6.92c2.11,2.06,3.91,4.4,5.99,6.49       c0.91,0.91,1.84,1.79,2.81,2.59c1.25,1.11,2.54,2.13,3.88,3.09c0.95,0.68,2,1.55,3.07,2.02c0.02,0,0.02,0.02,0.04,0.02       c0.45,0.2,0.77,0.36,1.13,0.04c0.79-0.7,1.25-1.91,1.63-2.88c0.52-1.34,1.05-2.68,1.55-4.04c1.04-2.93,1.91-5.95,2.79-8.94       c0.88-3,1.64-6.13,1.5-9.28c0-0.02-0.02-0.02-0.02-0.02c0-0.04,0-0.07-0.02-0.11c-0.02-0.02-0.05-0.04-0.07-0.07       c0,0,0-0.02-0.02-0.02c-0.93-1.23-2.36-2.14-3.56-3.11c-1.59-1.3-3.23-2.57-4.86-3.86c-3.11-2.47-6.27-4.91-9.49-7.26       c-3.27-2.38-6.61-4.65-10.1-6.68c-2.57-1.5-5.66-2.66-8.7-2.39C274.96,299.62,274.8,299.74,274.82,299.9z" class="colorff7444 svgShape"/><path fill="#cbcbcb" d="M358.87,333.88c1.33-0.93,2.38-2.19,3.57-3.28c1.04-0.95,2.02-1.96,3.05-2.92       c0.46-0.43,0.93-0.87,1.45-1.24c0.27-0.19,0.56-0.37,0.85-0.52c0.26-0.13,0.7-0.2,0.9-0.39c0.13-0.12,0.24,0.16,0.05,0.15       c-0.27-0.02-0.61,0.29-0.83,0.43c-0.3,0.2-0.57,0.44-0.84,0.67c-0.54,0.47-1.04,0.97-1.52,1.48c-0.91,0.97-1.85,1.86-2.82,2.76       c-1.06,0.98-2.02,2.12-3.19,2.99c-0.47,0.35-0.98,0.64-1.46,0.97c-0.54,0.37-0.95,0.79-1.4,1.26c-0.11,0.12-0.36,0.02-0.3-0.15       C356.73,335.1,358.07,334.44,358.87,333.88z" class="colorf7a3a0 svgShape"/><path fill="#ffffff" d="M373.11,312.94c0.58,0,0.58,0.91,0,0.91C372.52,313.85,372.52,312.94,373.11,312.94z" class="colorfff svgShape"/></g><g><path fill="#cbcbcb" d="M219.12,649.84c0.01-1.15,0.18-2.29,0.31-3.42c0.02-0.2,0.03-0.39,0.03-0.59c-0.02-0.3-0.04-0.6-0.05-0.89       c-0.03-0.71-0.06-1.42-0.07-2.14c-0.08-1.25-0.09-2.48,0.32-3.65c0.06-0.17,0.18-0.25,0.36-0.27c1.76-0.23,3.49,0.01,5.23,0.27       c1.98,0.3,3.93,0.44,5.93,0.52c0.18,0.01,0.3,0.1,0.37,0.21c0.07,0.03,0.13,0.09,0.16,0.19c0.22,0.81-0.19,1.69-0.34,2.48       c-0.21,1.14-0.13,2.36-0.19,3.51c-0.05,1.06-0.2,2.11-0.33,3.17c-0.11,0.89-0.16,1.77-0.22,2.65c0.04,0.19,0.08,0.37,0.05,0.58       c-0.01,0.12-0.09,0.2-0.21,0.21c-1.78,0.15-3.56,0.33-5.35,0.22c-1.68-0.1-3.33-0.54-5.02-0.55c-0.11,0.04-0.22,0.02-0.31-0.05       c-0.13-0.05-0.23-0.15-0.23-0.29c0-0.01,0-0.02,0-0.03C219.19,651.34,219.12,650.57,219.12,649.84z" class="colorf7a3a0 svgShape"/><path fill="#393939" d="M216.17,646.77c0.68-0.8,2.31-0.49,3.17-0.33c3.52,0.63,7.28,0.26,10.82-0.12       c0.79-0.09,1.98-0.42,2.72-0.02c0.97,0.53,0.49,2.36,0.43,3.19c-0.29,4.07-0.73,8.12-0.87,12.2c0.12,0.13,0.17,0.33,0.03,0.51       c-0.01,0.01-0.04,0.01-0.05,0.03c0,0.02,0,0.05,0,0.07c0,0.1-0.13,0.1-0.15,0.01c-0.43,0.19-1.18,0.01-1.54-0.05       c-1.08-0.15-2.14-0.37-3.22-0.56c-1.43-0.25-2.93-0.2-4.38-0.19c-2.05,0.02-4.09,0.14-6.13,0.33       c-0.19,0.02-0.33-0.17-0.34-0.34c-0.08-3.78-0.33-7.56-0.44-11.35c-0.02-0.78-0.19-1.56-0.22-2.34       C215.98,647.46,215.92,647.06,216.17,646.77z" class="color66220c svgShape"/><path fill="#696969" d="M211.31,672.49c0.25-1.82,0.71-3.6,1.42-5.3c0.75-1.79,1.8-3.44,2.72-5.15       c0.99-1.84,1.97-3.69,2.97-5.53c0.94-1.72,1.03-3.58,1.11-5.5c0.1-2.63,0.38-5.75,2.98-7.15c2.29-1.24,5.13-0.22,6.83,1.56       c1.95,2.05,1.85,4.88,1.75,7.51c-0.08,2.31,0.03,4.59,0.96,6.74c0.89,2.06,1.9,4.06,2.8,6.11c0.86,1.98,1.53,3.94,1.87,6.07       c0.14,0.86,0.52,2.12,0.17,3c0.24,0.13,0.27,0.56-0.06,0.68c-1.58,0.54-3.06,1.13-4.73,1.37c-1.72,0.25-3.46,0.3-5.19,0.29       c-3.81-0.02-7.63-0.08-11.42-0.56c-0.88-0.11-1.76-0.24-2.63-0.38c-0.5-0.08-1-0.15-1.37-0.53       C210.66,674.93,211.17,673.48,211.31,672.49z" class="coloraa4729 svgShape"/><path fill="#ffffff" d="M211.26 674.02c.52-1.97 2.26-3.24 3.92-4.24 4.34-2.59 9.93-3.37 14.73-1.64 2.27.82 4.97 2.36 6.25 4.5.84 1.4 1 3.23.51 4.8 0 0 0 .01 0 .01-.08.68-.14 1.4-.7 1.87-.72.6-1.93.73-2.81.85-1.43.19-2.86.17-4.3.16-3.17-.03-6.33.02-9.5-.14-1.49-.08-2.96-.21-4.44-.42-.95-.13-2.33-.11-3.13-.71-.64-.48-.62-1.26-.64-1.98C211.12 676.06 211 675.01 211.26 674.02zM219.09 663.52c.85-.4 1.91-.47 2.85-.53 1-.07 2-.04 3-.03.97.01 1.98-.03 2.92.25.4.12.77.31 1.13.51.45.24.87.33 1.36.45.14.03.13.23 0 .27-.7.2-1.43-.26-2.05-.53-.99-.43-2.1-.37-3.16-.34-1 .03-2.01.02-3.01.08-.99.06-1.92.32-2.89.44C218.95 664.12 218.83 663.65 219.09 663.52zM222.31 659.68c.13-.21.42-.27.64-.33.23-.07.47-.11.71-.15.56-.08 1.13-.09 1.7-.05 1.02.08 2.08.31 2.92.92.1.07.01.23-.1.17-.85-.46-1.92-.6-2.86-.63-.51-.02-1.02.01-1.52.1-.24.04-.48.1-.71.18-.22.07-.41.2-.64.17C222.29 660.03 222.23 659.8 222.31 659.68zM223.45 656.32c.12-.09.29-.12.44-.15.16-.03.31-.06.47-.08.32-.04.64-.07.97-.09.29-.01.59-.03.88-.01.13.01.25.02.38.03.1.01.2.06.29.08.08.02.08.14 0 .16-.09.03-.18.07-.28.08-.12.02-.24.02-.35.03-.29.03-.58.04-.88.06-.31.03-.61.06-.91.12-.15.03-.29.06-.44.1-.15.04-.3.1-.45.11C223.31 656.76 223.27 656.45 223.45 656.32z" class="colorfff svgShape"/><path fill="#000000" d="M216.61,591.97c0.11,2.81,0.2,5.61,0.3,8.42c0.16,3.88,0.34,7.76,0.59,11.62       c-0.13,1.43-0.14,2.86-0.2,4.2c-0.11,2.75-0.09,5.49,0,8.24c0.07,2.18,0.25,4.4,0.14,6.59c-0.09,1.52-0.25,3.02-0.3,4.54       c-0.05,1.25-0.13,2.72,0.38,3.9c0.46,1.05,1.63,1.47,2.68,1.72c2.84,0.68,5.75,0.27,8.65,0.34c1.27,0.02,3.07,0.27,4.18-0.5       c0.18-0.12,0.32-0.25,0.45-0.38c0.04,0,0.11,0,0.11-0.05c0.46-2.29,2.09-15.17,2.36-18.96c0.3-4.24,1.02-8.45,1.47-12.67       c0.43-4.31,0.75-8.6,0.93-12.92c0.09-2.07,0.09-4.15,0.36-6.22c0.25-2.06,0.68-4.09,0.93-6.17c0.25-2.04,0.18-4.07,0.34-6.11       c0.16-2.04,0.46-4.06,0.73-6.08c1.05-8.2,1.39-16.49,3.31-24.55c0.95-4.04,1.39-8.15,2.38-12.17c0.64-2.59,1.27-5.2,1.77-7.83       c1.14-2.59,2.25-5.11,2.93-7.93c1.68-7.02,2.56-14.24,3.79-21.36c0.64-3.63,1.36-7.22,2.14-10.81       c0.79-3.56,1.77-7.08,2.54-10.63c0.75-3.47,1.25-6.99,1.79-10.51c0.54-3.5,1.2-6.99,1.72-10.49c0.32-2.14,0.63-4.29,0.84-6.45       c0.93-0.88,1.61-2.02,2.13-3.16c1.02-2.25,1.64-4.7,2.18-7.11c0.68-2.95,1.47-5.9,1.98-8.88c0.66-3.81,0.98-7.7,0.82-11.58       c-0.02-0.23-0.2-0.41-0.43-0.41c-3.43-0.07-6.84,0.5-10.28,0.25c-3.31-0.25-6.58-0.32-9.88-0.32       c-6.13-0.02-12.28,0.09-18.39,0.45c-1.57,0.09-3.65-0.38-5.08,0.38c-1.68,0.86-2.07,3.07-2.23,4.77       c-0.52,5.93-0.71,11.88-0.66,17.85c0.04,3.02,0.14,6.02,0.02,9.04c-0.11,2.47,0.07,4.95,0.21,7.42       c-0.04,0.27-0.05,0.52-0.09,0.77c-0.27,2.57-0.45,5.16-0.7,7.74c-0.45,4.99-1.29,9.92-1.59,14.92       c-0.27,4.4-0.32,8.81-0.32,13.22c0,4.68-0.36,9.33-0.61,13.99c-0.21,4.15-0.36,8.56,0.16,12.83c-0.04,0.07-0.09,0.13-0.13,0.2       c-1.47,2.27-1.61,5.31-2.02,7.88c-0.21,1.36-0.45,2.7-0.68,4.06c-0.46,2.97-0.93,5.92-1.2,8.92c-0.2,2.14-0.36,4.29-0.5,6.43       C215.72,562.89,216.07,577.44,216.61,591.97z" class="color302120 svgShape"/><path fill="#000000" d="M216.63 548.38c.14-2.14.3-4.29.5-6.43.12-1.37.29-2.74.48-4.1.07-.5.14-1.01.22-1.51.08-.56.16-1.12.25-1.67.08-.55.16-1.09.25-1.64.01-.01.01-.01.02-.02.22-1.34.44-2.69.66-4.04.41-2.57.55-5.61 2.02-7.88.89.07 1.64.77 2.31 1.32 1.59 1.32 3.2 2.31 5.16 3.06 4.34 1.68 8.79 1.52 13.35 1.45.93-.18 1.85-.42 2.73-.73 0-.03 0-.05 0-.07 0-.23.32-.24.37-.05.02-.01.05-.01.07-.02.25-.09.48.2.41.41-.11.36-.28.67-.48.97-.17 4.29-2.32 8.39-5.03 11.62-1.79 2.11-3.38 4.24-4.7 6.67-1.29 2.41-2.34 4.93-3.32 7.49-2.14 5.58-3.72 11.33-5.92 16.87-2.18 5.54-4.41 10.99-5.72 16.83-1 4.5-1.54 9.24-3.36 13.49-.11-2.81-.2-5.61-.3-8.42C216.07 577.44 215.72 562.89 216.63 548.38zM229.59 515.75c.06-.22.17-.41.33-.57l.26-.2c.2-.12.42-.18.65-.18.18-.01.34.03.5.11.16.05.3.14.42.27.13.12.21.26.27.42.08.15.12.32.11.5-.02.11-.03.23-.05.34-.06.22-.17.41-.33.57l-.26.2c-.2.12-.42.18-.65.18-.18.01-.34-.03-.5-.11-.16-.05-.3-.14-.42-.27-.13-.12-.21-.26-.27-.42-.08-.15-.12-.32-.11-.5L229.59 515.75zM236.37 511.68c1.22 0 1.22 1.9 0 1.9C235.14 513.58 235.14 511.68 236.37 511.68z" class="color302120 svgShape"/></g><g><path fill="#a1a1a1" d="M219.65,310.62c0-1.08,0.99-1.72,1.79-2.28c1.18-0.82,2.25-1.76,3.42-2.58c0.47-0.33,0.95-0.66,1.45-0.98       c2.41-1.83,5.04-3.38,7.82-4.64c5.18-2.38,10.83-3.77,16.41-4.2c5.81-0.43,11.85,0.05,17.59,1.25c0.73,0.14,1.45,0.3,2.16,0.48       c2.7,0.66,5.58,1.36,8.01,2.73c2.56,1.47,4.2,3.61,5.65,6.13c1.86,3.2,3.22,6.7,4.66,10.1c0.43,1,0.88,2.04,1.3,3.07       c1.55,2.77,2.59,5.83,3.59,8.85c0.63,1.86,1.25,3.72,1.84,5.58c0.54,1.77,1.18,3.63,1.36,5.47c0.16,1.84,0.36,3.5,0.09,5.34       c-0.02,0.09-0.04,0.18-0.05,0.27c-0.3,1.82-0.82,3.61-1.2,5.41c-0.82,3.9-2.22,7.63-3.68,11.31       c-1.38,3.41-2.73,6.81-4.02,10.26c-0.02,0.07-0.05,0.13-0.07,0.2c0.3,3.02,0.57,6.06,1.09,9.08c0.64,3.75,1.36,7.56,2.32,11.24       c0.93,3.5,1.95,6.95,2.77,10.45c0.36,1.52,0.71,3.02,0.97,4.54c0.09,0.55,0.2,1.2,0.21,1.82c0.07,0.3,0.11,0.63,0.09,0.93       c-0.04,0.39-0.21,0.71-0.46,0.98c0.02-0.02,0.04-0.02,0.05-0.02c0.11-0.04,0.18,0.13,0.07,0.18       c-4.16,2.13-8.43,4.04-12.74,5.88c-4.27,1.8-8.67,3.36-13.22,4.32c-9.47,1.98-19.41,2.16-29.02,1.43       c-4.63-0.36-9.33-1.3-13.65-3.02c-0.09-0.04-0.14-0.11-0.18-0.18c-0.04,0.11-0.07,0.21-0.11,0.32       c-0.13,0.39-0.68,0.23-0.59-0.16c0.91-4.34,2.45-8.54,3.31-12.92c0.45-2.25,0.64-4.52,1-6.79c0.34-2.22,0.98-4.38,1.52-6.56       c1.11-4.43,2.36-8.97,2.75-13.53c0.27-2.82,0.14-5.59-0.11-8.36c-0.13-1.59-0.29-3.18-0.45-4.79       c-0.02-0.07,0.05-0.11,0.11-0.11c-0.46-2.29-1.07-4.54-1.64-6.79c-1.05-4.11-2.34-8.17-3.75-12.17       c-0.38-1.07-0.75-2.14-1.13-3.22c-2.41-6.93-4.66-13.99-5.75-21.27c-0.45-3-1.04-8.57-1.19-11.27       c-0.02-0.06-0.04-0.13-0.06-0.19C219.79,311.71,219.65,311.16,219.65,310.62z" class="colorff7444 svgShape"/><path fill="#424242" d="M263.26,299.95c-0.56-0.04-1.09-0.04-1.52-0.44c-0.28-0.25-0.51-0.59-0.72-0.93       c-0.01,0-0.02,0-0.02-0.01c-0.57-0.33-0.98-1.07-1.26-1.65c-0.13-0.28-0.25-0.62-0.28-0.96c2.92,0.22,5.82,0.63,8.66,1.22       c0.73,0.14,1.45,0.3,2.16,0.48c0.28,0.07,0.56,0.14,0.84,0.21c-0.01,0.04,0,0.08-0.03,0.12c-0.28,0.56-0.97,0.9-1.49,1.17       c-0.55,0.28-1.14,0.54-1.74,0.69C266.36,300.23,264.78,300.05,263.26,299.95z" class="color731116 svgShape"/><path fill="#cbcbcb" d="M234.12,300.14c0.45,1.2,1.57,2.47,2.11,3.09c2.29,2.68,4.91,5.15,7.9,7.02c3.11,1.95,6.36,3.07,9.97,3.57       c3.57,0.5,7.04,0.25,10.58-0.36c2.52-0.45,4.99-1.38,5.97-3.91c0.93-2.41,0.61-5.27-0.09-7.7c-0.5-1.66-1.27-3.36-2.45-4.66       c-5.74-1.2-11.78-1.68-17.59-1.25C244.95,296.37,239.31,297.76,234.12,300.14z" class="colorf7a3a0 svgShape"/><path fill="#cbcbcb" d="M267.86,299.85c-1.51,0.37-3.08,0.19-4.6,0.1c-0.56-0.04-1.09-0.04-1.52-0.44       c-0.28-0.25-0.51-0.59-0.72-0.93c-0.01,0-0.02,0-0.02-0.01c-0.57-0.33-0.98-1.07-1.26-1.65c-0.13-0.28-0.25-0.62-0.28-0.96       c2.92,0.22,5.82,0.63,8.66,1.22c0.55,0.6,1,1.3,1.38,2.03C268.97,299.47,268.42,299.71,267.86,299.85z" class="colorf7a3a0 svgShape"/></g><g><path fill="#000000" d="M273.96,258.32c0.02,0.25,0.07,0.5,0.11,0.75c0.04,1.36,0.34,2.75,0.48,4.11       c0.05,0.5,0.11,1.02,0.14,1.54c0.09,0.96,0.16,1.93,0.25,2.9c0.27,3.15,0.59,6.29,0.7,9.44c0.13,3.13-0.02,6.24-0.21,9.36       c-0.18,3.02-0.79,6.02-0.84,9.04c-0.02,0.11-0.07,0.2-0.09,0.29c-0.02,0.05,0.05,0.07,0.07,0.04c0.02-0.04,0.04-0.07,0.05-0.11       c0.02,0.04,0.09,0.04,0.09-0.04c0-0.07,0.02-0.16,0.04-0.25c0.25-0.61,0.57-1.2,0.89-1.77c0.54-0.96,1.11-1.91,1.52-2.95       c0.73-1.8,1.11-3.7,1.41-5.61c1.14-7.15,1.66-14.4,1-21.61c-0.3-3.43-0.66-6.95-1.48-10.29c-0.55-2.16-0.97-5.27-2.75-6.77       c-0.18-0.13-0.41-0.07-0.48,0.13C273.58,250.33,273.53,254.35,273.96,258.32z" class="color302120 svgShape"/><path fill="#000000" d="M274.49,295.74c-0.02,0.05,0.05,0.07,0.07,0.04c0.02-0.04,0.04-0.07,0.05-0.11       c0.02,0.04,0.09,0.04,0.09-0.04c0-0.07,0.02-0.16,0.04-0.25c0.25-0.61,0.57-1.2,0.89-1.77c0.3-1.14,0.63-2.29,0.89-3.45       c0.88-3.88,1.45-7.86,1.68-11.83c0.27-4.09,0.13-8.22-0.25-12.3c-0.23-2.54-0.09-5.63-1.7-7.76c0-0.04,0-0.07-0.02-0.11       c-0.04-0.09-0.11-0.14-0.2-0.18c-0.16-0.11-0.41-0.02-0.46,0.18c-0.11,0.41-0.13,0.8-0.09,1.2v0.29c-0.11,0-0.2,0.05-0.25,0.13       c-0.7,0.95-0.48,2.14-0.5,3.23c0,0.57-0.02,1.13-0.05,1.7c0.09,0.96,0.16,1.93,0.25,2.9c0.27,3.15,0.59,6.29,0.7,9.44       c0.13,3.13-0.02,6.24-0.21,9.36c-0.18,3.02-0.79,6.02-0.84,9.04C274.57,295.56,274.51,295.65,274.49,295.74z" class="color302120 svgShape"/><path fill="#cbcbcb" d="M243.95,298.05c0,0.2,0.18,0.32,0.34,0.34c1.57,0.16,3.06,0.66,4.61,0.95c1.39,0.27,2.81,0.25,4.22,0.39       c2.86,0.3,5.59,1.07,8.47,0.39c0.2-0.05,0.27-0.25,0.25-0.45v-0.05c-0.13-0.91-0.13-1.82-0.14-2.73       c0.2-1.79,0.61-3.54,0.23-5.29c-0.02-0.11-0.13-0.18-0.21-0.18c-1.52-0.14-2.84-1.07-4.13-1.81c-1.3-0.75-2.57-1.59-3.81-2.45       c-2.45-1.72-5.06-3.36-6.84-5.81c-0.14-0.18-0.39-0.16-0.48,0.07c0,0.02-0.02,0.05-0.02,0.07c-0.86,2.48-1.22,5.06-1.48,7.67       C244.67,292.13,244.13,295.08,243.95,298.05z" class="colorf7a3a0 svgShape"/><path fill="#cbcbcb" d="M246.44,281.5c0.09,0.41,0.21,0.82,0.36,1.2c0.02,0.09,0.09,0.14,0.16,0.18c0.63,1.88,1.61,3.65,2.61,5.31       c1.41,2.31,2.86,4.57,4.77,6.5c1.63,1.64,3.5,2.84,5.5,3.97c0.61,0.34,1.29,0.71,2,0.97c-0.13-0.91-0.13-1.82-0.14-2.73       c0.2-1.79,0.61-3.54,0.23-5.29c-0.02-0.11-0.13-0.18-0.21-0.18c-1.52-0.14-2.84-1.07-4.13-1.81c-1.3-0.75-2.57-1.59-3.81-2.45       c-2.45-1.72-5.06-3.36-6.84-5.81c-0.14-0.18-0.39-0.16-0.48,0.07C246.45,281.44,246.44,281.48,246.44,281.5z" class="colorf7a3a0 svgShape"/><path fill="#cbcbcb" d="M241.61,256.35c0.79-3.13,2.4-6.08,4.35-8.63c1.95-2.54,4.63-5.01,7.77-5.88       c3.57-0.99,7.37-1.32,10.97-0.31c1.77,0.5,3.49,1.31,4.96,2.42c0.62,0.47,1.08,1,1.49,1.55c3.8,2.35,4.35,7.57,4.74,11.62       c0.32,3.34,0.15,6.67,0.27,10.01c0.06,1.77,0.29,3.5,0.61,5.23c0.3,1.6,0.37,4.95,0.3,4.97c-0.1,1.26-0.37,2.51-0.9,3.65       c-1.01,2.22-2.81,4.2-4.49,5.94c-1.57,1.63-3.38,2.98-5,4.55c-0.84,0.81-2.15,2.42-3.48,2.47c-0.19,0.04-0.39,0.07-0.57,0.09       c-2.7,0.25-5.51-1.87-7.74-3.13c-5.23-2.97-8.41-8.68-10.69-14.05c-1.4-3.3-2.33-6.79-2.79-10.35       C240.99,263.17,240.78,259.65,241.61,256.35z" class="colorf7a3a0 svgShape"/><path fill="#000000" d="M271.64,250.19c0.18-0.89,0.27-1.76,0.29-2.67c0.03-1.49-0.08-3.31,0.8-4.6       c0.08-0.12,0.24-0.21,0.39-0.16c2.71,0.87,3.14,4.54,3.69,6.89c0.33,1.43,0.71,2.85,0.89,4.31c0.17,1.43,0.24,3.15-0.62,4.4       c-0.08,0.12-0.23,0.16-0.36,0.09c-1.11-0.57-2.28-1.1-3.15-2.03c-0.81-0.86-1.32-1.91-1.91-2.91       c-0.16-0.01-0.32-0.11-0.34-0.32C271.21,252.19,271.43,251.19,271.64,250.19z" class="color302120 svgShape"/><path fill="#cbcbcb" d="M240.21,270.77c0.15-1.35,0.85-3.01,2.48-2.84c1.68,0.18,2.57,1.63,2.85,3.15c0.2,1.04,0.27,2.1,0.44,3.14       c0.08,0.48,0.16,0.97,0.23,1.46c0.05,0.15,0.09,0.3,0.15,0.45c0.34,0.82,0.82,1.83,0.45,2.71c-0.06,0.13-0.26,0.2-0.39,0.16       c-1.69-0.59-3.15-1.47-4.28-2.89C240.93,274.6,239.98,272.77,240.21,270.77z" class="colorf7a3a0 svgShape"/><path fill="#3d3d3d" d="M241.9,268.69c0.11,0,0.12,0.18,0,0.18C241.78,268.87,241.78,268.69,241.9,268.69z" class="color6b1013 svgShape"/><path fill="#000000" d="M238.5,252.47c0.01-3.54,0.14-7.14,1.5-10.45c1.12-2.72,3.15-4.92,5.52-6.63       c5.74-4.13,12.72-4.01,19.19-1.77c2.78,0.96,5.43,2.43,7.35,4.7c2.15,2.53,2.94,5.61,2.72,8.89c-0.24,3.56-1.48,6.95-3.66,9.78       c-2.32,3.01-5.55,4.89-8.97,6.4c-0.13,0.09-0.24,0.2-0.37,0.29c-0.11,0.07-0.23-0.09-0.14-0.18c0.81-0.77,1.61-1.53,2.3-2.41       c0.74-0.93,1.37-1.95,1.95-2.98c0.02-0.04,0.05-0.08,0.07-0.12c-0.39,0.4-0.79,0.8-1.18,1.2c-1.76,1.79-3.7,3.37-5.79,4.77       c-2.11,1.41-4.34,2.67-6.59,3.84c-0.96,0.5-1.94,0.96-2.95,1.33c0.25,4.67,0.68,9.29,1.55,13.93c0.08,0.41,0.15,0.82,0.23,1.23       c1.24,4.37,2.14,8.85,4.67,12.73c0.1,0.16-0.07,0.35-0.24,0.31c-2.54-0.6-3.95-3.23-5.19-5.29c-1.9-3.15-3.91-6.24-5.45-9.6       c-1.63-3.54-2.45-7.23-3.14-11.05c-0.18-1.03-0.4-2.11-0.54-3.21c-0.5-1.77-1.34-3.39-1.96-5.11       C238.16,259.7,238.49,255.99,238.5,252.47z" class="color302120 svgShape"/><path fill="#cbcbcb" d="M266.13 276.91c.26-.26.58-.45.89-.65.28-.18.55-.37.72-.66.1-.16.3-.13.38.01.03.02.07.04.08.08.01.22.02.45-.01.67-.02.22-.04.45-.06.67-.01.08-.06.18-.14.19-.57.08-1.14.07-1.71.05C266.1 277.26 266 277.04 266.13 276.91zM256.59 275.24c.05-.03.11-.02.15.02.03.03.06.05.08.07.03.03.05.07.08.1.01.01.01.02.02.02 0 0 .02.03.01.01-.01-.02 0 .01.01.01.01.01.01.02.02.02.02.03.05.06.07.08.05.05.09.11.14.16.03.03.08.07.09.12.01.06 0 .12-.06.15-.02.01-.03.01-.05.01-.04 0-.08-.02-.11-.05-.03-.02-.05-.05-.08-.07-.05-.05-.1-.09-.15-.14-.05-.05-.1-.1-.14-.15-.04-.04-.07-.08-.09-.13-.01-.03-.03-.07-.04-.1C256.52 275.33 256.55 275.26 256.59 275.24zM255.3 275.14c.04-.04.1-.05.15-.02.03.02.07.04.1.07.03.03.05.07.07.1.03.05.06.11.09.17.06.12.1.25.14.38.02.06-.02.12-.08.14-.07.01-.11-.02-.14-.08 0-.01-.01-.01 0 0l-.01-.02c-.01-.01-.01-.03-.02-.04-.01-.03-.02-.05-.04-.08-.03-.05-.05-.11-.08-.16-.03-.05-.06-.1-.1-.15 0 0 0 0 0 0 0-.01-.01-.01-.01-.02-.01-.01-.02-.02-.03-.03-.03-.03-.04-.07-.06-.1C255.26 275.25 255.26 275.18 255.3 275.14zM253.99 274.97c.04-.03.09-.03.13-.01.04.02.08.05.11.09.02.03.04.05.06.08.04.05.07.11.1.17.06.11.12.23.18.34.03.06.02.13-.04.16-.06.03-.13.01-.16-.04-.07-.11-.13-.22-.2-.33-.03-.05-.07-.1-.11-.15-.01-.02.02.02 0 0 0-.01-.01-.01-.01-.02-.01-.01-.02-.02-.03-.03-.02-.03-.04-.05-.05-.08-.01-.01-.01-.03-.02-.04C253.93 275.05 253.96 274.99 253.99 274.97zM252.78 274.58c.03-.03.09-.04.13-.02.06.04.11.08.16.13.06.06.09.15.12.23.05.13.1.26.14.39.02.07-.02.15-.09.16-.08.02-.13-.02-.16-.09-.01-.01-.01-.03-.02-.04-.01-.01 0-.01 0 0 0-.01-.01-.01-.01-.02-.01-.03-.03-.06-.04-.09-.03-.06-.06-.12-.09-.17-.01-.03-.03-.06-.05-.08-.02-.04-.05-.07-.06-.11-.01-.03-.02-.06-.03-.09 0-.01-.01-.03-.01-.04 0-.01-.01-.01-.01-.02 0 0-.01-.02 0-.01C252.74 274.67 252.74 274.62 252.78 274.58zM274.72 273.55c.01-.05.01-.1.03-.14.02-.04.03-.09.05-.13.02-.04.04-.07.06-.11.03-.04.06-.06.11-.07.02 0 .05 0 .06.03 0 .01.01.02.01.03.02.03.01.06.01.09 0 .03-.01.06-.01.1 0 .04 0 .08 0 .12 0 .04 0 .08-.01.12-.01.08-.02.17-.03.25-.01.05-.03.1-.06.15-.02.04-.04.08-.08.11-.06.05-.15.03-.17-.05-.01-.04-.01-.09-.02-.13 0-.01 0-.02 0-.03 0 .03 0 0 0-.01 0-.03-.01-.06 0-.09C274.7 273.72 274.71 273.63 274.72 273.55zM273.66 274.16c0 .03 0-.02 0-.03 0-.03.01-.06.01-.09.01-.04.01-.09.02-.13.01-.03.03-.07.04-.1.02-.06.05-.13.07-.19.01-.03.02-.06.04-.09.02-.06.06-.09.11-.12.05-.03.13-.02.15.04.02.05.04.1.03.16-.01.03-.01.06-.02.09-.01.07-.03.13-.04.2-.01.03-.01.07-.02.1-.01.04-.03.08-.05.12-.03.06-.06.13-.1.18-.04.05-.09.08-.16.06-.06-.02-.1-.07-.1-.13C273.65 274.21 273.65 274.19 273.66 274.16zM272.59 274.29c0-.01 0-.02 0-.03 0 .01 0 .01 0 0 .02-.14.03-.28.05-.41.01-.08.07-.16.16-.16.08 0 .17.07.16.16-.02.15-.04.3-.06.45-.01.03-.01.07-.02.1-.01.04-.03.07-.05.11-.03.06-.05.13-.09.18-.03.05-.11.04-.13-.02-.02-.06-.02-.14-.02-.2 0-.04-.01-.07-.01-.11C272.58 274.34 272.59 274.32 272.59 274.29z" class="colorf7a3a0 svgShape"/></g><g><path fill="#cbcbcb" d="M124.65,378.09c-0.05,0.05-0.09,0.12-0.07,0.23c0.18,0.68-0.02,1.68,0.54,2.22       c0.68,0.64,1.93,0.59,2.77,0.5c3.36-0.39,6.65-1.29,10.01-1.66c6.45-0.73,12.92-1.25,19.37-1.97c3.25-0.34,6.49-0.75,9.74-1.02       c3.16-0.27,6.33-0.36,9.49-0.57c2.9-0.21,5.79-0.45,8.67-0.73c1.52-0.14,3.02-0.3,4.49-0.68c1.41-0.34,2.82-0.91,3.75-1.8       c1.07-0.32,1.91-1.43,2.72-2.39c1.72-2.07,3.56-3.91,5.5-5.77c2.07-2,3.88-4.29,5.77-6.47c0.23-0.29,0.48-0.55,0.71-0.84       c0.75-0.86,1.48-1.72,2.23-2.57c0.57-0.68,1.16-1.36,1.79-2.04c0.25-0.32,0.54-0.63,0.8-0.93c1.84-2.04,3.75-4.02,5.81-5.84       c1.95-1.75,4.15-3.25,5.95-5.16c0.54-0.55,1.14-1.18,1.48-1.91c0.05-0.13,0.11-0.27,0.16-0.39c0.02-0.04,0.02-0.07,0.04-0.11       c0.05-0.13,0.07-0.27,0.09-0.41c0.11-1.07-0.29-2.2-0.45-3.25c-0.45-3.02-1.07-5.95-1.75-8.94c-0.66-2.95-1.36-5.92-1.97-8.9       c-0.32-1.54-0.64-3.11-0.89-4.66c-0.14-0.88-0.2-1.73-0.52-2.54c0.04-0.04,0.07-0.07,0.11-0.09c0.02-0.02,0.02-0.04,0.04-0.05       c-0.07,0.04-0.14,0.05-0.21,0.09c-0.16,0.05-0.32,0.11-0.5,0.16c-0.02,0-0.07-0.02-0.11,0c-1.86,1.25-3.34,2.98-4.7,4.79       c-1.73,2.29-3.38,4.61-5.24,6.81c-2.11,2.5-4.31,4.95-6.36,7.49c-2.02,2.48-3.86,5.11-5.81,7.65c-0.7,0.91-1.39,1.8-2.06,2.7       c-0.2,0.23-0.36,0.46-0.54,0.68c-0.11,0.14-0.23,0.3-0.34,0.45c-2.57,3.4-5.08,6.81-7.18,10.53c-1.36,2.39-2.64,4.84-4,7.26       c-0.61,1.11-1.47,1.61-2.09,2.7c-0.05,0.09-4.9,0.13-5.88,0c-1.66-0.23-12.22,2.22-16.08,3.11c-4.41,1.04-6.36,1.84-10.81,2.65       c-4.52,0.8-9.04,1.7-13.6,2.25c-4.11,0.5-8.27,0.75-12.31,1.77c-0.2,0.05-0.27,0.23-0.23,0.41       C123.38,373.26,124.25,375.64,124.65,378.09z" class="colorf7a3a0 svgShape"/><path fill="#cbcbcb" d="M195.47,338.99c0,0.23,0.02,0.46,0.04,0.7c0.23,2.06,1.32,3.91,2.47,5.59c1.38,1.98,2.5,4.15,4.06,6       c0.84,1,1.82,1.97,2.73,2.91c1,1.02,2.04,2.06,3.22,2.86c0.04,0.04,0.07,0.05,0.13,0.07c0.75-0.86,1.48-1.72,2.23-2.57       c0.57-0.68,1.16-1.36,1.79-2.04c-0.32-0.48-0.84-0.88-1.39-1.3c-1.73-1.36-3.25-3-4.88-4.47c-1.88-1.68-3.79-3.32-5.72-4.97       c-1.2-1.02-2.45-2.45-4.09-2.77c-0.02-0.02-0.04-0.02-0.05-0.02c-0.12-0.02-0.23,0.04-0.3,0.13c-0.02-0.05-0.04-0.09-0.05-0.14       C195.61,338.86,195.45,338.9,195.47,338.99z" class="colorf7a3a0 svgShape"/><path fill="#9f9f9f" d="M100.44,327.18c0.71,0.36,1.63,0.5,2.39,0.74c0.68,0.22,1.36,0.45,2.03,0.69       c1.29,0.45,2.57,0.91,3.85,1.37c2.63,0.96,5.2,2.05,7.79,3.12c2.24,0.92,4.52,1.73,6.78,2.59c1.63,0.62,3.32,1.31,4.64,2.48       c0.17-0.19,0.57-0.17,0.64,0.14c0.88,3.88,2.24,7.64,3.04,11.53c0.82,4.02,1.93,7.98,2.98,11.95c1.04,3.9,2.23,7.8,3.42,11.66       c1.18,3.81,2.38,7.6,3.71,11.36c0.75,2.12,1.54,4.23,2.27,6.35c0.75,2.18,1.59,4.4,1.95,6.68c0.03,0.2-0.25,0.37-0.36,0.17       c-0.06,0.14-0.18,0.24-0.34,0.25c-2.11,0.05-4.11-1.16-6.02-1.91c-2.68-1.05-5.41-1.93-8.03-3.17       c-2.49-1.17-4.92-2.64-7.56-3.47c-1.43-0.45-3.75-0.89-4.73-2.24c-0.12,0.1-0.3,0.12-0.37-0.05       c-3.27-7.65-5.77-15.53-7.76-23.59c-1.03-4.14-1.95-8.3-3.16-12.4c-1.2-4.05-2.6-8.03-3.9-12.05c-0.7-2.16-1.04-4.43-1.81-6.55       c-0.66-1.82-1.78-3.43-1.9-5.41C99.99,327.2,100.26,327.09,100.44,327.18z" class="color408eff svgShape"/><path fill="#cbcbcb" d="M107.32,365.92c0.16-1.32,0.38-2.63,0.74-3.91c0.14-0.51,0.18-1.43,0.62-1.8       c0.44-0.38,1.26-0.25,1.77-0.13c0.71,0.17,1.35,0.53,2.06,0.68c0.68,0.14,1.38,0.21,2.07,0.33c0.67,0.12,1.89,0.1,2.44,0.58       c0.57,0.49,0.71,1.6,0.8,2.29c0.14,1.03,0.15,2.06,0.12,3.09c0.81,1.79,0.74,3.86,1.53,5.67c0.47,1.06,1.01,2.09,1.47,3.16       c0.39,0.91,0.86,1.84,0.97,2.84c0.16,1.46-1.1,1.85-2.33,1.85c-0.75,0-1.5-0.11-2.25-0.13c-0.93-0.02-1.95,0.17-2.86-0.11       c-0.84-0.26-1.42-1.09-1.96-1.73c-0.71-0.84-1.38-1.68-1.92-2.64c-0.62-1.1-1.12-2.27-1.66-3.41c-0.5-1.05-1.07-2.1-1.39-3.22       C107.2,368.11,107.17,367.15,107.32,365.92z" class="colorf7a3a0 svgShape"/><path fill="#a1a1a1" d="M195.16,340.13c0.43,0.68,0.96,1.34,1.39,1.98c0.63,0.95,1.23,1.89,1.93,2.79       c1.34,1.75,3.06,3.06,4.79,4.4c2.25,1.73,4.59,3.63,7.06,5.25c1.95,1.27,3.97,2.39,6.09,3.15c0.14,0.05,0.25,0,0.34-0.09       c0.02,0.02,0.05,0.02,0.07,0.02c0.46-0.25,0.82-1.43,1.04-1.91c0.39-0.91,0.73-1.82,1.09-2.73c0.79-1.98,1.57-3.95,2.7-5.79       c1.72-2.82,3.29-5.45,4.5-8.52c0.05-0.13,0.11-0.27,0.16-0.39c0.02-0.04,0.02-0.07,0.04-0.11c0.05-0.13,0.07-0.27,0.09-0.41       c0.11-1.07-0.29-2.2-0.45-3.25c-0.45-3.02-1.07-5.95-1.75-8.94c-0.66-2.95-1.36-5.92-1.97-8.9c-0.32-1.54-0.64-3.11-0.89-4.66       c-0.14-0.88-0.2-1.73-0.52-2.54c0.04-0.04,0.07-0.07,0.11-0.09c0.02-0.02,0.02-0.04,0.04-0.05c-0.07,0.04-0.14,0.05-0.21,0.09       c-0.16,0.05-0.32,0.11-0.5,0.16c-0.02,0-0.07-0.02-0.11,0c-1.86,1.25-3.34,2.98-4.7,4.79c-1.73,2.29-3.38,4.61-5.24,6.81       c-2.11,2.5-4.31,4.95-6.36,7.49c-2.02,2.48-3.86,5.11-5.81,7.65C197.11,337.59,196.13,338.86,195.16,340.13z" class="colorff7444 svgShape"/><path fill="#ffffff" d="M172.75 363.35c.98 0 .98 1.52 0 1.52C171.77 364.86 171.77 363.35 172.75 363.35zM170.3 364.6c.66 0 .66 1.02 0 1.02C169.64 365.62 169.64 364.6 170.3 364.6z" class="colorfff svgShape"/></g></g></svg>