<svg xmlns="http://www.w3.org/2000/svg" enable-background="new 0 0 5000 4000" viewBox="0 0 5000 4000"><path fill="#f6f6f6" d="M4240.754,1350.139C3986.133,211.526,2839.513,268.165,2226.929,696.164    c-302.638,211.445-450.405,331.076-623.611,555.708c-190.027,246.453-553.776,415.449-553.776,415.449    C451.96,1996.148,617.806,2766.111,883.516,2991.972c622.268,528.947,1244.312-236.946,2081.691-245.295    C3883.489,2737.521,4468.337,2367.857,4240.754,1350.139z" class="coloredf1ff svgShape"/><path fill="#ededed" d="M1671.931,1531.827H625.239c-48.411,0-87.657-39.245-87.657-87.657V962.749       c0-48.411,39.245-87.657,87.657-87.657h1046.692c48.411,0,87.657,39.245,87.657,87.657v481.421       C1759.587,1492.581,1720.342,1531.827,1671.931,1531.827z" class="colordbe2ff svgShape"/><path fill="#e8e8e8" d="M1681.807,1007.833H615.363c-3.59,0-6.5-2.91-6.5-6.5s2.91-6.5,6.5-6.5h1066.443        c3.59,0,6.5,2.91,6.5,6.5S1685.396,1007.833,1681.807,1007.833z" class="colord1daff svgShape"/><circle cx="1489.479" cy="941.886" r="29.564" fill="#e8e8e8" class="colord1daff svgShape"/><circle cx="1570.86" cy="941.886" r="29.564" fill="#e8e8e8" class="colord1daff svgShape"/><circle cx="1652.243" cy="941.886" r="29.564" fill="#e8e8e8" class="colord1daff svgShape"/><path fill="#e8e8e8" d="M1669.83 1126.293H639.318c-13.23 0-23.954-10.725-23.954-23.954 0-13.23 10.725-23.954 23.954-23.954H1669.83c13.229 0 23.954 10.725 23.954 23.954C1693.784 1115.568 1683.059 1126.293 1669.83 1126.293zM722.683 1272.69h-93.407c-7.684 0-13.913-6.229-13.913-13.913v-86.511c0-7.684 6.229-13.913 13.913-13.913h93.407c7.684 0 13.913 6.229 13.913 13.913v86.511C736.596 1266.461 730.367 1272.69 722.683 1272.69zM911.444 1454.776H629.276c-7.684 0-13.913-6.229-13.913-13.913v-55.73c0-7.684 6.229-13.913 13.913-13.913h282.168c7.684 0 13.913 6.229 13.913 13.913v55.73C925.357 1448.547 919.128 1454.776 911.444 1454.776zM722.683 1352.658h-93.407c-7.684 0-13.913-6.229-13.913-13.913v-24.257c0-7.684 6.229-13.913 13.913-13.913h93.407c7.684 0 13.913 6.229 13.913 13.913v24.257C736.596 1346.429 730.367 1352.658 722.683 1352.658zM911.444 1352.658H776.216c-7.684 0-13.913-6.229-13.913-13.913v-166.479c0-7.684 6.229-13.913 13.913-13.913h135.229c7.684 0 13.913 6.229 13.913 13.913v166.479C925.357 1346.429 919.128 1352.658 911.444 1352.658zM1387.204 1194.09H971.775c-6.627 0-12-5.373-12-12s5.373-12 12-12h415.429c6.627 0 12 5.373 12 12S1393.832 1194.09 1387.204 1194.09zM1387.204 1248.627h-141.81c-6.627 0-12-5.373-12-12s5.373-12 12-12h141.81c6.627 0 12 5.373 12 12S1393.832 1248.627 1387.204 1248.627zM1177.952 1248.627H971.775c-6.627 0-12-5.373-12-12s5.373-12 12-12h206.177c6.627 0 12 5.373 12 12S1184.58 1248.627 1177.952 1248.627zM1387.204 1303.164H971.775c-6.627 0-12-5.373-12-12s5.373-12 12-12h415.429c6.627 0 12 5.373 12 12S1393.832 1303.164 1387.204 1303.164zM1387.204 1357.702h-122.03c-6.627 0-12-5.373-12-12s5.373-12 12-12h122.03c6.627 0 12 5.373 12 12S1393.832 1357.702 1387.204 1357.702zM1197.732 1357.702H971.775c-6.627 0-12-5.373-12-12s5.373-12 12-12h225.957c6.627 0 12 5.373 12 12S1204.36 1357.702 1197.732 1357.702zM1387.204 1412.239h-237.133c-6.627 0-12-5.373-12-12s5.373-12 12-12h237.133c6.627 0 12 5.373 12 12S1393.832 1412.239 1387.204 1412.239zM1082.63 1412.239H971.775c-6.627 0-12-5.373-12-12s5.373-12 12-12h110.854c6.627 0 12 5.373 12 12S1089.257 1412.239 1082.63 1412.239zM1387.204 1466.776h-68.529c-6.627 0-12-5.373-12-12s5.373-12 12-12h68.529c6.627 0 12 5.373 12 12S1393.832 1466.776 1387.204 1466.776zM1251.234 1466.776H971.775c-6.627 0-12-5.373-12-12s5.373-12 12-12h279.458c6.627 0 12 5.373 12 12S1257.861 1466.776 1251.234 1466.776zM1681.807 1194.09H1475.63c-6.627 0-12-5.373-12-12s5.373-12 12-12h206.177c6.627 0 12 5.373 12 12S1688.434 1194.09 1681.807 1194.09zM1681.807 1248.627H1475.63c-6.627 0-12-5.373-12-12s5.373-12 12-12h206.177c6.627 0 12 5.373 12 12S1688.434 1248.627 1681.807 1248.627zM1681.807 1303.164H1475.63c-6.627 0-12-5.373-12-12s5.373-12 12-12h206.177c6.627 0 12 5.373 12 12S1688.434 1303.164 1681.807 1303.164zM1681.807 1357.702H1475.63c-6.627 0-12-5.373-12-12s5.373-12 12-12h206.177c6.627 0 12 5.373 12 12S1688.434 1357.702 1681.807 1357.702zM1681.807 1412.239H1475.63c-6.627 0-12-5.373-12-12s5.373-12 12-12h206.177c6.627 0 12 5.373 12 12S1688.434 1412.239 1681.807 1412.239zM1681.807 1466.776H1475.63c-6.627 0-12-5.373-12-12s5.373-12 12-12h206.177c6.627 0 12 5.373 12 12S1688.434 1466.776 1681.807 1466.776z" class="colord1daff svgShape"/><g><path fill="#ededed" d="M2637.212,2670.163H1198.449c-48.411,0-87.657-39.245-87.657-87.657V1883.46       c0-48.411,39.245-87.657,87.657-87.657h1438.763c48.411,0,87.657,39.245,87.657,87.657v699.046       C2724.868,2630.917,2685.623,2670.163,2637.212,2670.163z" class="colordbe2ff svgShape"/><path fill="#e8e8e8" d="M2647.088,1928.545H1188.573c-3.59,0-6.5-2.91-6.5-6.5s2.91-6.5,6.5-6.5h1458.515        c3.59,0,6.5,2.91,6.5,6.5S2650.678,1928.545,2647.088,1928.545z" class="colord1daff svgShape"/><circle cx="2454.76" cy="1864.699" r="29.564" fill="#e8e8e8" class="colord1daff svgShape"/><circle cx="2536.141" cy="1864.699" r="29.564" fill="#e8e8e8" class="colord1daff svgShape"/><circle cx="2617.523" cy="1864.699" r="29.564" fill="#e8e8e8" class="colord1daff svgShape"/><circle cx="1269.955" cy="2118.075" r="81.382" fill="#e8e8e8" class="colord1daff svgShape"/><circle cx="1269.955" cy="2346.397" r="81.382" fill="#e8e8e8" class="colord1daff svgShape"/><circle cx="1827.76" cy="2118.075" r="81.382" fill="#e8e8e8" class="colord1daff svgShape"/><circle cx="1827.76" cy="2346.397" r="81.382" fill="#e8e8e8" class="colord1daff svgShape"/><path fill="#e8e8e8" d="M1526.353 2048.693h-134.789c-6.627 0-12-5.373-12-12s5.373-12 12-12h134.789c6.627 0 12 5.373 12 12S1532.98 2048.693 1526.353 2048.693zM1637.029 2157.203h-245.464c-6.627 0-12-5.373-12-12s5.373-12 12-12h245.464c6.627 0 12 5.373 12 12S1643.656 2157.203 1637.029 2157.203zM1637.029 2102.948h-245.464c-6.627 0-12-5.373-12-12s5.373-12 12-12h245.464c6.627 0 12 5.373 12 12S1643.656 2102.948 1637.029 2102.948zM1592.759 2211.457h-201.194c-6.627 0-12-5.372-12-12s5.373-12 12-12h201.194c6.627 0 12 5.372 12 12S1599.386 2211.457 1592.759 2211.457zM1526.353 2277.016h-134.789c-6.627 0-12-5.373-12-12s5.373-12 12-12h134.789c6.627 0 12 5.373 12 12S1532.98 2277.016 1526.353 2277.016zM1637.029 2385.524h-245.464c-6.627 0-12-5.373-12-12s5.373-12 12-12h245.464c6.627 0 12 5.373 12 12S1643.656 2385.524 1637.029 2385.524zM1637.029 2331.27h-245.464c-6.627 0-12-5.373-12-12s5.373-12 12-12h245.464c6.627 0 12 5.373 12 12S1643.656 2331.27 1637.029 2331.27zM1592.759 2439.779h-201.194c-6.627 0-12-5.372-12-12s5.373-12 12-12h201.194c6.627 0 12 5.372 12 12S1599.386 2439.779 1592.759 2439.779zM2090.375 2048.693h-134.789c-6.627 0-12-5.373-12-12s5.373-12 12-12h134.789c6.627 0 12 5.373 12 12S2097.003 2048.693 2090.375 2048.693zM2201.051 2157.203h-245.464c-6.627 0-12-5.373-12-12s5.373-12 12-12h245.464c6.627 0 12 5.373 12 12S2207.679 2157.203 2201.051 2157.203zM2201.051 2102.948h-245.464c-6.627 0-12-5.373-12-12s5.373-12 12-12h245.464c6.627 0 12 5.373 12 12S2207.679 2102.948 2201.051 2102.948zM2156.781 2211.457h-201.194c-6.627 0-12-5.372-12-12s5.373-12 12-12h201.194c6.627 0 12 5.372 12 12S2163.409 2211.457 2156.781 2211.457z" class="colord1daff svgShape"/><g><path fill="#e8e8e8" d="M2090.375 2277.016h-134.789c-6.627 0-12-5.373-12-12s5.373-12 12-12h134.789c6.627 0 12 5.373 12 12S2097.003 2277.016 2090.375 2277.016zM2201.051 2385.524h-245.464c-6.627 0-12-5.373-12-12s5.373-12 12-12h245.464c6.627 0 12 5.373 12 12S2207.679 2385.524 2201.051 2385.524zM2201.051 2331.27h-245.464c-6.627 0-12-5.373-12-12s5.373-12 12-12h245.464c6.627 0 12 5.373 12 12S2207.679 2331.27 2201.051 2331.27zM2156.781 2439.779h-201.194c-6.627 0-12-5.372-12-12s5.373-12 12-12h201.194c6.627 0 12 5.372 12 12S2163.409 2439.779 2156.781 2439.779z" class="colord1daff svgShape"/></g><path fill="#e8e8e8" d="M2609.458 2427.779H2323.31c-20.782 0-37.63-16.847-37.63-37.63v-315.826c0-20.782 16.847-37.63 37.63-37.63h286.148c20.782 0 37.63 16.848 37.63 37.63v315.826C2647.088 2410.932 2630.24 2427.779 2609.458 2427.779zM2628.273 2608.958h-1402.07c-20.782 0-37.63-16.847-37.63-37.63V2540.9c0-20.782 16.847-37.63 37.63-37.63h1402.07c20.782 0 37.63 16.847 37.63 37.63v30.428C2665.903 2592.11 2649.055 2608.958 2628.273 2608.958z" class="colord1daff svgShape"/></g><g><path fill="#ededed" d="M4604.929,2849.397H3166.166c-48.411,0-87.656-39.245-87.656-87.656v-699.046       c0-48.411,39.245-87.656,87.656-87.656h1438.763c48.412,0,87.657,39.245,87.657,87.656v699.046       C4692.586,2810.152,4653.341,2849.397,4604.929,2849.397z" class="colordbe2ff svgShape"/><path fill="#e8e8e8" d="M4614.805,2107.779H3156.29c-3.59,0-6.5-2.91-6.5-6.5s2.91-6.5,6.5-6.5h1458.515        c3.59,0,6.5,2.91,6.5,6.5S4618.395,2107.779,4614.805,2107.779z" class="colord1daff svgShape"/><circle cx="4422.477" cy="2044.606" r="29.564" fill="#e8e8e8" class="colord1daff svgShape"/><circle cx="4503.859" cy="2044.606" r="29.564" fill="#e8e8e8" class="colord1daff svgShape"/><circle cx="4585.241" cy="2044.606" r="29.564" fill="#e8e8e8" class="colord1daff svgShape"/><path fill="#e8e8e8" d="M3604.375 2771.392H3193.92c-20.782 0-37.63-16.847-37.63-37.63v-514.297c0-20.782 16.847-37.63 37.63-37.63h410.455c20.782 0 37.63 16.847 37.63 37.63v514.297C3642.005 2754.545 3625.157 2771.392 3604.375 2771.392zM4581.693 2248.061h-863.771c-18.288 0-33.113-14.825-33.113-33.112 0-18.288 14.825-33.113 33.113-33.113h863.771c18.287 0 33.112 14.825 33.112 33.113C4614.805 2233.236 4599.98 2248.061 4581.693 2248.061zM3864.104 2772.089h-141.665c-20.782 0-37.63-16.847-37.63-37.63v-393.209c0-20.782 16.847-37.63 37.63-37.63h141.665c20.782 0 37.63 16.847 37.63 37.63v393.209C3901.734 2755.242 3884.887 2772.089 3864.104 2772.089zM4132.895 2772.089h-141.665c-20.782 0-37.63-16.847-37.63-37.63v-393.209c0-20.782 16.847-37.63 37.63-37.63h141.665c20.782 0 37.63 16.847 37.63 37.63v393.209C4170.524 2755.242 4153.677 2772.089 4132.895 2772.089zM4409.089 2566.374v-205.716c-113.614 0-205.715 92.102-205.715 205.716 0 113.613 92.102 205.715 205.715 205.715 113.614 0 205.716-92.102 205.716-205.715 0-43.408-13.456-83.666-36.409-116.857L4409.089 2566.374z" class="colord1daff svgShape"/><path fill="#e8e8e8" d="M4606.277,2398.219c-37.121-53.681-99.101-88.859-169.308-88.859v205.716L4606.277,2398.219z" class="colord1daff svgShape"/></g><g><path fill="#ededed" d="M3637.214,1363.757H2198.451c-48.411,0-87.656-39.245-87.656-87.657V577.055       c0-48.411,39.245-87.657,87.656-87.657h1438.763c48.411,0,87.656,39.245,87.656,87.657V1276.1       C3724.87,1324.512,3685.625,1363.757,3637.214,1363.757z" class="colordbe2ff svgShape"/><path fill="#e8e8e8" d="M3611.485 778.663h-760.399c-19.664 0-35.605-15.941-35.605-35.605 0-19.664 15.941-35.605 35.605-35.605h760.399c19.664 0 35.605 15.941 35.605 35.605C3647.09 762.723 3631.149 778.663 3611.485 778.663zM2674.788 1133.014h-446.369c-22.005 0-39.843-17.838-39.843-39.843V747.297c0-22.005 17.838-39.843 39.843-39.843h446.369c22.005 0 39.843 17.838 39.843 39.843v345.873C2714.631 1115.176 2696.792 1133.014 2674.788 1133.014z" class="colord1daff svgShape"/><path fill="#dbdbdb" d="M2714.631,1093.171v-92.047c-41.044-34.195-151.646-123.602-179.718-118.169         c-34.663,6.708-116.799,101.801-116.799,101.801v148.258h256.674C2696.792,1133.014,2714.631,1115.176,2714.631,1093.171z" class="colorb8c5ff svgShape"/><path fill="#e1e1e1" d="M2526.624,1004.348c-9.042-9.042-137.007-132.622-174.684-120.566         c-29.369,9.398-89.873,67.788-115.127,93.081c-7.463,7.474-17.594,11.661-28.155,11.661h-20.083v104.647         c0,22.005,17.839,39.843,39.843,39.843h446.369c22.005,0,39.843-17.838,39.843-39.843v-58.5         C2674.136,1029.706,2534.351,1012.075,2526.624,1004.348z" class="colorc4cfff svgShape"/><circle cx="2451.603" cy="825.006" r="33.156" fill="#dbdbdb" class="colorb8c5ff svgShape"/><path fill="#e8e8e8" d="M3088.675 1133.014h-237.777c-19.56 0-35.416-15.856-35.416-35.416V877.377c0-19.56 15.856-35.416 35.416-35.416h237.777c19.56 0 35.416 15.856 35.416 35.416v220.221C3124.091 1117.158 3108.235 1133.014 3088.675 1133.014zM3647.09 932.234h-189.472c-6.627 0-12-5.373-12-12s5.373-12 12-12h189.472c6.627 0 12 5.373 12 12S3653.717 932.234 3647.09 932.234zM3390.177 932.234H3184c-6.628 0-12-5.373-12-12s5.372-12 12-12h206.177c6.627 0 12 5.373 12 12S3396.804 932.234 3390.177 932.234zM3647.09 986.771H3184c-6.628 0-12-5.373-12-12s5.372-12 12-12h463.09c6.628 0 12 5.373 12 12S3653.718 986.771 3647.09 986.771zM3647.09 1041.309h-122.03c-6.627 0-12-5.373-12-12s5.373-12 12-12h122.03c6.627 0 12 5.373 12 12S3653.717 1041.309 3647.09 1041.309zM3457.618 1041.309H3184c-6.627 0-12-5.373-12-12s5.373-12 12-12h273.618c6.627 0 12 5.373 12 12S3464.245 1041.309 3457.618 1041.309zM3647.09 1095.846h-284.794c-6.627 0-12-5.373-12-12s5.373-12 12-12h284.794c6.628 0 12 5.373 12 12S3653.718 1095.846 3647.09 1095.846zM3294.854 1095.846H3184c-6.627 0-12-5.373-12-12s5.373-12 12-12h110.854c6.627 0 12 5.373 12 12S3301.481 1095.846 3294.854 1095.846zM3647.09 1150.383h-68.528c-6.627 0-12-5.373-12-12s5.373-12 12-12h68.528c6.627 0 12 5.373 12 12S3653.717 1150.383 3647.09 1150.383zM3511.119 1150.383H3184c-6.627 0-12-5.373-12-12s5.373-12 12-12h327.119c6.627 0 12 5.373 12 12S3517.746 1150.383 3511.119 1150.383zM3647.09 1204.92h-345.104c-6.627 0-12-5.373-12-12s5.373-12 12-12h345.104c6.627 0 12 5.373 12 12S3653.717 1204.92 3647.09 1204.92zM3234.543 1204.92h-274.366c-6.628 0-12-5.373-12-12s5.372-12 12-12h274.366c6.627 0 12 5.373 12 12S3241.17 1204.92 3234.543 1204.92zM2892.735 1204.92h-704.16c-6.627 0-12-5.373-12-12s5.373-12 12-12h704.16c6.628 0 12 5.373 12 12S2899.363 1204.92 2892.735 1204.92zM3647.09 877.697H3184c-6.628 0-12-5.373-12-12s5.372-12 12-12h463.09c6.628 0 12 5.373 12 12S3653.718 877.697 3647.09 877.697z" class="colord1daff svgShape"/><g><path fill="#e8e8e8" d="M3647.09,622.139H2188.575c-3.59,0-6.5-2.91-6.5-6.5s2.91-6.5,6.5-6.5H3647.09        c3.59,0,6.5,2.91,6.5,6.5S3650.68,622.139,3647.09,622.139z" class="colord1daff svgShape"/><circle cx="3454.761" cy="558.254" r="29.564" fill="#e8e8e8" class="colord1daff svgShape"/><circle cx="3536.144" cy="558.254" r="29.564" fill="#e8e8e8" class="colord1daff svgShape"/><circle cx="3617.526" cy="558.254" r="29.564" fill="#e8e8e8" class="colord1daff svgShape"/></g></g><g><path fill="#dbdbdb" d="M1884.428,3160.005H837.737c-48.411,0-87.657-39.245-87.657-87.656v-481.421       c0-48.411,39.245-87.656,87.657-87.656h1046.692c48.411,0,87.657,39.245,87.657,87.656v481.421       C1972.085,3120.76,1932.84,3160.005,1884.428,3160.005z" class="colorb8c7ff svgShape"/><path fill="#e3e3e3" d="M1575.372 2855.155l-282.861-163.31c-29.002-16.744-65.255 4.186-65.255 37.675v326.62c0 33.489 36.253 54.419 65.255 37.675l282.861-163.31C1604.374 2913.76 1604.374 2871.899 1575.372 2855.155zM1894.304 2636.012H827.861c-3.59 0-6.5-2.91-6.5-6.5s2.91-6.5 6.5-6.5h1066.443c3.59 0 6.5 2.91 6.5 6.5S1897.894 2636.012 1894.304 2636.012z" class="colorc7d3ff svgShape"/><circle cx="1701.976" cy="2571.328" r="29.564" fill="#e3e3e3" class="colorc7d3ff svgShape"/><circle cx="1783.358" cy="2571.328" r="29.564" fill="#e3e3e3" class="colorc7d3ff svgShape"/><circle cx="1864.74" cy="2571.328" r="29.564" fill="#e3e3e3" class="colorc7d3ff svgShape"/></g><g><path fill="#d2d2d2" d="M426.82 2105.92h976.105c32.172 0 49.64-37.773 28.674-62.175-35.515-41.334-92.465-79.347-163.001-27.52 0 0-102.387-172.069-311.164-172.069S685.36 1975.038 685.36 1975.038s-108.509-37.403-194.413 0c-36.921 16.076-68.099 42.51-91.652 67.429C376.637 2066.44 393.833 2105.92 426.82 2105.92zM3360.56 2443.6h976.105c32.172 0 49.64-37.773 28.674-62.175-35.515-41.334-92.465-79.347-163.001-27.52 0 0-102.387-172.07-311.164-172.07S3619.1 2312.718 3619.1 2312.718s-108.509-37.403-194.413 0c-36.921 16.075-68.099 42.51-91.652 67.429C3310.376 2404.12 3327.572 2443.6 3360.56 2443.6zM3189.898 875.092h976.105c32.172 0 49.64-37.773 28.674-62.175-35.515-41.334-92.465-79.347-163.001-27.52 0 0-102.387-172.069-311.164-172.069S3448.439 744.21 3448.439 744.21s-108.509-37.403-194.413 0c-36.921 16.076-68.099 42.51-91.652 67.429C3139.715 835.612 3156.911 875.092 3189.898 875.092z" class="colora6b9ff svgShape"/></g><g><path fill="#b6b6b6" d="M3811.785,1591.471H1117.137c-62.113,0-112.465-50.353-112.465-112.465v-118.039      c0-62.113,50.352-112.465,112.465-112.465h2694.648c62.113,0,112.465,50.353,112.465,112.465v118.039      C3924.251,1541.119,3873.898,1591.471,3811.785,1591.471z" class="colorffc76e svgShape"/><path fill="#cacaca" d="M1639.14 1421.029c-5.256-4.028-11.521-7.399-18.789-10.117-7.271-2.714-15.2-5.125-23.782-7.227-7.883-2.102-15.069-4.508-21.548-7.227-6.483-2.714-11.652-6.216-15.504-10.511-3.855-4.291-5.781-9.764-5.781-16.424 0-5.954 1.708-11.037 5.124-15.242 3.417-4.204 8.188-7.489 14.322-9.854 6.13-2.365 13.226-3.548 21.286-3.548 5.428 0 10.815.789 16.161 2.365 5.342 1.577 10.334 3.679 14.979 6.307 4.64 2.628 8.45 5.609 11.431 8.935 1.577 1.228 3.326 1.84 5.256 1.84 2.8 0 5.297-1.092 7.489-3.285 2.188-2.188 3.285-4.508 3.285-6.963 0-3.326-1.753-6.656-5.255-9.986-5.781-6.13-13.447-10.947-22.994-14.453-9.55-3.502-19.667-5.256-30.351-5.256-12.088 0-22.821 2.103-32.191 6.307-9.374 4.205-16.687 10.031-21.942 17.475-5.256 7.448-7.883 16.161-7.883 26.146 0 8.06 1.354 15.024 4.073 20.891 2.714 5.872 6.57 10.865 11.563 14.979 4.993 4.118 10.86 7.534 17.606 10.249 6.742 2.718 14.145 5.038 22.205 6.963 9.107 2.279 17.122 4.907 24.044 7.884 6.919 2.981 12.351 6.746 16.292 11.299 3.942 4.558 5.913 10.339 5.913 17.344 0 5.781-1.839 10.864-5.518 15.241-3.679 4.381-8.586 7.797-14.716 10.249-6.134 2.456-13.053 3.679-20.76 3.679-9.986 0-18.966-1.749-26.936-5.256-7.974-3.502-15.373-8.582-22.205-15.241-1.93-1.926-4.118-2.891-6.569-2.891-2.981 0-5.478 1.096-7.489 3.285-2.016 2.193-3.022 4.689-3.022 7.489 0 1.753.394 3.417 1.183 4.993.788 1.577 1.794 2.891 3.022 3.941 9.107 8.409 18.567 14.543 28.38 18.395 9.809 3.852 21.195 5.781 34.162 5.781 11.735 0 22.292-2.193 31.666-6.57 9.37-4.377 16.772-10.334 22.205-17.869 5.428-7.53 8.146-16.116 8.146-25.752 0-9.107-1.445-16.773-4.336-22.994C1648.469 1430.185 1644.396 1425.061 1639.14 1421.029zM1786.821 1385.29c-5.781-5.781-12.441-10.158-19.972-13.139-7.534-2.977-15.332-4.467-23.388-4.467-10.864 0-21.154 2.849-30.877 8.54-9.723 5.695-17.606 13.928-23.65 24.702s-9.066 23.782-9.066 39.023c0 13.665 2.891 25.711 8.672 36.132 5.781 10.425 13.928 18.617 24.439 24.57 10.511 5.958 22.862 8.935 37.052 8.935 9.46 0 18.35-2.016 26.672-6.044 8.319-4.028 15.02-8.758 20.103-14.19 2.8-2.451 4.204-5.166 4.204-8.146 0-2.452-.878-4.554-2.627-6.307-1.753-1.749-3.856-2.628-6.307-2.628-2.279 0-4.558.789-6.832 2.365-2.279 2.456-5.038 4.861-8.278 7.227-3.244 2.365-7.14 4.336-11.694 5.913-4.558 1.577-9.899 2.365-16.03 2.365-9.813 0-18.395-2.234-25.752-6.701s-13.098-10.552-17.212-18.263c-3.577-6.694-5.594-14.316-6.064-22.862h95.541c2.8 0 5.255-.919 7.358-2.759 2.102-1.839 3.153-4.159 3.153-6.963-.177-9.986-2.016-18.92-5.519-26.804C1797.242 1397.904 1792.603 1391.071 1786.821 1385.29zM1713.899 1399.218c4.114-4.028 8.758-7.005 13.928-8.935 5.165-1.926 10.38-2.891 15.635-2.891 6.479 0 12.655 1.404 18.526 4.205 5.867 2.804 10.86 6.791 14.979 11.957 4.114 5.169 6.438 11.345 6.964 18.526v2.103h-82.593c.624-3.308 1.472-6.384 2.575-9.197C1706.451 1408.505 1709.781 1403.25 1713.899 1399.218zM1950.796 1369.786c-3.153 0-5.74 1.01-7.752 3.022-2.016 2.016-3.022 4.513-3.022 7.489v10.215c-2.26-3.254-5.012-6.312-8.278-9.163-4.82-4.205-10.47-7.53-16.949-9.986-6.483-2.451-13.492-3.679-21.023-3.679-11.739 0-22.295 3.022-31.665 9.066-9.374 6.044-16.818 14.367-22.336 24.964-5.519 10.602-8.278 22.821-8.278 36.658 0 13.665 2.714 25.843 8.146 36.527 5.428 10.688 12.917 19.142 22.468 25.358 9.546 6.221 20.275 9.329 32.191 9.329 7.181 0 13.837-1.273 19.971-3.811 6.13-2.538 11.472-5.781 16.03-9.723 3.974-3.44 7.215-7.081 9.723-10.921v11.052c0 2.981 1.006 5.518 3.022 7.621 2.012 2.102 4.599 3.153 7.752 3.153 2.977 0 5.473-1.051 7.489-3.153 2.012-2.103 3.022-4.64 3.022-7.621v-115.887c0-2.977-1.01-5.473-3.022-7.489C1956.27 1370.796 1953.773 1369.786 1950.796 1369.786zM1919.788 1483.308c-6.66 4.558-14.367 6.833-23.125 6.833-8.762 0-16.514-2.275-23.256-6.833-6.746-4.554-12.002-10.729-15.767-18.526-3.77-7.793-5.65-16.596-5.65-26.41 0-9.809 1.926-18.567 5.781-26.278 3.852-7.707 9.152-13.796 15.898-18.264 6.742-4.467 14.408-6.701 22.993-6.701 8.758 0 16.465 2.279 23.125 6.832 6.656 4.558 11.912 10.688 15.767 18.395 3.851 7.711 5.781 16.383 5.781 26.015 0 9.813-1.93 18.617-5.781 26.41C1931.7 1472.579 1926.444 1478.754 1919.788 1483.308zM2077.063 1370.443c-3.244-1.839-6.791-2.759-10.643-2.759-6.483 0-12.441 1.182-17.869 3.547-5.432 2.365-10.249 5.609-14.453 9.723-4.205 4.118-7.666 8.762-10.38 13.927-.933 1.775-1.76 3.566-2.497 5.372v-18.38c0-3.153-.965-5.736-2.891-7.752-1.93-2.012-4.467-3.022-7.621-3.022-2.981 0-5.477 1.01-7.489 3.022-2.016 2.016-3.022 4.599-3.022 7.752v114.311c0 2.981 1.006 5.518 3.022 7.621 2.012 2.102 4.508 3.153 7.489 3.153 2.977 0 5.474-1.051 7.489-3.153 2.012-2.103 3.022-4.64 3.022-7.621v-63.856c0-6.307 1.092-12.219 3.285-17.738 2.188-5.518 5.079-10.421 8.672-14.716 3.588-4.291 7.53-7.662 11.825-10.117 4.291-2.452 8.626-3.679 13.007-3.679 3.154 0 5.781.525 7.884 1.577 2.102 1.051 4.291 1.577 6.569 1.577 2.451 0 4.64-.919 6.57-2.759 1.925-1.839 2.891-4.599 2.891-8.277C2081.924 1374.869 2080.302 1372.283 2077.063 1370.443zM2199.125 1477.001c-2.981 0-5.301.878-6.964 2.627-1.667 1.753-3.987 3.507-6.964 5.256-2.628 1.404-5.74 2.628-9.329 3.679-3.593 1.051-8.454 1.577-14.584 1.577-9.46 0-17.783-2.275-24.964-6.833-7.186-4.554-12.79-10.684-16.818-18.395-4.032-7.707-6.044-16.465-6.044-26.278 0-9.81 2.103-18.567 6.307-26.278 4.205-7.707 9.94-13.837 17.212-18.395 7.268-4.553 15.722-6.832 25.359-6.832 4.028 0 8.056.394 12.088 1.183 4.028.788 7.095 1.708 9.197 2.759 2.275 1.228 4.073 2.497 5.387 3.811s2.714 2.456 4.205 3.416c1.486.965 3.371 1.445 5.649 1.445 2.8 0 4.993-1.051 6.57-3.153 1.577-2.102 2.365-4.377 2.365-6.832 0-4.205-2.102-7.97-6.307-11.3-4.205-3.326-9.899-5.954-17.081-7.883-7.186-1.926-15.332-2.891-24.439-2.891-13.315 0-25.055 3.153-35.213 9.46-10.162 6.307-18.091 14.806-23.782 25.49-5.695 10.688-8.541 22.69-8.541 36.001 0 13.315 2.759 25.358 8.278 36.132s13.271 19.273 23.256 25.49c9.985 6.221 21.634 9.329 34.95 9.329 9.284 0 17.693-1.183 25.227-3.548 7.531-2.365 13.488-5.296 17.87-8.803 4.377-3.502 6.569-6.918 6.569-10.249 0-2.8-.833-5.165-2.497-7.095C2204.421 1477.966 2202.101 1477.001 2199.125 1477.001zM2329.333 1376.487c-6.746-4.993-15.898-7.489-27.46-7.489-6.134 0-12.002 1.097-17.606 3.285-5.609 2.192-10.688 5.124-15.242 8.803-4.558 3.679-8.323 7.842-11.299 12.482-.183.286-.351.571-.526.856v-71.151c0-2.977-.965-5.518-2.891-7.621-1.93-2.102-4.467-3.153-7.621-3.153-2.981 0-5.477 1.051-7.489 3.153-2.016 2.103-3.022 4.644-3.022 7.621v172.911c0 2.981 1.006 5.518 3.022 7.621 2.012 2.102 4.508 3.153 7.489 3.153 2.977 0 5.474-1.051 7.489-3.153 2.012-2.103 3.022-4.64 3.022-7.621v-72.002c0-6.479 1.75-12.437 5.256-17.869 3.502-5.428 8.232-9.764 14.19-13.008 5.954-3.24 12.523-4.861 19.708-4.861 7.707 0 13.796 1.622 18.263 4.861 4.467 3.244 7.662 7.58 9.592 13.008 1.926 5.432 2.891 11.39 2.891 17.869v72.002c0 2.981.961 5.518 2.891 7.621 1.926 2.102 4.467 3.153 7.621 3.153 2.977 0 5.473-1.051 7.489-3.153 2.012-2.103 3.022-4.64 3.022-7.621v-72.002c0-10.158-1.445-19.401-4.336-27.724C2340.895 1388.14 2336.075 1381.48 2329.333 1376.487zM2395.419 1477.527h-2.103c-3.679 0-6.528 1.051-8.54 3.153-2.016 2.103-3.022 5.083-3.022 8.935v5.256c0 3.679 1.006 6.569 3.022 8.672 2.012 2.102 4.861 3.153 8.54 3.153h2.103c3.852 0 6.742-1.051 8.672-3.153 1.926-2.103 2.891-4.993 2.891-8.672v-5.256c0-3.851-.965-6.832-2.891-8.935C2402.162 1478.578 2399.271 1477.527 2395.419 1477.527zM2449.025 1477.527h-2.102c-3.68 0-6.528 1.051-8.541 3.153-2.016 2.103-3.021 5.083-3.021 8.935v5.256c0 3.679 1.006 6.569 3.021 8.672 2.013 2.102 4.861 3.153 8.541 3.153h2.102c3.852 0 6.742-1.051 8.672-3.153 1.926-2.103 2.891-4.993 2.891-8.672v-5.256c0-3.851-.965-6.832-2.891-8.935C2455.768 1478.578 2452.877 1477.527 2449.025 1477.527zM2511.304 1480.68c-1.93-2.102-4.82-3.153-8.672-3.153h-2.102c-3.68 0-6.528 1.051-8.541 3.153-2.016 2.103-3.021 5.083-3.021 8.935v5.256c0 3.679 1.006 6.569 3.021 8.672 2.013 2.102 4.861 3.153 8.541 3.153h2.102c3.852 0 6.742-1.051 8.672-3.153 1.926-2.103 2.891-4.993 2.891-8.672v-5.256C2514.194 1485.764 2513.229 1482.783 2511.304 1480.68z" class="colorffd796 svgShape"/><path fill="#ffffff" d="M1176.414,1305.324c-48.067,0-87.034,38.966-87.034,87.034       c0,48.067,38.966,87.033,87.034,87.033s87.034-38.966,87.034-87.033C1263.447,1344.29,1224.481,1305.324,1176.414,1305.324z        M1176.414,1457.979c-36.242,0-65.622-29.38-65.622-65.621c0-36.242,29.38-65.622,65.622-65.622       c36.242,0,65.622,29.38,65.622,65.622C1242.036,1428.599,1212.656,1457.979,1176.414,1457.979z" class="colorfff svgShape"/><path fill="#ffffff" d="M1289.519,1549.038c-4.309,0-8.569-1.927-11.404-5.603l-60.402-78.328       c-4.853-6.292-3.685-15.327,2.607-20.18c6.292-4.854,15.328-3.685,20.18,2.607l60.402,78.328       c4.853,6.292,3.685,15.327-2.607,20.18C1295.678,1548.061,1292.586,1549.038,1289.519,1549.038z" class="colorfff svgShape"/><path fill="#cacaca" d="M1407.061,1546.649c-6.627,0-12-5.373-12-12v-229.325c0-6.627,5.373-12,12-12s12,5.373,12,12      v229.325C1419.061,1541.276,1413.688,1546.649,1407.061,1546.649z" class="colorffd796 svgShape"/></g><g><path fill="#afafaf" d="M3335.432,1468.122c-35.079-22.807-82.003-12.858-104.81,22.221      c-12.796,19.682-15.279,43.092-8.799,63.88c0.02,0.071,28.466,99.178,233.735,372.701c4.385,9.871,11.579,18.629,21.31,24.956      c26.777,17.41,62.597,9.815,80.007-16.963c6.257-9.623,9.284-20.414,9.352-31.099c0,0,29.655-29.043-206.262-409.704      C3354.173,1483.932,3345.928,1474.947,3335.432,1468.122z" class="colorde9681 svgShape"/><path fill="#d2d2d2" d="M3200.952,1501.008c0,0-5.946,32.443,11.284,80.568c17.23,48.125,219,332.371,236.523,359.723      c17.523,27.352,56.488,44.881,97.736,14.109s30.296-92.101,19.222-117.455c-11.074-25.354-182.576-346.361-213.171-376.625      C3321.949,1431.064,3228.279,1400.306,3200.952,1501.008z" class="colora6b9ff svgShape"/><path fill="#afafaf" d="M3449.245,1891.605c-0.365,1.341-0.678,2.66-0.944,3.999      c-36.741,155.617-77.642,318.05-77.642,318.05c-0.04,1.205-0.232,2.38-0.349,3.581c-1.646,16.848,10.678,31.839,27.526,33.485      c14.904,1.456,28.349-8.024,32.393-21.894c135.783-254.343,132.1-313.781,132.1-313.781c0.06-0.833,0.162-1.66,0.244-2.494      c3.104-31.788-20.148-60.074-51.936-63.178C3482.183,1846.594,3456.54,1864.932,3449.245,1891.605z" class="colorde9681 svgShape"/><path fill="#afafaf" d="M3459.595,2169.825c15.805-32.392-48.146-44.744-65.318-20.223       c-0.272,0.39-33.686,65.624-50.785,80.022c-17.998,15.156-29.307,16.709-38.158,46.14c-7.53,25.037-12.732,41.826-7.219,50.276       c5.836,8.945,15.001-5.12,19.292-18.761c4.648-14.776,25.186-43.115,31.165-27.641c4.76,12.319,13.94,54.567,13.92,68.571       c-0.031,22.839-24.973,91.035,4.37,91.407c0,0,3.446,13.254,17.349,6.054c0,0,11.436,12.786,23.012-8.626       c0,0,11.765,5.183,18.034-8.012c4.25-8.944,16.239-45.151,21.839-68.123c5.6-22.972-16.563-95.912-12.692-126.94       C3435.64,2224.076,3455.983,2177.228,3459.595,2169.825z" class="colorde9681 svgShape"/><path fill="#979797" d="M3341.254 2275.521c15.171-5.429 29.276-5.808 41.85-17.234C3376.825 2275.505 3354.831 2272.631 3341.254 2275.521zM3423.62 2338.258c-22.073-24.685-45.498-60.651-35.991-94.965C3383.728 2278.095 3405.788 2310.074 3423.62 2338.258zM3407.224 2437.044c-4.325-6.625-.963-14.728.671-21.636 4.948-21.467 12.121-42.8 15.345-64.404 4.11 22.146-8.321 43.743-13.525 64.931C3407.125 2422.539 3404.724 2431.037 3407.224 2437.044zM3384.212 2445.671c-5.35-15.678 1.716-31.923 4.812-47.342 2.862-15.498 10.213-31.421 11.536-46.292 2.43 7.829.356 16.367-1.832 24.064C3393.721 2398.835 3380.652 2422.898 3384.212 2445.671zM3366.864 2439.616c-8.158-29.176 9.099-58.385 12.175-86.925C3383.955 2381.802 3360.29 2410.961 3366.864 2439.616z" class="colorc97565 svgShape"/><path fill="#979797" d="M3377.444,2351.206c6.855,3.194,14.607,1.75,21.776,0.506         c7.238,3.039,15.699,0.517,23.053-1.192c3.137,1.782,7.011,0.132,10.018-1.165c-3.376,0.626-7.173,0.977-9.908-1.033         c-6.964,0.503-15.496,2.633-22.006-0.088c-6.995-0.33-15.03,3.402-22.127,0.822c-3.813-0.11-7.927,0.645-11.663-0.845         C3369.696,2350.435,3373.667,2351.058,3377.444,2351.206z" class="colorc97565 svgShape"/><path fill="#d2d2d2" d="M3458.565,2233.921c0,0-60.346,2.53-99.817-38.67c0,0,50.318-287.672,92.984-332.94      c42.667-45.268,108.084-10.378,121.063,28.719S3458.565,2233.921,3458.565,2233.921z" class="colora6b9ff svgShape"/><path fill="#afafaf" d="M3485.755,2899.906c0.002,0-5.217-538.922-22.027-654.36      c-8.32-62.871-62.125-111.39-127.267-111.39c-69.077,0-125.403,54.557-128.262,122.93      c-0.123,0.057-2.436,133.261,34.575,306.176c34.298,160.234,88.615,343.363,96.398,369.362      c8.779,31.78,37.896,55.118,72.469,55.118c41.521,0,75.18-33.659,75.18-75.18      C3486.821,2908.249,3486.453,2904.021,3485.755,2899.906z" class="colorde9681 svgShape"/><path fill="#6a6a6a" d="M3321.746,2113.621c0,0-164.93,6.784-143.124,202.125       c21.807,195.34,104.055,529.475,131.814,611.724c27.759,82.249,87.389,99.726,123.373,92.53       c35.983-7.197,68.86-45.843,69.889-85.939c0,0,1.949-23.531,0-76.877c0,0-1.976-425.261-17.941-583.59       C3469.793,2115.264,3364.779,2111.537,3321.746,2113.621z" class="color8c5249 svgShape"/><path fill="#000000" d="M3322.909,2851.898c-1.035,0-2.003-0.648-2.361-1.681l-27.091-78.005       c-0.453-1.305,0.237-2.729,1.541-3.182c1.307-0.455,2.729,0.238,3.182,1.541l27.091,78.005       c0.453,1.305-0.237,2.729-1.541,3.182C3323.458,2851.854,3323.181,2851.898,3322.909,2851.898z" class="color78463e svgShape"/><path fill="#afafaf" d="M3599.963,3499.994c-7.645-52.162-32.756-222.366-49.267-321.047        c-19.673-117.577-63.451-270.405-63.451-270.405c-3.868-35.792-33.07-64.637-70.21-66.882        c-41.445-2.505-77.074,29.063-79.579,70.508c-0.489,8.083,0.324,15.941,2.248,23.379c0,0.005,10.677,132.422,185.195,575.427        c-1.291,21.36,14.979,39.723,36.339,41.014c21.36,1.291,39.723-14.978,41.014-36.339        C3602.583,3510.151,3601.745,3504.854,3599.963,3499.994z" class="colorde9681 svgShape"/><path fill="#afafaf" d="M3612.015,3535.988c-8.979-22.785-11.88-40.6-11.88-40.6         c-1.824-20.315-19.219-35.913-39.862-35.234c-21.387,0.703-38.156,18.612-37.452,39.999         c0.135,4.118,0.914,8.062,2.228,11.746c2.944,27.164-75.777,26.23-107.133,25.909c-38.385-0.393-66.448,13.52-62.277,30.87         c4.171,17.35,50.845,31.898,98.397,33.262c35.534,1.019,110.877,18.853,146.622,10.991         C3636.403,3605.071,3620.994,3558.774,3612.015,3535.988z" class="colorde9681 svgShape"/><path fill="#dddddd" d="M3329.854,3580.52c0,0,0.438,9.132,2.593,12.099c3.885,5.348,29.017,15.542,60.56,21.228         c31.543,5.686,76.805-4.537,136.974,5.401c18.148,2.593,52.715,6.049,66.11,5.617s41.898-9.938,44.715-12.963         c2.816-3.025-0.209-18.58-0.209-18.58L3329.854,3580.52z" class="colore8d3d3 svgShape"/><path fill="#7c7c7c" d="M3610.769,3500.497c0,0-18.567,2.516-25.913,5.109c-7.346,2.593-17.716,12.005-23.333,17.237          c-5.617,5.232-12.963,11.579-16.419,12.078s-37.897,20.679-54.316,5.349c-2.912-2.719,9.152-6.551,9.152-6.551          s23.598-5.8,24.943-18.292c0,0-4.408-4.204-8.729-3.34c-4.321,0.864-24.122,11.142-38.889,14.259          c-40.617,8.575-60.618,6.866-80.927,10.63c-20.308,3.764-39.883,7.275-49.821,13.325s-16.23,22.873-16.663,30.219          c0,0-2.446,9.705,50.189,17.123c33.595,4.734,96.789-1.296,120.554,0c23.765,1.296,89.444,24.197,139.999-4.321          c0,0,1.117-19.876-1.818-29.814s-19.355-45.37-22.379-50.555S3614.587,3500.353,3610.769,3500.497z" class="color966363 svgShape"/><path fill="#6c6c6c" d="M3490.373 3539.606c-.655-2.637 9.567-5.885 9.567-5.885s23.598-5.801 24.943-18.293c0 0-2.725-2.587-5.988-3.28-1.01.855-1.324 2.365-2.565 4.752-2.037 3.918-9.872 6.895-16.768 10.186-6.895 3.291-7.992 5.015-9.189 8.305S3490.373 3539.606 3490.373 3539.606zM3346.517 3557.436c24.029 2.307 48.142 3.228 72.275 3.031 18.198-.093 36.613-2.847 53.499-9.837 5.558-2.392 11.066-5.046 15.972-8.61-2.648 1.429-5.412 2.623-8.198 3.745-19.435 7.791-40.491 10.726-61.335 10.767C3395.033 3556.905 3370.204 3556.592 3346.517 3557.436L3346.517 3557.436zM3547.078 3538.295c-8.779 19.875-7.729 46.729 0 66.808-.141-2.841-.577-5.613-.79-8.434C3544.36 3577.243 3544.144 3557.664 3547.078 3538.295L3547.078 3538.295zM3610.769 3500.497c0 0-18.567 2.516-25.912 5.109-7.346 2.593-17.717 12.005-23.333 17.237-4.705 4.382-10.615 9.535-14.445 11.389 0 0 9.581-2.76 24.186-10.874 12.815-7.12 35-9.554 44.354-11.962C3613.579 3506.755 3614.205 3500.367 3610.769 3500.497z" class="color825656 svgShape"/><path fill="#6a6a6a" d="M3310.58,2925.478c0,0,44.303,176.257,72.194,272.159       c31.135,107.057,102.269,290.084,102.269,290.084s69.209,14.857,124.073-9.611c0,0-64.069-427.223-105.417-544.051       c-11.558-32.655-13.396-58.489-46.412-84.174C3395.834,2802.079,3307.671,2834.051,3310.58,2925.478z" class="color8c5249 svgShape"/><path fill="#000000" d="M3504.564,3471.627c-1.03,0-1.995-0.642-2.357-1.669       c-1.283-3.635-128.766-365.424-164.948-533.886c-0.29-1.351,0.569-2.68,1.919-2.97c1.354-0.294,2.68,0.568,2.97,1.919       c36.116,168.153,163.492,529.641,164.774,533.272c0.46,1.302-0.223,2.729-1.525,3.189       C3505.122,3471.58,3504.841,3471.627,3504.564,3471.627z" class="color78463e svgShape"/><g><path fill="#c8c8c8" d="M3099.736,2113.307c0,0,16.162,168.383,30.77,212.969      c14.608,44.586,197.468,26.326,265.164-9.402s86.87-116.586,62.239-216.249c-24.631-99.662-31.359-78.978-31.359-78.978      L3099.736,2113.307z" class="colorf6af9a svgShape"/><path fill="#6a6a6a" d="M3076.624,2106.266c0,0-5.633,198.788-8.067,221.144      c-2.434,22.355,144.882,41.276,240.548,32.273c95.666-9.003,137.335-69.135,137.335-69.135s48.275-45.612,22.927-177.241      c-20.333-81.385-34.21-121.12-34.21-121.12L3076.624,2106.266z" class="color8c5249 svgShape"/></g><g><path fill="#afafaf" d="M3367.423,2262.541c0-70.905-57.48-128.385-128.385-128.385      c-58.893,0-108.519,39.656-123.645,93.72c-0.003,0-60.836,201.218-49.27,684.686c0.073,1.931,0,3.849,0,5.783      c0,41.521,33.659,75.18,75.18,75.18c35.525,0,65.29-24.641,73.148-57.762c0,0,134.967-439.613,152.066-657.911      C3367.107,2272.83,3367.423,2267.723,3367.423,2262.541z" class="colorde9681 svgShape"/><path fill="#6a6a6a" d="M3241.175,2114.236c0,0-151.406-24.49-175.052,235.529       c-7.197,67.763-18.527,265.159-23.143,441.994c-4.616,176.834,6.694,213.846,92.026,223.099       c34.956,0,81.22-26.73,99.727-70.939c0,0,7.164-22.802,13.365-68.883c0,0,86.361-309.461,111.036-457.508       C3383.809,2269.481,3396.42,2150.22,3241.175,2114.236z" class="color8c5249 svgShape"/><path fill="#000000" d="M3076.355 2830.319c-.064 0-.129-.002-.194-.008-1.377-.105-2.407-1.308-2.301-2.684 11.674-151.772 62.738-565.487 63.252-569.648.17-1.371 1.419-2.342 2.788-2.175 1.37.17 2.344 1.418 2.175 2.788-.515 4.16-51.564 417.761-63.23 569.418C3078.744 2829.322 3077.648 2830.319 3076.355 2830.319zM3271.796 2790.349c-.239 0-.482-.035-.723-.107-1.322-.398-2.07-1.793-1.672-3.115 62.739-208.117 101.766-450.915 102.152-453.344.218-1.363 1.496-2.293 2.862-2.075 1.363.217 2.293 1.499 2.075 2.862-.388 2.432-39.467 245.563-102.303 454C3273.862 2789.65 3272.87 2790.349 3271.796 2790.349z" class="color78463e svgShape"/></g><g><path fill="#afafaf" d="M3198.967,2932.033c0,0-0.111-0.055-0.321-0.158c0.797-4.389,1.217-8.91,1.217-13.529       c0-41.521-33.659-75.18-75.18-75.18c-39.531,0-71.935,30.511-74.95,69.269c-0.231,0.128-0.101,1.542-0.101,1.542       c-0.083,1.446-0.13,2.903-0.13,4.369c0,6.214,0.76,12.25,2.181,18.026l53.916,588.622c0,21.399,17.348,38.747,38.747,38.747       s38.747-17.348,38.747-38.747C3183.091,3524.993,3234.561,3159.5,3198.967,2932.033z" class="colorde9681 svgShape"/><path fill="#afafaf" d="M3196.521,3569.523c-9.767-19.02-13.43-44.53-13.43-44.53c0-21.399-17.347-38.747-38.747-38.747       s-38.747,17.348-38.747,38.747c0,2.236,0.2,4.425,0.563,6.557c-5.043,35.024-71.053,37.973-106.523,43.114       c-35.47,5.14-82.762,17.992-78.65,42.153c4.113,24.16,125.934,23.226,156.262,21.684c30.33-1.542,79.688,8.132,110.017,0.421       C3217.597,3631.209,3206.288,3588.543,3196.521,3569.523z" class="colorde9681 svgShape"/><path fill="#dddddd" d="M2897.622,3612.289c0,0,0,9.792,2.67,12.462c1.605,1.605,32.936,12.614,65.427,18.471        c32.491,5.856,79.113-4.673,141.09,5.563c18.693,2.671,54.3,6.231,68.097,5.786c13.797-0.445,43.157-10.237,46.058-13.352        c2.901-3.116-0.215-19.138-0.215-19.138L2897.622,3612.289z" class="colore8d3d3 svgShape"/><path fill="#7c7c7c" d="M3190.038,3528.614c0,0-19.138,0.445-26.704,3.115c-7.566,2.67-18.248,12.366-24.034,17.755         c-5.786,5.389-13.352,11.927-16.913,12.441c-3.561,0.514-39.036,21.301-55.948,5.51c-3-2.801,9.427-6.747,9.427-6.747         s19.406-5.005,26.608-18.813c0,0-5.457-4.36-9.907-3.47c-4.451,0.89-24.846,11.477-40.057,14.688         c-41.837,8.832-72.548,8.585-93.467,12.462s-37.387,8.457-47.624,14.688c-10.237,6.231-13.352,24.479-13.797,32.046         c0,0,20.029,10.237,54.745,14.242c34.716,4.006,99.698-1.335,124.177,0c24.479,1.335,92.132,24.925,144.206-4.451         c0,0,1.151-20.474-1.873-30.71c-3.023-10.237-19.936-46.733-23.052-52.074         C3192.709,3533.955,3193.971,3528.465,3190.038,3528.614z" class="color966363 svgShape"/><path fill="#6c6c6c" d="M3066.468 3565.401c1.998-2.361 9.398-4.713 9.398-4.713s19.406-5.005 26.608-18.813c0 0-2.727-2.171-5.896-3.134-.869 1.565-2.704 3.79-6.477 5.11C3083.832 3546.045 3061.326 3555.61 3066.468 3565.401L3066.468 3565.401zM2917.832 3585.116c24.753 2.329 49.59 3.269 74.446 3.063 18.74-.094 37.701-2.923 55.098-10.101 5.727-2.456 11.402-5.182 16.462-8.841-2.725 1.477-5.569 2.713-8.437 3.872-20.012 8.057-41.708 11.092-63.184 11.135C2967.807 3584.626 2942.232 3584.294 2917.832 3585.116L2917.832 3585.116zM3124.421 3565.401c-8.144 18.609-7.782 42.189-2.462 61.543.762 2.436 1.559 4.887 2.462 7.272-.305-4.189-.917-8.784-1.238-12.992C3121.496 3602.627 3121.566 3583.915 3124.421 3565.401L3124.421 3565.401zM3190.038 3528.614c0 0-19.138.445-26.704 3.115-7.567 2.67-18.249 12.366-24.035 17.755-4.846 4.514-10.934 9.822-14.878 11.732 0 0 9.869-2.843 24.913-11.201 13.2-7.334 36.051-9.841 45.687-12.322C3192.919 3532.913 3193.577 3528.48 3190.038 3528.614z" class="color825656 svgShape"/><path fill="#6a6a6a" d="M3137.063,2818.49c0,0-88.203-2.526-91.908,102.062       c-3.706,104.588,33.976,586.803,33.976,586.803s64.928,21.564,132.379,0c0,0,30.605-321.725,20.868-576.914       C3221.207,2861.558,3203.89,2824.659,3137.063,2818.49z" class="color8c5249 svgShape"/><path fill="#000000" d="M3102.472,3488.746c-1.33,0-2.437-1.048-2.496-2.391l-23.964-546.396       c-0.061-1.379,1.009-2.547,2.389-2.607c1.359-0.037,2.546,1.009,2.607,2.389l23.964,546.396       c0.06,1.379-1.009,2.547-2.389,2.607C3102.546,3488.745,3102.509,3488.746,3102.472,3488.746z" class="color78463e svgShape"/></g><path fill="#afafaf" d="M3104.74,1430.193c0,0,20.362,63.108,14.552,96.34s47.736,37.619,79.087,28.388     c31.352-9.23,74.617-40.576,69.464-80.054c-5.153-39.478-24.238-18.556-49.19-122.732     C3199.135,1270.646,3073.349,1353.376,3104.74,1430.193z" class="colorde9681 svgShape"/><g><path fill="#afafaf" d="M3075.693,1047.266c0,0-86.35,15.831-104.682,102.4        c-18.331,86.569,12.358,142.692,21.475,174.914c9.117,32.222,15.759,53.444,15.287,57.584        c-0.471,4.14-0.87,14.999,5.551,16.065c0,0-3.819,9.966,4.734,12.198c0,0,2.652,6.173,4.386,18.198        c1.734,12.024,12.813,32.577,36.861,29.109c24.048-3.468,93.097-46.348,106.215-70.94s30.198-51.753,57.85-90.975        c36.264-51.438,32.645-134.497-0.37-190.009C3189.984,1050.299,3107.377,1037.874,3075.693,1047.266z" class="colorde9681 svgShape"/><path fill="#979797" d="M3106.62,1436.374c0.001-0.001-5.451-23.611-5.451-23.611s-31.829,36.033-50.77,45.147       c2.747,0.311,5.708,0.286,8.906-0.175C3069.528,1456.26,3087.885,1447.661,3106.62,1436.374z" class="colorc97565 svgShape"/><path fill="#afafaf" d="M2984.744,1292.703c0,0,2.285,20.653-2.279,40.473c-4.564,19.82-7.28,26.724-2.16,29.278        s11.503,0.262,15.284,0.944c3.781,0.682,8.101,0.508,10.608-1.536C3006.196,1361.861,3006.884,1328.974,2984.744,1292.703z" class="colorde9681 svgShape"/><path fill="#6e6e6e" d="M2963.027,1213.066c0,0-23.635-30.46-32.436-50.733c-9.859-22.711-0.652-58.763,12.548-74.444       c13.2-15.681,43.633-2.779,59.947-9.451c16.313-6.671,59.782-44.103,123.216-39.387       c63.434,4.716,105.545,45.763,113.217,68.713c0,0,27.058,49.869,27.125,105.443s-34.865,126.605-35.276,145.624       s-1.708,26.383-3.508,26.643c-9.512,1.375-61.566,26.88-76.395,18.07c-22.358-13.283-48.586-54.866-58.374-78.075       c-7.685-18.222-21.957-74.253-39.465-96.094c-17.508-21.84-30.81-25.917-30.81-25.917S2998.617,1220.78,2963.027,1213.066z" class="color9c4040 svgShape"/><path fill="#636363" d="M3022.817,1203.459c15.857-4.225,46.858-21.732,59.289-32.267       c13.089-10.631,28.948-17.732,45.359-21.38c16.357-3.678,33.242-4.288,49.914-3.301c14.089-0.028,36.331,3.902,47.987-4.527       c-5.858,7.421-23.566,7.702-32.568,8.485c-21.416,0.355-43.176-0.481-64.169,4.499c-15.822,3.493-30.924,9.9-44.025,19.488       C3071.462,1184.549,3039.406,1201.325,3022.817,1203.459z" class="color8c3a3a svgShape"/><path fill="#6e6e6e" d="M3052.484,1224.018c0,0,17.181,60.617,19.006,76.643c0,0,12.516,8.652,16.501-6.904       c2.447-9.554,2.381-41.917,2.505-56.237S3052.484,1224.018,3052.484,1224.018z" class="color9c4040 svgShape"/><g><path fill="#afafaf" d="M3074.09,1294.549c0,0-0.179-43.909,27.314-43.271c27.493,0.638,16.594,61.662,8.466,71.61        C3101.741,1332.836,3075.415,1337.642,3074.09,1294.549z" class="colorde9681 svgShape"/><path fill="#979797" d="M3105.055,1287.424c-0.002-1.098-0.893-1.985-1.993-1.985c-4.37,0.009-7.979,2.477-10.533,5.005       c0.903-6.731,3.158-13.055,8.131-13.961c1.081-0.197,1.797-1.232,1.6-2.313c-0.197-1.081-1.232-1.798-2.313-1.6       c-14.468,2.634-11.745,31.606-11.622,32.837c0.085,0.851,0.694,1.523,1.476,1.727c0.222,0.058,0.458,0.078,0.699,0.054       c1.093-0.109,1.89-1.083,1.782-2.176c-0.189-1.901-0.322-4.609-0.264-7.607c1.015-1.611,5.386-7.978,11.05-7.989       C3104.168,1289.415,3105.057,1288.523,3105.055,1287.424z" class="colorc97565 svgShape"/></g></g><g><path fill="#dedede" d="M3076.624,2106.266c372.525-68.646,365.429-93.394,365.429-93.394      s-20.716-196.465-50.984-312.376c-30.268-115.911-85.205-213.261-89.889-221.711c-15.697-28.324-56.972-51.734-56.972-51.734      s-9.87,20.842-129.505,41.212c-2,0.34-7.988,6.921-7.988,6.921s-100.947,27.582-110.169,57.145      c-9.221,29.563,24.288,296.379,38.076,361.6C3047.176,1953.311,3064.661,2080.567,3076.624,2106.266z" class="colore5e0d8 svgShape"/><path fill="#c8c8c8" d="M3412.669,2002.806c-4.278-14.653-7.852-28.5-10.19-40.795       c-12.643-66.468-18.042-219.204-34.857-283.599c-16.816-64.395-86.318-196.041-119.051-228.032       c-14.602-8.704-61.152-10.351-127.754,24.228c-10.056,5.221-67.141,62.115-82.655,109.399       c-15.513,47.285-6.178,185.611,2.925,236.872c8.733,49.182,48.992,195.895,61.776,266.388       C3158.287,2073.67,3340.776,2028.287,3412.669,2002.806z" class="colorf6af9a svgShape"/><path fill="#d2d2d2" d="M3244.208,1427.05c0,0-86.286,31.142-130.905,34.88c0,0-47.126,13.767-77.213,30.482        c-30.087,16.715-58.51,30.093-67.281,53.073c-8.771,22.98,33.016,303.79,43.045,364.799s0.836,411.186,0.836,411.186        s186.371,23.401,295.018,6.686s196.857-54.323,196.857-54.323s-32.216-179.685-47.259-263.26        c-15.043-83.574-53.488-314.24-70.203-382.771c-16.715-68.531-35.934-142.912-43.456-157.956        c-7.522-15.043-43.31-37.608-59.683-39.28C3267.591,1428.895,3244.208,1427.05,3244.208,1427.05z" class="colora6b9ff svgShape"/><path fill="#bdbdbd" d="M3054.603 2289.116c-.023 0-.047 0-.07-.001-1.381-.038-2.468-1.188-2.43-2.568 8.748-313.953-4.064-478.194-4.195-479.817-.11-1.376.915-2.582 2.292-2.692 1.385-.118 2.582.915 2.692 2.292.131 1.625 12.966 166.094 4.209 480.356C3057.063 2288.042 3055.951 2289.116 3054.603 2289.116zM3485.52 2170.169c-1.229 0-2.301-.906-2.474-2.158-29.147-210.905-86.012-536.513-86.583-539.777-.237-1.36.672-2.655 2.032-2.893 1.365-.24 2.655.672 2.894 2.032.571 3.265 57.45 328.96 86.61 539.955.188 1.367-.767 2.629-2.135 2.818C3485.749 2170.161 3485.633 2170.169 3485.52 2170.169z" class="color839cf7 svgShape"/><path fill="#ffffff" d="M3096.55,1467.253c0,0,9.406-9.462,14.798-13.463c0,0,66.401-13.224,94.399-22.611        c27.997-9.387,33.567-14.047,33.567-14.047s14.073,4.209,16.997,10.911C3256.31,1428.043,3166.202,1470.51,3096.55,1467.253z" class="colorfff svgShape"/></g><g><ellipse cx="2428.811" cy="1328.526" fill="#ffffff" opacity=".43" rx="215.682" ry="249.412" transform="rotate(-19.669 2428.65 1328.447)" class="colorfff svgShape"/><path fill="#959595" d="M2203.096,1409.204c24.364,68.165,70.406,124.147,129.643,157.634       c29.194,16.504,60.045,26.67,91.691,30.218c8.273,0.927,16.507,1.39,24.685,1.39c24.526,0,48.56-4.162,71.727-12.442       c30.892-11.042,58.336-28.727,81.573-52.565c22.229-22.804,39.644-50.222,51.762-81.493       c24.59-63.449,24.713-135.932,0.349-204.097s-70.406-124.147-129.643-157.634c-29.195-16.504-60.044-26.67-91.691-30.218       c-33.084-3.707-65.52,0.011-96.412,11.052c-30.892,11.042-58.336,28.727-81.573,52.565       c-22.229,22.804-39.644,50.223-51.762,81.493C2178.856,1268.556,2178.732,1341.039,2203.096,1409.204z M2248.235,1222.466       c19.946-51.466,57.133-89.176,104.713-106.182c99.52-35.572,214.513,30.702,256.344,147.734       c41.831,117.031-5.101,241.182-104.619,276.753c-47.579,17.006-100.246,11.414-148.296-15.749       c-49.195-27.81-87.566-74.682-108.048-131.985C2227.849,1335.734,2227.815,1275.158,2248.235,1222.466z" class="color6177c9 svgShape"/><path fill="#959595" d="M2653.58,1917.733c3.142,0,6.334-0.62,9.407-1.93c12.203-5.202,17.878-19.311,12.676-31.513       l-140.811-330.323c-5.202-12.203-19.311-17.877-31.512-12.676c-12.203,5.202-17.878,19.311-12.676,31.513l140.811,330.323       C2635.366,1912.257,2644.245,1917.733,2653.58,1917.733z" class="color6177c9 svgShape"/><path fill="#afafaf" d="M2868.667,1943.556c-0.952-1.012-1.913-1.968-2.916-2.895       c-113.474-112.651-230.585-232.41-230.585-232.41c-1.007-0.664-1.908-1.442-2.871-2.17       c-13.504-10.208-32.726-7.535-42.933,5.968c-9.03,11.946-7.974,28.363,1.738,39.059       c145.885,248.687,198.485,276.609,198.485,276.609c0.679,0.486,1.331,1.006,1.999,1.511       c25.479,19.259,61.747,14.217,81.006-11.262C2889.828,1995.162,2887.595,1963.715,2868.667,1943.556z" class="colorde9681 svgShape"/><path fill="#afafaf" d="M2601.065,1767.999c0,0-11.118-18.467-12.468-20.041s-52.539,2.005-56.812,2.005        c-4.273,0-22.489-10.12-25.187-12.818s0-14.843,0-14.843s-10.57-9.445-11.919-10.795c-1.349-1.349,0-15.742,0-15.742        s-4.273-5.622-5.172-8.321c-0.9-2.699,1.574-18.666,1.574-18.666s-3.148-5.172-3.823-7.646        c-0.675-2.474,3.148-16.642,3.823-18.441c0.675-1.799,22.355-16.405,22.355-16.405l10.192,23.776c0,0,9.507,1.4,16.478,2.524        c5.515,0.89,24.459-0.225,32.132-0.73c1.614-0.106,2.643-1.76,2.035-3.258l-16.879-41.621c0,0,7.051,3.556,12.898,7.604        c5.847,4.048,23.388,16.642,31.259,25.187s11.192,32.833,15.465,42.953s24.513,31.934,33.058,42.504        C2658.622,1735.795,2636.372,1787.339,2601.065,1767.999z" class="colorde9681 svgShape"/><path fill="#a9a9a9" d="M2595.444,1674.186c-1.254-6.477-15.461-21.103-20.084-24.123         c-0.233-0.152-0.554-0.289-0.922-0.417c-0.074,1.135-0.96,2.13-2.199,2.211c-7.673,0.505-26.616,1.62-32.132,0.73         c-2.215-0.357-4.686-0.742-7.026-1.101c-1.9,3.839-0.857,14.116-0.394,18.473c0.55,5.174-2.432,12.585-2.025,13.888         c0.406,1.303,3.564,6.01,3.832,11.099c0.267,5.09-2.566,13.297-2.775,14.76c-0.209,1.462,5.015,3.134,6.366,8.765         c1.352,5.631-3.44,12.024-3.44,12.024s1.671,4.492,1.416,9.035c-0.193,3.425-3.161,8.246-4.612,10.411         c0.118,0.012,0.236,0.023,0.339,0.023c4.273,0,55.462-3.58,56.812-2.006c0.017,0.02,0.043,0.055,0.064,0.082         c0.554-7.836,2.656-18.254,2.656-21.641C2591.317,1722.302,2596.697,1680.664,2595.444,1674.186z" class="colord98f79 svgShape"/><path fill="#979797" d="M2490.965 1668.938c3.764 3.314 7.602 6.526 11.554 9.622 1.68 1.181 3.06 2.545 5.106 3.329.475.168 1.429.415 1.906.568 3.99 1.275 8.193 1.929 12.38 1.91 1.687.016 3.386-.047 5.12-.326.113-.018.19-.125.172-.238-2.897-1.827-6.354-2.68-9.619-3.605-2.727-.737-5.756-.932-8.542-1.319-.332-.058-.81-.121-1.114-.257-2.811-1.443-5.482-3.169-8.194-4.8 0 0-8.535-5.201-8.535-5.201C2491.009 1668.499 2490.78 1668.784 2490.965 1668.938L2490.965 1668.938zM2494.587 1695.94c4.503 2.754 11.136 6.631 15.749 9.362 1.458.838 4.76 2.881 6.293 3.338 2.176.855 4.314 1.92 6.7 1.888 1.561.048 3.149-.059 4.821-.63.119-.04.182-.17.142-.289-2.453-2.217-5.399-3.41-8.578-3.672-1.369-.116-2.999-.386-4.241-.742-2.617-1.233-9.678-4.526-12.388-5.789-2.764-1.283-5.529-2.565-8.314-3.815C2494.564 1695.492 2494.373 1695.815 2494.587 1695.94L2494.587 1695.94zM2506.526 1722.485c5.779 3.137 11.718 5.882 17.63 8.756 3.01 1.359 6.55.882 9.429-.55.15-.081.152-.311.003-.394-4.183-2.367-8.813-2.629-13.227-4.178-4.533-1.419-9.102-2.748-13.69-4.001C2506.459 1722.058 2506.319 1722.381 2506.526 1722.485L2506.526 1722.485zM2588.794 1747.948c.484-2.949.984-5.86 1.643-8.76.309-1.38 1.026-2.68 1.095-4.096.11-1.404.037-2.72-.055-4.498-.197-.818-2.224.999-2.484 1.371-1.052 1.302-1.744 2.861-1.748 4.517l.06 2.367c.008 3.075.382 6.132 1.096 9.119C2588.447 1748.174 2588.771 1748.161 2588.794 1747.948L2588.794 1747.948zM2530.661 1716.905c2.182 3.676 7.687 4.59 10.795 1.574C2538.182 1716.094 2534.473 1715.464 2530.661 1716.905L2530.661 1716.905zM2528.189 1694.126c2.182 3.676 7.687 4.59 10.795 1.574C2535.709 1693.315 2532 1692.685 2528.189 1694.126L2528.189 1694.126zM2525.264 1668.393c2.182 3.676 7.687 4.59 10.795 1.574C2532.785 1667.581 2529.075 1666.952 2525.264 1668.393L2525.264 1668.393zM2532.687 1738.574c2.181 3.676 7.687 4.59 10.794 1.574C2540.207 1737.763 2536.498 1737.133 2532.687 1738.574L2532.687 1738.574zM2509.428 1629.016c.318 1.04.536 2.073.432 2.756-.286 1.88-3.475 11.439-.787 13.163s14.556 5.128 14.556 5.128l-10.192-23.776C2513.436 1626.288 2511.804 1627.388 2509.428 1629.016z" class="colorc97565 svgShape"/><path fill="#d2d2d2" d="M2583.164,1786.482c0,0,8.728-77.063,73.916-78.768c0,0,218.965,193.239,235.262,253.273       c16.297,60.034-47.637,97.574-87.753,88.206C2764.473,2039.825,2583.164,1786.482,2583.164,1786.482z" class="colora6b9ff svgShape"/></g><g><path fill="#afafaf" d="M3113.257,1610.412c1.445-41.816-31.281-76.885-73.097-78.331      c-23.462-0.81-44.798,9.137-59.265,25.411c-0.05,0.054-70.285,75.542-198.739,392.48c-6.195,8.848-9.988,19.529-10.389,31.128      c-1.104,31.92,23.879,58.691,55.799,59.794c11.471,0.397,22.277-2.576,31.466-8.028c0,0,40.177,10.425,244.611-388.03      C3109.378,1634.622,3112.824,1622.925,3113.257,1610.412z" class="colorde9681 svgShape"/><path fill="#d2d2d2" d="M3015.719,1512.163c0,0-30.861,11.639-63.204,51.223s-171.789,359.055-186.184,388.175       s-9.38,78.166,38.257,97.631s94.598-28.172,110.606-50.737c16.009-22.565,202.562-335.066,212.708-376.887       C3138.051,1579.747,3116.087,1483.634,3015.719,1512.163z" class="colora6b9ff svgShape"/><path fill="#bdbdbd" d="M3002.953 1855.433c-.421 0-.847-.106-1.238-.33-1.199-.685-1.615-2.212-.931-3.411l76.968-134.719c.687-1.2 2.212-1.614 3.411-.931 1.199.685 1.615 2.212.931 3.411l-76.968 134.719C3004.664 1854.98 3003.82 1855.433 3002.953 1855.433zM2779.896 1924.545c-.344 0-.692-.071-1.026-.221-1.259-.567-1.819-2.047-1.252-3.306l30.572-67.862c.567-1.26 2.047-1.82 3.307-1.252 1.259.567 1.819 2.047 1.252 3.306l-30.572 67.862C2781.759 1923.998 2780.849 1924.545 2779.896 1924.545zM3089.96 1702.38c-.055 0-.108-.001-.163-.005-1.378-.088-2.423-1.277-2.335-2.655 2.892-45.034-7.178-80.957-29.928-106.771-32.313-36.664-79.679-40.001-80.153-40.031-1.377-.085-2.426-1.271-2.341-2.648.084-1.377 1.254-2.426 2.646-2.342 2.02.123 49.833 3.446 83.556 41.666 23.691 26.85 34.192 64.01 31.211 110.447C3092.367 1701.363 3091.267 1702.38 3089.96 1702.38z" class="color839cf7 svgShape"/></g></g></svg>